{
.appVersion = "911";
copyright = "Copyright (c) 2010, The Indie Flower Authors (kimberlygeswein.com)";
customParameters = (
{
name = licenseURL;
value = " http://scripts.sil.org/OFL";
},
{
name = description;
value = .;
},
{
name = license;

glyphs = (
{
glyphname = A;
lastChange = "2016-08-24 10:04:02 +0000";
layers = (
{
layerId = UUID0;
paths = (
{
closed = 1;
nodes = (
"131 10 LINE",
"131 46 LINE",
"121 101 LINE",
"110 156 LINE",
"102 214 LINE",
"102 245 LINE",
"103 255 LINE",
"103 265 LINE",
"104 271 LINE",
"104 272 LINE",
"112 281 LINE",
"116 285 LINE",
"149 288 LINE",
"189 291 LINE",
"265 291 LINE",
"382 275 LINE",
"438 272 LINE",
"467 278 LINE",
"475 250 LINE",
"479 187 LINE",
"479 142 LINE",
"473 107 LINE",
"465 73 LINE",
"458 39 LINE",
"458 12 LINE",
"466 -1 LINE",
"493 -1 LINE",
"517 18 LINE",
"525 28 LINE",
"528 48 LINE",
"532 80 LINE",
"534 108 LINE",
"535 139 LINE",
"535 182 LINE",
"531 259 LINE",
"521 353 LINE",
"503 457 LINE",
"476 558 LINE",
"436 649 LINE",
"382 719 LINE",
"313 760 LINE",
"215 760 LINE",
"142 723 LINE",
"95 660 LINE",
"69 578 LINE",
"57 489 LINE",
"51 396 LINE",
"48 355 LINE",
"48 329 LINE",
"45 324 LINE",
"35 320 LINE",
"25 317 LINE",
"19 312 LINE",
"19 300 LINE",
"21 297 LINE",
"30 283 LINE",
"43 269 LINE",
"54 256 LINE",
"57 253 LINE",
"54 223 LINE",
"54 156 LINE",
"62 93 LINE",
"74 39 LINE",
"93 5 LINE",
"116 -4 LINE"
);
},
{
closed = 1;
nodes = (
"92 338 LINE",
"92 361 LINE",
"93 436 LINE",
"101 520 LINE",
"118 604 LINE",
"153 671 LINE",
"208 713 LINE",
"286 713 LINE",
"347 678 LINE",
"395 619 LINE",
"429 545 LINE",
"450 467 LINE",
"461 394 LINE",
"461 364 LINE",
"459 347 LINE",
"453 328 LINE",
"446 319 LINE",
"438 317 LINE",
"436 317 LINE"
);
}
);
width = 563;
}
);
unicode = 0041;
},
{
glyphname = Aogonek;
lastChange = "2016-08-24 10:04:02 +0000";
layers = (
{
layerId = UUID0;
paths = (
{
closed = 1;
nodes = (
"546 -142 LINE",
"561 -108 LINE",
"503 -112 LINE",
"426 -91 LINE",
"405 -54 LINE",
"426 -30 LINE",
"438 -15 LINE",
"470 0 LINE",
"473 -1 LINE",
"493 -1 LINE",
"517 18 LINE",
"525 28 LINE",
"528 48 LINE",
"532 80 LINE",
"534 108 LINE",
"535 139 LINE",
"535 182 LINE",
"531 259 LINE",
"521 353 LINE",
"503 457 LINE",
"476 558 LINE",
"436 649 LINE",
"382 719 LINE",
"313 760 LINE",
"215 760 LINE",
"142 723 LINE",
"95 660 LINE",
"69 578 LINE",
"57 489 LINE",
"51 396 LINE",
"48 355 LINE",
"48 329 LINE",
"45 324 LINE",
"35 320 LINE",
"25 317 LINE",
"19 312 LINE",
"19 300 LINE",
"21 297 LINE",
"30 283 LINE",
"43 269 LINE",
"54 256 LINE",
"57 253 LINE",
"54 223 LINE",
"54 156 LINE",
"62 93 LINE",
"74 39 LINE",
"93 5 LINE",
"116 -4 LINE",
"131 10 LINE",
"131 46 LINE",
"121 101 LINE",
"110 156 LINE",
"102 214 LINE",
"102 245 LINE",
"103 255 LINE",
"103 265 LINE",
"104 271 LINE",
"104 272 LINE",
"112 281 LINE",
"116 285 LINE",
"149 288 LINE",
"189 291 LINE",
"265 291 LINE",
"382 275 LINE",
"438 272 LINE",
"467 278 LINE",
"475 250 LINE",
"479 187 LINE",
"479 142 LINE",
"473 107 LINE",
"465 73 LINE",
"461 57 LINE",
"460 49 LINE",
"459 42 LINE",
"452 39 LINE",
"446 36 LINE",
"432 31 LINE",
"405 19 LINE",
"385 1 LINE",
"376 -13 LINE",
"358 -57 LINE",
"369 -107 LINE",
"417 -135 LINE",
"496 -143 LINE"
);
},
{
closed = 1;
nodes = (
"92 338 LINE",
"92 361 LINE",
"93 436 LINE",
"101 520 LINE",
"118 604 LINE",
"153 671 LINE",
"208 713 LINE",
"286 713 LINE",
"347 678 LINE",
"395 619 LINE",
"429 545 LINE",
"450 467 LINE",
"461 394 LINE",
"461 364 LINE",
"459 347 LINE",
"453 328 LINE",
"446 319 LINE",
"438 317 LINE",
"436 317 LINE"
);
}
);
width = 563;
}
);
unicode = 0104;
},
{
glyphname = Aring;
lastChange = "2016-08-24 10:04:02 +0000";
layers = (
{
layerId = UUID0;
paths = (
{
closed = 1;
nodes = (
"131 10 LINE",
"131 46 LINE",
"121 101 LINE",
"110 156 LINE",
"102 214 LINE",
"102 245 LINE",
"103 255 LINE",
"103 265 LINE",
"104 271 LINE",
"104 272 LINE",
"112 281 LINE",
"116 285 LINE",
"149 288 LINE",
"189 291 LINE",
"265 291 LINE",
"382 275 LINE",
"438 272 LINE",
"467 278 LINE",
"475 250 LINE",
"479 187 LINE",
"479 142 LINE",
"473 107 LINE",
"465 73 LINE",
"458 39 LINE",
"458 12 LINE",
"466 -1 LINE",
"493 -1 LINE",
"517 18 LINE",
"525 28 LINE",
"528 48 LINE",
"532 80 LINE",
"534 108 LINE",
"535 139 LINE",
"535 182 LINE",
"531 259 LINE",
"521 353 LINE",
"503 457 LINE",
"476 558 LINE",
"436 649 LINE",
"382 719 LINE",
"347 739 LINE",
"323 753 LINE",
"297 758 LINE",
"306 763 LINE",
"313 769 LINE",
"326 779 LINE",
"344 811 LINE",
"344 843 LINE",
"332 871 LINE",
"313 896 LINE",
"286 913 LINE",
"250 913 LINE",
"212 902 LINE",
"180 880 LINE",
"160 848 LINE",
"160 789 LINE",
"185 768 LINE",
"194 758 LINE",
"208 753 LINE",
"191 748 LINE",
"179 741 LINE",
"142 723 LINE",
"95 660 LINE",
"69 578 LINE",
"57 489 LINE",
"51 396 LINE",
"48 355 LINE",
"48 329 LINE",
"45 324 LINE",
"35 320 LINE",
"25 317 LINE",
"19 312 LINE",
"19 300 LINE",
"21 297 LINE",
"30 283 LINE",
"43 269 LINE",
"54 256 LINE",
"57 253 LINE",
"54 223 LINE",
"54 156 LINE",
"62 93 LINE",
"74 39 LINE",
"93 5 LINE",
"116 -4 LINE"
);
},
{
closed = 1;
nodes = (
"92 338 LINE",
"92 361 LINE",
"93 436 LINE",
"101 520 LINE",
"118 604 LINE",
"153 671 LINE",
"208 713 LINE",
"286 713 LINE",
"347 678 LINE",
"395 619 LINE",
"429 545 LINE",
"450 467 LINE",
"461 394 LINE",
"461 364 LINE",
"459 347 LINE",
"453 328 LINE",
"446 319 LINE",
"438 317 LINE",
"436 317 LINE"
);
},
{
closed = 1;
nodes = (
"247 777 LINE",
"221 777 LINE",
"191 801 LINE",
"191 841 LINE",
"203 861 LINE",
"224 874 LINE",
"249 879 LINE",
"262 879 LINE",
"288 868 LINE",
"309 844 LINE",
"310 820 LINE",
"295 799 LINE",
"274 784 LINE",
"253 776 LINE"
);
}
);
width = 563;
}
);
unicode = 00C5;
},
{
glyphname = AE;
lastChange = "2016-08-24 10:04:02 +0000";
layers = (
{
layerId = UUID0;
paths = (
{
closed = 1;
nodes = (
"131 10 LINE",
"131 46 LINE",
"121 101 LINE",
"110 156 LINE",
"102 214 LINE",
"102 245 LINE",
"103 255 LINE",
"103 265 LINE",
"104 271 LINE",
"104 272 LINE",
"112 281 LINE",
"116 285 LINE",
"149 288 LINE",
"189 291 LINE",
"265 291 LINE",
"382 275 LINE",
"438 272 LINE",
"467 278 LINE",
"475 250 LINE",
"479 187 LINE",
"479 138 LINE",
"476 124 LINE",
"473 107 LINE",
"465 73 LINE",
"458 39 LINE",
"458 12 LINE",
"466 -1 LINE",
"493 -1 LINE",
"517 17 LINE",
"523 27 LINE",
"542 15 LINE",
"567 9 LINE",
"598 2 LINE",
"693 2 LINE",
"761 4 LINE",
"836 12 LINE",
"897 26 LINE",
"938 51 LINE",
"938 70 LINE",
"932 77 LINE",
"930 77 LINE",
"928 78 LINE",
"921 81 LINE",
"912 85 LINE",
"903 87 LINE",
"901 88 LINE",
"863 88 LINE",
"665 67 LINE",
"625 67 LINE",
"597 65 LINE",
"566 68 LINE",
"540 77 LINE",
"535 88 LINE",
"535 108 LINE",
"534 118 LINE",
"534 123 LINE",
"535 139 LINE",
"535 180 LINE",
"534 214 LINE",
"534 229 LINE",
"535 249 LINE",
"540 287 LINE",
"546 303 LINE",
"548 311 LINE",
"603 317 LINE",
"683 323 LINE",
"773 332 LINE",
"852 348 LINE",
"903 377 LINE",
"903 400 LINE",
"900 400 LINE",
"865 398 LINE",
"848 396 LINE",
"845 396 LINE",
"843 398 LINE",
"801 392 LINE",
"666 368 LINE",
"602 361 LINE",
"555 361 LINE",
"550 369 LINE",
"550 551 LINE",
"546 560 LINE",
"548 559 LINE",
"552 559 LINE",
"866 567 LINE",
"913 549 LINE",
"915 548 LINE",
"923 556 LINE",
"923 571 LINE",
"912 589 LINE",
"896 602 LINE",
"876 610 LINE",
"866 615 LINE",
"780 613 LINE",
"657 616 LINE",
"526 622 LINE",
"501 616 LINE",
"493 601 LINE",
"493 491 LINE",
"489 508 LINE",
"476 558 LINE",
"436 649 LINE",
"382 719 LINE",
"313 760 LINE",
"215 760 LINE",
"142 723 LINE",
"95 660 LINE",
"69 578 LINE",
"57 489 LINE",
"51 396 LINE",
"48 355 LINE",
"48 329 LINE",
"45 324 LINE",
"35 320 LINE",
"25 317 LINE",
"19 312 LINE",
"19 300 LINE",
"21 297 LINE",
"30 283 LINE",
"43 269 LINE",
"54 256 LINE",
"57 253 LINE",
"54 223 LINE",
"54 156 LINE",
"62 93 LINE",
"74 39 LINE",
"93 5 LINE",
"116 -4 LINE"
);
},
{
closed = 1;
nodes = (
"92 338 LINE",
"92 361 LINE",
"93 436 LINE",
"101 520 LINE",
"118 604 LINE",
"153 671 LINE",
"208 713 LINE",
"286 713 LINE",
"347 678 LINE",
"395 619 LINE",
"429 545 LINE",
"450 467 LINE",
"461 394 LINE",
"461 364 LINE",
"459 347 LINE",
"453 328 LINE",
"446 319 LINE",
"438 317 LINE",
"436 317 LINE"
);
}
);
width = 962;
}
);
unicode = 00C6;
},
{
glyphname = B;
lastChange = "2016-08-24 10:04:02 +0000";
layers = (
{
layerId = UUID0;
paths = (
{
closed = 1;
nodes = (
"561 -1 LINE",
"630 13 LINE",
"687 46 LINE",
"722 101 LINE",
"722 181 LINE",
"684 250 LINE",
"624 310 LINE",
"556 358 LINE",
"496 392 LINE",
"458 411 LINE",
"458 423 LINE",
"479 450 LINE",
"505 484 LINE",
"525 526 LINE",
"525 575 LINE",
"500 614 LINE",
"459 646 LINE",
"407 669 LINE",
"354 686 LINE",
"305 693 LINE",
"279 693 LINE",
"232 688 LINE",
"173 678 LINE",
"108 663 LINE",
"54 646 LINE",
"19 628 LINE",
"19 590 LINE",
"21 590 LINE",
"27 591 LINE",
"28 591 LINE",
"37 594 LINE",
"66 603 LINE",
"97 613 LINE",
"124 623 LINE",
"131 628 LINE",
"134 628 LINE",
"135 629 LINE",
"162 629 LINE",
"198 566 LINE",
"229 445 LINE",
"256 267 LINE",
"272 150 LINE",
"273 135 LINE",
"262 121 LINE",
"245 113 LINE",
"229 104 LINE",
"225 94 LINE",
"223 84 LINE",
"244 63 LINE",
"272 42 LINE",
"300 28 LINE",
"396 9 LINE",
"446 2 LINE",
"496 -1 LINE"
);
},
{
closed = 1;
nodes = (
"452 55 LINE",
"405 62 LINE",
"358 74 LINE",
"326 96 LINE",
"316 125 LINE",
"329 145 LINE",
"329 191 LINE",
"312 309 LINE",
"285 431 LINE",
"256 550 LINE",
"244 600 LINE",
"266 616 LINE",
"323 629 LINE",
"370 629 LINE",
"412 616 LINE",
"448 594 LINE",
"472 561 LINE",
"472 513 LINE",
"449 481 LINE",
"414 461 LINE",
"375 450 LINE",
"341 440 LINE",
"317 428 LINE",
"317 396 LINE",
"367 367 LINE",
"531 311 LINE",
"606 266 LINE",
"656 202 LINE",
"656 120 LINE",
"631 81 LINE",
"587 61 LINE",
"531 56 LINE",
"502 56 LINE",
"493 54 LINE"
);
}
);
width = 741;
}
);
unicode = 0042;
},
{
glyphname = C;
lastChange = "2016-08-24 10:04:02 +0000";
layers = (
{
layerId = UUID0;
paths = (
{
closed = 1;
nodes = (
"200 -1 LINE",
"215 0 LINE",
"216 0 LINE",
"440 48 LINE",
"443 48 LINE",
"459 57 LINE",
"476 70 LINE",
"488 84 LINE",
"488 100 LINE",
"473 104 LINE",
"432 104 LINE",
"366 92 LINE",
"301 77 LINE",
"235 64 LINE",
"162 64 LINE",
"108 109 LINE",
"77 177 LINE",
"64 256 LINE",
"64 341 LINE",
"104 432 LINE",
"170 507 LINE",
"255 563 LINE",
"300 581 LINE",
"302 581 LINE",
"313 582 LINE",
"325 582 LINE",
"348 577 LINE",
"348 553 LINE",
"341 535 LINE",
"332 519 LINE",
"326 500 LINE",
"326 490 LINE",
"341 490 LINE",
"365 513 LINE",
"385 545 LINE",
"395 578 LINE",
"395 612 LINE",
"370 647 LINE",
"306 647 LINE",
"224 613 LINE",
"150 555 LINE",
"89 479 LINE",
"44 395 LINE",
"19 309 LINE",
"19 244 LINE",
"26 184 LINE",
"45 123 LINE",
"73 67 LINE",
"112 24 LINE",
"165 -1 LINE"
);
}
);
width = 517;
}
);
unicode = 0043;
},
{
glyphname = Ccedilla;
lastChange = "2016-08-24 10:04:02 +0000";
layers = (
{
layerId = UUID0;
paths = (
{
closed = 1;
nodes = (
"282 -307 LINE",
"327 -295 LINE",
"364 -272 LINE",
"390 -237 LINE",
"390 -172 LINE",
"359 -129 LINE",
"314 -108 LINE",
"262 -103 LINE",
"218 -91 LINE",
"188 -64 LINE",
"188 -34 LINE",
"191 -29 LINE",
"189 -10 LINE",
"186 0 LINE",
"191 -1 LINE",
"200 -1 LINE",
"215 0 LINE",
"216 0 LINE",
"440 48 LINE",
"443 48 LINE",
"459 57 LINE",
"476 70 LINE",
"488 84 LINE",
"488 100 LINE",
"473 104 LINE",
"432 104 LINE",
"366 92 LINE",
"301 77 LINE",
"235 64 LINE",
"162 64 LINE",
"108 109 LINE",
"77 177 LINE",
"64 256 LINE",
"64 341 LINE",
"104 432 LINE",
"170 507 LINE",
"255 563 LINE",
"300 581 LINE",
"302 581 LINE",
"313 582 LINE",
"325 582 LINE",
"348 577 LINE",
"348 553 LINE",
"341 535 LINE",
"332 519 LINE",
"326 500 LINE",
"326 490 LINE",
"341 490 LINE",
"365 513 LINE",
"385 545 LINE",
"395 578 LINE",
"395 612 LINE",
"370 647 LINE",
"306 647 LINE",
"224 613 LINE",
"150 555 LINE",
"89 479 LINE",
"44 395 LINE",
"19 309 LINE",
"19 244 LINE",
"26 184 LINE",
"45 123 LINE",
"73 67 LINE",
"112 24 LINE",
"139 12 LINE",
"142 10 LINE",
"146 8 LINE",
"144 -2 LINE",
"143 -21 LINE",
"144 -55 LINE",
"160 -97 LINE",
"188 -122 LINE",
"224 -134 LINE",
"260 -142 LINE",
"294 -147 LINE",
"321 -161 LINE",
"338 -187 LINE",
"337 -210 LINE",
"337 -233 LINE",
"326 -255 LINE",
"309 -263 LINE",
"281 -262 LINE",
"250 -262 LINE",
"224 -243 LINE",
"197 -222 LINE",
"168 -204 LINE",
"145 -204 LINE",
"134 -206 LINE",
"128 -211 LINE",
"144 -229 LINE",
"168 -264 LINE",
"196 -290 LINE",
"233 -307 LINE"
);
}
);
width = 517;
}
);
unicode = 00C7;
},
{
glyphname = D;
lastChange = "2016-08-24 10:04:02 +0000";
layers = (
{
layerId = UUID0;
paths = (
{
closed = 1;
nodes = (
"455 -11 LINE",
"543 10 LINE",
"621 54 LINE",
"680 118 LINE",
"713 204 LINE",
"713 316 LINE",
"667 417 LINE",
"590 500 LINE",
"489 563 LINE",
"379 606 LINE",
"266 628 LINE",
"215 628 LINE",
"185 626 LINE",
"141 622 LINE",
"90 613 LINE",
"48 599 LINE",
"19 580 LINE",
"19 563 LINE",
"20 561 LINE",
"22 551 LINE",
"25 542 LINE",
"27 535 LINE",
"28 534 LINE",
"30 534 LINE",
"30 533 LINE",
"33 533 LINE",
"35 534 LINE",
"37 534 LINE",
"46 539 LINE",
"68 552 LINE",
"118 563 LINE",
"202 572 LINE",
"272 572 LINE",
"279 563 LINE",
"292 530 LINE",
"302 490 LINE",
"309 452 LINE",
"310 440 LINE",
"318 408 LINE",
"326 328 LINE",
"331 245 LINE",
"333 169 LINE",
"341 113 LINE",
"355 86 LINE",
"370 94 LINE",
"379 94 LINE",
"390 102 LINE",
"394 114 LINE",
"395 127 LINE",
"395 133 LINE",
"400 183 LINE",
"390 279 LINE",
"370 382 LINE",
"353 493 LINE",
"352 556 LINE",
"384 550 LINE",
"454 521 LINE",
"522 479 LINE",
"584 426 LINE",
"630 363 LINE",
"657 296 LINE",
"657 216 LINE",
"611 139 LINE",
"539 80 LINE",
"450 48 LINE",
"403 48 LINE",
"394 49 LINE",
"263 85 LINE",
"247 85 LINE",
"243 68 LINE",
"243 48 LINE",
"260 27 LINE",
"284 13 LINE",
"318 0 LINE",
"362 -11 LINE"
);
}
);
width = 741;
}
);
unicode = 0044;
},
{
glyphname = Eth;
lastChange = "2016-08-24 10:04:02 +0000";
layers = (
{
layerId = UUID0;
paths = (
{
closed = 1;
nodes = (
"455 -11 LINE",
"543 10 LINE",
"621 54 LINE",
"680 118 LINE",
"713 204 LINE",
"713 316 LINE",
"667 417 LINE",
"590 500 LINE",
"489 563 LINE",
"379 606 LINE",
"266 628 LINE",
"215 628 LINE",
"185 626 LINE",
"141 622 LINE",
"90 613 LINE",
"48 599 LINE",
"19 580 LINE",
"19 563 LINE",
"20 561 LINE",
"22 551 LINE",
"24 546 LINE",
"26 538 LINE",
"27 535 LINE",
"28 534 LINE",
"30 534 LINE",
"30 533 LINE",
"33 533 LINE",
"35 534 LINE",
"37 534 LINE",
"46 539 LINE",
"68 552 LINE",
"118 563 LINE",
"202 572 LINE",
"272 572 LINE",
"276 567 LINE",
"285 538 LINE",
"294 497 LINE",
"303 449 LINE",
"311 405 LINE",
"316 369 LINE",
"317 360 LINE",
"298 358 LINE",
"262 350 LINE",
"235 333 LINE",
"220 307 LINE",
"220 287 LINE",
"247 287 LINE",
"302 294 LINE",
"329 298 LINE",
"338 247 LINE",
"338 163 LINE",
"339 106 LINE",
"351 83 LINE",
"370 94 LINE",
"379 94 LINE",
"390 102 LINE",
"394 114 LINE",
"395 127 LINE",
"395 133 LINE",
"397 156 LINE",
"399 186 LINE",
"398 206 LINE",
"395 225 LINE",
"389 247 LINE",
"382 279 LINE",
"377 305 LINE",
"394 307 LINE",
"427 310 LINE",
"467 310 LINE",
"503 299 LINE",
"543 299 LINE",
"543 336 LINE",
"525 355 LINE",
"498 364 LINE",
"466 366 LINE",
"448 366 LINE",
"431 365 LINE",
"430 365 LINE",
"417 364 LINE",
"386 362 LINE",
"369 362 LINE",
"367 385 LINE",
"365 399 LINE",
"361 438 LINE",
"357 479 LINE",
"354 517 LINE",
"352 548 LINE",
"352 556 LINE",
"384 550 LINE",
"454 521 LINE",
"522 479 LINE",
"584 426 LINE",
"630 363 LINE",
"657 296 LINE",
"657 216 LINE",
"611 139 LINE",
"539 80 LINE",
"450 48 LINE",
"403 48 LINE",
"394 49 LINE",
"263 85 LINE",
"247 85 LINE",
"243 68 LINE",
"243 48 LINE",
"260 27 LINE",
"284 13 LINE",
"318 0 LINE",
"362 -11 LINE"
);
}
);
width = 741;
}
);
unicode = 00D0;
},
{
glyphname = Dcroat;
lastChange = "2016-08-24 10:04:02 +0000";
layers = (
{
layerId = UUID0;
paths = (
{
closed = 1;
nodes = (
"455 -11 LINE",
"543 10 LINE",
"621 54 LINE",
"680 118 LINE",
"713 204 LINE",
"713 316 LINE",
"667 417 LINE",
"590 500 LINE",
"489 563 LINE",
"379 606 LINE",
"266 628 LINE",
"215 628 LINE",
"185 626 LINE",
"141 622 LINE",
"90 613 LINE",
"48 599 LINE",
"19 580 LINE",
"19 563 LINE",
"20 561 LINE",
"22 551 LINE",
"24 546 LINE",
"26 538 LINE",
"27 535 LINE",
"28 534 LINE",
"30 534 LINE",
"30 533 LINE",
"33 533 LINE",
"35 534 LINE",
"37 534 LINE",
"46 539 LINE",
"68 552 LINE",
"118 563 LINE",
"202 572 LINE",
"272 572 LINE",
"279 563 LINE",
"292 530 LINE",
"302 490 LINE",
"309 452 LINE",
"310 440 LINE",
"318 408 LINE",
"322 368 LINE",
"325 339 LINE",
"313 338 LINE",
"301 339 LINE",
"274 340 LINE",
"233 330 LINE",
"208 300 LINE",
"208 266 LINE",
"236 266 LINE",
"271 272 LINE",
"304 279 LINE",
"321 282 LINE",
"329 284 LINE",
"331 244 LINE",
"332 207 LINE",
"333 169 LINE",
"341 113 LINE",
"355 86 LINE",
"370 94 LINE",
"379 94 LINE",
"390 102 LINE",
"394 114 LINE",
"395 127 LINE",
"395 133 LINE",
"400 183 LINE",
"395 230 LINE",
"392 258 LINE",
"388 285 LINE",
"398 283 LINE",
"408 280 LINE",
"427 275 LINE",
"467 275 LINE",
"467 313 LINE",
"449 332 LINE",
"422 341 LINE",
"405 342 LINE",
"391 343 LINE",
"377 343 LINE",
"369 388 LINE",
"361 438 LINE",
"353 493 LINE",
"352 556 LINE",
"384 550 LINE",
"454 521 LINE",
"522 479 LINE",
"584 426 LINE",
"630 363 LINE",
"657 296 LINE",
"657 216 LINE",
"611 139 LINE",
"539 80 LINE",
"450 48 LINE",
"403 48 LINE",
"394 49 LINE",
"263 85 LINE",
"247 85 LINE",
"243 68 LINE",
"243 48 LINE",
"260 27 LINE",
"284 13 LINE",
"318 0 LINE",
"362 -11 LINE"
);
}
);
width = 741;
}
);
unicode = 0110;
},
{
glyphname = E;
lastChange = "2016-08-24 10:04:02 +0000";
layers = (
{
layerId = UUID0;
paths = (
{
closed = 1;
nodes = (
"232 -1 LINE",
"300 1 LINE",
"375 9 LINE",
"438 23 LINE",
"479 48 LINE",
"479 67 LINE",
"471 74 LINE",
"469 74 LINE",
"467 75 LINE",
"460 78 LINE",
"451 82 LINE",
"443 84 LINE",
"440 85 LINE",
"402 85 LINE",
"204 64 LINE",
"165 64 LINE",
"136 63 LINE",
"105 65 LINE",
"79 74 LINE",
"74 85 LINE",
"74 166 LINE",
"73 206 LINE",
"74 246 LINE",
"79 284 LINE",
"85 300 LINE",
"87 308 LINE",
"142 314 LINE",
"222 320 LINE",
"313 329 LINE",
"391 345 LINE",
"442 374 LINE",
"442 397 LINE",
"439 397 LINE",
"423 396 LINE",
"404 396 LINE",
"388 394 LINE",
"385 394 LINE",
"382 396 LINE",
"206 365 LINE",
"142 358 LINE",
"95 358 LINE",
"89 366 LINE",
"89 548 LINE",
"85 557 LINE",
"87 556 LINE",
"92 556 LINE",
"405 564 LINE",
"452 546 LINE",
"455 545 LINE",
"462 553 LINE",
"462 568 LINE",
"452 586 LINE",
"436 599 LINE",
"415 607 LINE",
"405 612 LINE",
"319 610 LINE",
"197 613 LINE",
"65 619 LINE",
"40 613 LINE",
"33 598 LINE",
"33 366 LINE",
"30 364 LINE",
"21 349 LINE",
"19 347 LINE",
"19 329 LINE",
"29 309 LINE",
"29 253 LINE",
"19 180 LINE",
"19 101 LINE",
"38 45 LINE",
"77 13 LINE",
"137 -1 LINE"
);
}
);
width = 525;
}
);
unicode = 0045;
},
{
glyphname = Eogonek;
lastChange = "2016-08-24 10:04:02 +0000";
layers = (
{
layerId = UUID0;
paths = (
{
closed = 1;
nodes = (
"443 -142 LINE",
"458 -108 LINE",
"400 -112 LINE",
"323 -91 LINE",
"303 -54 LINE",
"344 -8 LINE",
"402 15 LINE",
"402 16 LINE",
"405 16 LINE",
"438 23 LINE",
"479 48 LINE",
"479 67 LINE",
"471 74 LINE",
"469 74 LINE",
"467 75 LINE",
"460 78 LINE",
"451 82 LINE",
"443 84 LINE",
"440 85 LINE",
"402 85 LINE",
"204 64 LINE",
"165 64 LINE",
"136 63 LINE",
"105 65 LINE",
"79 74 LINE",
"74 85 LINE",
"74 166 LINE",
"73 206 LINE",
"74 246 LINE",
"79 284 LINE",
"85 300 LINE",
"87 308 LINE",
"142 314 LINE",
"222 320 LINE",
"313 329 LINE",
"391 345 LINE",
"442 374 LINE",
"442 397 LINE",
"439 397 LINE",
"423 396 LINE",
"404 396 LINE",
"388 394 LINE",
"385 394 LINE",
"382 396 LINE",
"206 365 LINE",
"142 358 LINE",
"95 358 LINE",
"89 366 LINE",
"89 548 LINE",
"85 557 LINE",
"87 556 LINE",
"92 556 LINE",
"405 564 LINE",
"452 546 LINE",
"455 545 LINE",
"462 553 LINE",
"462 568 LINE",
"452 586 LINE",
"436 599 LINE",
"415 607 LINE",
"405 612 LINE",
"319 610 LINE",
"197 613 LINE",
"65 619 LINE",
"40 613 LINE",
"33 598 LINE",
"33 366 LINE",
"30 364 LINE",
"21 349 LINE",
"19 347 LINE",
"19 329 LINE",
"29 309 LINE",
"29 253 LINE",
"19 180 LINE",
"19 101 LINE",
"38 45 LINE",
"77 13 LINE",
"137 -1 LINE",
"232 -1 LINE",
"267 0 LINE",
"274 1 LINE",
"282 1 LINE",
"277 -5 LINE",
"273 -13 LINE",
"256 -57 LINE",
"267 -107 LINE",
"314 -135 LINE",
"394 -143 LINE"
);
}
);
width = 525;
}
);
unicode = 0118;
},
{
glyphname = F;
lastChange = "2016-08-24 10:04:02 +0000";
layers = (
{
layerId = UUID0;
paths = (
{
closed = 1;
nodes = (
"247 48 LINE",
"244 87 LINE",
"238 109 LINE",
"234 126 LINE",
"229 154 LINE",
"225 203 LINE",
"224 247 LINE",
"293 246 LINE",
"393 259 LINE",
"448 278 LINE",
"458 301 LINE",
"420 317 LINE",
"329 323 LINE",
"256 317 LINE",
"242 317 LINE",
"230 318 LINE",
"218 318 LINE",
"203 329 LINE",
"191 376 LINE",
"189 429 LINE",
"193 480 LINE",
"193 509 LINE",
"215 525 LINE",
"250 534 LINE",
"291 537 LINE",
"329 536 LINE",
"361 534 LINE",
"401 534 LINE",
"463 520 LINE",
"523 500 LINE",
"584 484 LINE",
"614 484 LINE",
"610 515 LINE",
"557 558 LINE",
"473 584 LINE",
"365 599 LINE",
"253 600 LINE",
"142 592 LINE",
"48 576 LINE",
"-21 554 LINE",
"-34 540 LINE",
"-34 536 LINE",
"-33 533 LINE",
"-26 520 LINE",
"-25 518 LINE",
"-24 517 LINE",
"-18 517 LINE",
"-17 518 LINE",
"-14 519 LINE",
"1 525 LINE",
"3 526 LINE",
"24 526 LINE",
"46 527 LINE",
"68 527 LINE",
"104 532 LINE",
"132 516 LINE",
"139 471 LINE",
"137 400 LINE",
"145 353 LINE",
"145 329 LINE",
"128 305 LINE",
"102 295 LINE",
"68 294 LINE",
"51 292 LINE",
"48 292 LINE",
"40 285 LINE",
"40 265 LINE",
"57 252 LINE",
"83 252 LINE",
"113 257 LINE",
"142 256 LINE",
"162 241 LINE",
"165 222 LINE",
"170 195 LINE",
"174 159 LINE",
"175 132 LINE",
"175 108 LINE",
"177 80 LINE",
"183 45 LINE",
"188 19 LINE",
"188 16 LINE",
"196 15 LINE",
"212 15 LINE",
"235 14 LINE",
"250 12 LINE"
);
}
);
width = 515;
}
);
unicode = 0046;
},
{
glyphname = G;
lastChange = "2016-08-24 10:04:02 +0000";
layers = (
{
layerId = UUID0;
paths = (
{
closed = 1;
nodes = (
"527 -69 LINE",
"542 -62 LINE",
"554 -51 LINE",
"561 -37 LINE",
"557 -29 LINE",
"547 -21 LINE",
"537 -12 LINE",
"527 -4 LINE",
"525 -2 LINE",
"525 250 LINE",
"516 268 LINE",
"502 280 LINE",
"484 288 LINE",
"441 288 LINE",
"375 277 LINE",
"330 277 LINE",
"311 284 LINE",
"271 298 LINE",
"252 298 LINE",
"247 281 LINE",
"247 267 LINE",
"254 252 LINE",
"265 239 LINE",
"279 231 LINE",
"464 231 LINE",
"472 224 LINE",
"476 198 LINE",
"476 145 LINE",
"429 92 LINE",
"354 67 LINE",
"264 63 LINE",
"197 63 LINE",
"147 77 LINE",
"106 105 LINE",
"80 147 LINE",
"80 215 LINE",
"110 288 LINE",
"162 353 LINE",
"229 407 LINE",
"305 446 LINE",
"382 467 LINE",
"432 467 LINE",
"459 461 LINE",
"484 452 LINE",
"510 445 LINE",
"523 445 LINE",
"523 465 LINE",
"508 495 LINE",
"481 515 LINE",
"446 524 LINE",
"427 522 LINE",
"389 520 LINE",
"300 493 LINE",
"212 449 LINE",
"132 390 LINE",
"69 318 LINE",
"32 238 LINE",
"32 153 LINE",
"58 85 LINE",
"104 34 LINE",
"171 6 LINE",
"241 6 LINE",
"413 45 LINE",
"443 45 LINE",
"461 44 LINE",
"464 44 LINE",
"464 30 LINE",
"467 -8 LINE",
"479 -43 LINE",
"501 -69 LINE"
);
}
);
width = 572;
}
);
unicode = 0047;
},
{
glyphname = H;
lastChange = "2016-08-24 10:04:02 +0000";
layers = (
{
layerId = UUID0;
paths = (
{
closed = 1;
nodes = (
"469 0 LINE",
"470 0 LINE",
"479 5 LINE",
"495 17 LINE",
"497 19 LINE",
"497 28 LINE",
"496 29 LINE",
"493 37 LINE",
"490 47 LINE",
"487 55 LINE",
"487 57 LINE",
"486 67 LINE",
"480 118 LINE",
"475 176 LINE",
"470 226 LINE",
"469 235 LINE",
"463 317 LINE",
"458 484 LINE",
"458 570 LINE",
"459 591 LINE",
"459 613 LINE",
"460 634 LINE",
"460 637 LINE",
"461 639 LINE",
"469 653 LINE",
"469 669 LINE",
"458 676 LINE",
"443 676 LINE",
"432 669 LINE",
"420 657 LINE",
"412 643 LINE",
"412 637 LINE",
"408 415 LINE",
"217 322 LINE",
"158 298 LINE",
"136 291 LINE",
"122 291 LINE",
"120 292 LINE",
"112 308 LINE",
"112 310 LINE",
"74 637 LINE",
"74 646 LINE",
"62 648 LINE",
"51 648 LINE",
"40 646 LINE",
"37 637 LINE",
"37 622 LINE",
"36 607 LINE",
"36 552 LINE",
"43 476 LINE",
"51 397 LINE",
"57 320 LINE",
"57 268 LINE",
"44 257 LINE",
"28 250 LINE",
"16 241 LINE",
"16 228 LINE",
"19 218 LINE",
"19 216 LINE",
"43 224 LINE",
"68 197 LINE",
"79 148 LINE",
"82 89 LINE",
"87 38 LINE",
"100 7 LINE",
"115 10 LINE",
"119 12 LINE",
"133 26 LINE",
"133 29 LINE",
"131 225 LINE",
"139 229 LINE",
"175 244 LINE",
"312 309 LINE",
"347 324 LINE",
"355 329 LINE",
"405 352 LINE",
"408 335 LINE",
"413 288 LINE",
"417 236 LINE",
"420 184 LINE",
"422 142 LINE",
"423 113 LINE",
"423 104 LINE",
"428 65 LINE",
"438 26 LINE",
"455 -3 LINE"
);
}
);
width = 525;
}
);
unicode = 0048;
},
{
glyphname = I;
lastChange = "2016-08-24 10:04:02 +0000";
layers = (
{
layerId = UUID0;
paths = (
{
closed = 1;
nodes = (
"131 0 LINE",
"140 2 LINE",
"147 11 LINE",
"150 21 LINE",
"150 57 LINE",
"143 125 LINE",
"131 213 LINE",
"114 312 LINE",
"95 406 LINE",
"73 489 LINE",
"50 543 LINE",
"26 563 LINE",
"15 546 LINE",
"15 522 LINE",
"25 467 LINE",
"39 411 LINE",
"54 361 LINE",
"57 347 LINE",
"63 312 LINE",
"71 232 LINE",
"80 152 LINE",
"89 73 LINE",
"94 37 LINE",
"95 36 LINE",
"102 22 LINE",
"112 9 LINE",
"125 -2 LINE"
);
}
);
width = 168;
}
);
unicode = 0049;
},
{
glyphname = Iogonek;
lastChange = "2016-08-24 10:04:02 +0000";
layers = (
{
layerId = UUID0;
paths = (
{
closed = 1;
nodes = (
"183 -142 LINE",
"197 -108 LINE",
"140 -112 LINE",
"63 -91 LINE",
"42 -54 LINE",
"63 -30 LINE",
"77 -13 LINE",
"117 4 LINE",
"118 4 LINE",
"125 -2 LINE",
"131 0 LINE",
"140 2 LINE",
"147 11 LINE",
"150 21 LINE",
"150 57 LINE",
"143 125 LINE",
"131 213 LINE",
"114 312 LINE",
"95 406 LINE",
"73 489 LINE",
"50 543 LINE",
"26 563 LINE",
"15 546 LINE",
"15 522 LINE",
"25 467 LINE",
"39 411 LINE",
"54 361 LINE",
"57 347 LINE",
"63 312 LINE",
"71 232 LINE",
"80 152 LINE",
"84 112 LINE",
"89 74 LINE",
"93 40 LINE",
"88 39 LINE",
"83 36 LINE",
"68 31 LINE",
"42 19 LINE",
"21 1 LINE",
"13 -13 LINE",
"-5 -57 LINE",
"6 -107 LINE",
"54 -135 LINE",
"133 -143 LINE"
);
}
);
width = 168;
}
);
unicode = 012E;
},
{
glyphname = J;
lastChange = "2016-08-24 10:04:02 +0000";
layers = (
{
layerId = UUID0;
paths = (
{
closed = 1;
nodes = (
"343 -1 LINE",
"379 28 LINE",
"402 74 LINE",
"415 132 LINE",
"421 188 LINE",
"422 238 LINE",
"421 253 LINE",
"423 251 LINE",
"420 299 LINE",
"413 376 LINE",
"401 473 LINE",
"386 567 LINE",
"367 650 LINE",
"347 700 LINE",
"325 706 LINE",
"313 676 LINE",
"365 310 LINE",
"365 294 LINE",
"366 275 LINE",
"366 213 LINE",
"364 170 LINE",
"359 122 LINE",
"350 82 LINE",
"335 56 LINE",
"302 56 LINE",
"247 80 LINE",
"191 122 LINE",
"137 177 LINE",
"95 236 LINE",
"68 296 LINE",
"68 326 LINE",
"73 336 LINE",
"80 349 LINE",
"68 354 LINE",
"48 354 LINE",
"21 325 LINE",
"21 288 LINE",
"29 259 LINE",
"42 235 LINE",
"57 216 LINE",
"65 206 LINE",
"92 174 LINE",
"147 108 LINE",
"208 51 LINE",
"276 7 LINE",
"317 -1 LINE"
);
}
);
width = 440;
}
);
unicode = 004A;
},
{
glyphname = K;
lastChange = "2016-08-24 10:04:02 +0000";
layers = (
{
layerId = UUID0;
paths = (
{
closed = 1;
nodes = (
"443 7 LINE",
"444 23 LINE",
"435 42 LINE",
"417 58 LINE",
"405 62 LINE",
"285 139 LINE",
"209 197 LINE",
"140 262 LINE",
"112 300 LINE",
"124 321 LINE",
"165 370 LINE",
"212 422 LINE",
"261 473 LINE",
"281 497 LINE",
"294 511 LINE",
"320 537 LINE",
"338 561 LINE",
"344 579 LINE",
"338 586 LINE",
"314 587 LINE",
"268 561 LINE",
"221 517 LINE",
"175 463 LINE",
"134 410 LINE",
"100 364 LINE",
"87 352 LINE",
"83 376 LINE",
"79 427 LINE",
"74 476 LINE",
"70 520 LINE",
"65 534 LINE",
"64 539 LINE",
"63 556 LINE",
"58 572 LINE",
"49 584 LINE",
"36 584 LINE",
"27 578 LINE",
"21 569 LINE",
"19 561 LINE",
"19 528 LINE",
"26 461 LINE",
"36 391 LINE",
"46 322 LINE",
"48 291 LINE",
"48 283 LINE",
"47 234 LINE",
"47 170 LINE",
"51 98 LINE",
"60 37 LINE",
"77 -2 LINE",
"105 -2 LINE",
"115 21 LINE",
"115 61 LINE",
"107 109 LINE",
"101 159 LINE",
"98 207 LINE",
"102 224 LINE",
"112 207 LINE",
"154 170 LINE",
"206 131 LINE",
"265 92 LINE",
"320 55 LINE",
"385 10 LINE",
"405 -1 LINE",
"431 -3 LINE"
);
}
);
width = 469;
}
);
unicode = 004B;
},
{
glyphname = L;
lastChange = "2016-08-24 10:04:02 +0000";
layers = (
{
layerId = UUID0;
paths = (
{
closed = 1;
nodes = (
"244 -2 LINE",
"287 0 LINE",
"291 0 LINE",
"309 4 LINE",
"329 16 LINE",
"329 38 LINE",
"327 56 LINE",
"318 57 LINE",
"111 75 LINE",
"93 90 LINE",
"81 109 LINE",
"74 132 LINE",
"74 142 LINE",
"72 177 LINE",
"80 262 LINE",
"91 348 LINE",
"103 430 LINE",
"105 494 LINE",
"98 534 LINE",
"83 535 LINE",
"73 540 LINE",
"57 508 LINE",
"43 447 LINE",
"33 366 LINE",
"25 279 LINE",
"21 192 LINE",
"19 158 LINE",
"19 109 LINE",
"48 48 LINE",
"101 12 LINE",
"175 -2 LINE"
);
}
);
width = 347;
}
);
unicode = 004C;
},
{
glyphname = Lslash;
lastChange = "2016-08-24 10:04:02 +0000";
layers = (
{
layerId = UUID0;
paths = (
{
closed = 1;
nodes = (
"289 7 LINE",
"332 9 LINE",
"336 9 LINE",
"353 13 LINE",
"374 24 LINE",
"374 48 LINE",
"372 64 LINE",
"364 65 LINE",
"156 85 LINE",
"139 99 LINE",
"126 118 LINE",
"120 141 LINE",
"120 150 LINE",
"119 158 LINE",
"118 177 LINE",
"119 188 LINE",
"136 197 LINE",
"156 212 LINE",
"187 241 LINE",
"197 249 LINE",
"203 249 LINE",
"196 262 LINE",
"174 295 LINE",
"174 300 LINE",
"125 271 LINE",
"130 318 LINE",
"145 415 LINE",
"150 493 LINE",
"144 543 LINE",
"128 544 LINE",
"119 549 LINE",
"104 525 LINE",
"92 480 LINE",
"83 417 LINE",
"74 346 LINE",
"68 271 LINE",
"66 235 LINE",
"12 200 LINE",
"24 145 LINE",
"34 148 LINE",
"54 156 LINE",
"63 159 LINE",
"63 113 LINE",
"95 54 LINE",
"147 20 LINE",
"221 7 LINE"
);
}
);
width = 347;
}
);
unicode = 0141;
},
{
glyphname = M;
lastChange = "2016-08-24 10:04:02 +0000";
layers = (
{
layerId = UUID0;
paths = (
{
closed = 1;
nodes = (
"494 -2 LINE",
"502 2 LINE",
"506 11 LINE",
"506 68 LINE",
"491 166 LINE",
"473 265 LINE",
"458 362 LINE",
"458 450 LINE",
"470 518 LINE",
"470 559 LINE",
"469 578 LINE",
"463 599 LINE",
"452 611 LINE",
"440 610 LINE",
"427 613 LINE",
"409 586 LINE",
"394 542 LINE",
"373 490 LINE",
"341 446 LINE",
"289 418 LINE",
"250 420 LINE",
"218 420 LINE",
"177 449 LINE",
"145 490 LINE",
"121 540 LINE",
"95 582 LINE",
"63 610 LINE",
"19 610 LINE",
"19 572 LINE",
"33 542 LINE",
"51 512 LINE",
"66 480 LINE",
"66 396 LINE",
"56 271 LINE",
"56 66 LINE",
"58 54 LINE",
"68 27 LINE",
"89 27 LINE",
"100 30 LINE",
"109 34 LINE",
"116 42 LINE",
"116 48 LINE",
"117 375 LINE",
"117 381 LINE",
"116 398 LINE",
"118 414 LINE",
"121 426 LINE",
"125 426 LINE",
"183 355 LINE",
"279 355 LINE",
"350 375 LINE",
"385 394 LINE",
"396 388 LINE",
"406 361 LINE",
"411 330 LINE",
"411 300 LINE",
"412 291 LINE",
"413 280 LINE",
"417 238 LINE",
"423 185 LINE",
"429 125 LINE",
"435 71 LINE",
"439 29 LINE",
"440 19 LINE",
"445 3 LINE",
"466 -2 LINE"
);
}
);
width = 534;
}
);
unicode = 004D;
},
{
glyphname = N;
lastChange = "2016-08-24 10:04:02 +0000";
layers = (
{
layerId = UUID0;
paths = (
{
closed = 1;
nodes = (
"72 -1 LINE",
"86 15 LINE",
"93 36 LINE",
"95 58 LINE",
"95 95 LINE",
"84 148 LINE",
"84 212 LINE",
"89 236 LINE",
"101 254 LINE",
"120 254 LINE",
"142 218 LINE",
"174 163 LINE",
"218 101 LINE",
"275 45 LINE",
"349 10 LINE",
"437 10 LINE",
"506 38 LINE",
"556 89 LINE",
"583 159 LINE",
"583 218 LINE",
"572 274 LINE",
"553 341 LINE",
"527 408 LINE",
"498 463 LINE",
"466 498 LINE",
"437 498 LINE",
"431 481 LINE",
"431 434 LINE",
"461 373 LINE",
"496 312 LINE",
"526 247 LINE",
"526 180 LINE",
"512 130 LINE",
"481 95 LINE",
"437 74 LINE",
"406 74 LINE",
"355 73 LINE",
"273 121 LINE",
"207 200 LINE",
"156 300 LINE",
"119 402 LINE",
"93 499 LINE",
"85 534 LINE",
"73 534 LINE",
"63 531 LINE",
"51 528 LINE",
"40 525 LINE",
"38 525 LINE",
"38 496 LINE",
"48 449 LINE",
"48 378 LINE",
"42 288 LINE",
"34 197 LINE",
"28 105 LINE",
"28 53 LINE",
"31 32 LINE",
"39 13 LINE",
"52 -1 LINE"
);
}
);
width = 610;
}
);
unicode = 004E;
},
{
glyphname = O;
lastChange = "2016-08-24 10:04:02 +0000";
layers = (
{
layerId = UUID0;
paths = (
{
closed = 1;
nodes = (
"297 -1 LINE",
"429 19 LINE",
"511 52 LINE",
"572 110 LINE",
"582 161 LINE",
"578 229 LINE",
"514 339 LINE",
"411 421 LINE",
"277 474 LINE",
"204 484 LINE",
"162 481 LINE",
"92 446 LINE",
"42 390 LINE",
"16 314 LINE",
"19 272 LINE",
"19 211 LINE",
"60 109 LINE",
"134 39 LINE",
"236 -1 LINE"
);
},
{
closed = 1;
nodes = (
"248 57 LINE",
"168 95 LINE",
"104 154 LINE",
"63 232 LINE",
"64 276 LINE",
"64 297 LINE",
"73 338 LINE",
"95 378 LINE",
"134 412 LINE",
"164 423 LINE",
"186 427 LINE",
"252 420 LINE",
"328 396 LINE",
"406 354 LINE",
"473 296 LINE",
"519 219 LINE",
"525 171 LINE",
"525 147 LINE",
"497 111 LINE",
"453 85 LINE",
"399 66 LINE",
"347 56 LINE",
"301 51 LINE",
"288 51 LINE"
);
}
);
width = 610;
}
);
unicode = 004F;
},
{
glyphname = Oslash;
lastChange = "2016-08-24 10:04:02 +0000";
layers = (
{
layerId = UUID0;
paths = (
{
closed = 1;
nodes = (
"160 -102 LINE",
"191 -47 LINE",
"210 -2 LINE",
"213 3 LINE",
"215 9 LINE",
"254 -1 LINE",
"297 -1 LINE",
"429 19 LINE",
"511 52 LINE",
"572 110 LINE",
"582 161 LINE",
"578 229 LINE",
"514 339 LINE",
"462 380 LINE",
"420 414 LINE",
"366 438 LINE",
"372 460 LINE",
"388 513 LINE",
"405 590 LINE",
"405 610 LINE",
"406 624 LINE",
"403 637 LINE",
"396 646 LINE",
"387 648 LINE",
"374 645 LINE",
"358 612 LINE",
"349 572 LINE",
"343 531 LINE",
"340 518 LINE",
"317 457 LINE",
"263 476 LINE",
"204 484 LINE",
"162 481 LINE",
"92 446 LINE",
"42 390 LINE",
"16 314 LINE",
"19 272 LINE",
"19 211 LINE",
"60 109 LINE",
"97 74 LINE",
"123 49 LINE",
"156 31 LINE",
"151 20 LINE",
"146 7 LINE",
"137 -14 LINE",
"124 -55 LINE",
"124 -78 LINE",
"140 -102 LINE"
);
},
{
closed = 1;
nodes = (
"158 104 LINE",
"136 124 LINE",
"104 154 LINE",
"63 232 LINE",
"64 276 LINE",
"64 297 LINE",
"73 338 LINE",
"95 378 LINE",
"134 412 LINE",
"164 423 LINE",
"186 427 LINE",
"252 420 LINE",
"299 404 LINE",
"184 89 LINE"
);
},
{
closed = 1;
nodes = (
"263 55 LINE",
"238 63 LINE",
"244 81 LINE",
"252 101 LINE",
"273 159 LINE",
"317 284 LINE",
"337 346 LINE",
"344 365 LINE",
"350 384 LINE",
"406 354 LINE",
"473 296 LINE",
"519 219 LINE",
"525 171 LINE",
"525 147 LINE",
"497 111 LINE",
"453 85 LINE",
"399 66 LINE",
"347 56 LINE",
"301 51 LINE",
"288 51 LINE"
);
}
);
width = 610;
}
);
unicode = 00D8;
},
{
glyphname = Oslashacute;
lastChange = "2016-08-24 10:04:02 +0000";
layers = (
{
layerId = UUID0;
paths = (
{
closed = 1;
nodes = (
"194 -90 LINE",
"222 -46 LINE",
"238 -9 LINE",
"244 3 LINE",
"271 -1 LINE",
"297 -1 LINE",
"429 19 LINE",
"511 52 LINE",
"572 110 LINE",
"582 161 LINE",
"578 229 LINE",
"514 339 LINE",
"433 403 LINE",
"397 422 LINE",
"400 432 LINE",
"402 440 LINE",
"411 472 LINE",
"411 499 LINE",
"408 511 LINE",
"402 518 LINE",
"394 520 LINE",
"383 517 LINE",
"369 490 LINE",
"360 458 LINE",
"357 441 LINE",
"344 447 LINE",
"277 474 LINE",
"204 484 LINE",
"162 481 LINE",
"92 446 LINE",
"42 390 LINE",
"16 314 LINE",
"19 272 LINE",
"19 211 LINE",
"60 109 LINE",
"134 39 LINE",
"186 19 LINE",
"188 19 LINE",
"189 17 LINE",
"186 8 LINE",
"174 -19 LINE",
"162 -52 LINE",
"162 -71 LINE",
"177 -90 LINE"
);
},
{
closed = 1;
nodes = (
"213 74 LINE",
"208 76 LINE",
"168 95 LINE",
"104 154 LINE",
"63 232 LINE",
"64 276 LINE",
"64 297 LINE",
"73 338 LINE",
"95 378 LINE",
"134 412 LINE",
"164 423 LINE",
"186 427 LINE",
"252 420 LINE",
"290 407 LINE",
"316 399 LINE",
"343 387 LINE",
"218 71 LINE"
);
},
{
closed = 1;
nodes = (
"277 53 LINE",
"267 55 LINE",
"271 64 LINE",
"274 74 LINE",
"294 121 LINE",
"332 224 LINE",
"368 323 LINE",
"382 366 LINE",
"382 367 LINE",
"412 349 LINE",
"439 325 LINE",
"473 296 LINE",
"519 219 LINE",
"525 171 LINE",
"525 147 LINE",
"497 111 LINE",
"453 85 LINE",
"399 66 LINE",
"347 56 LINE",
"301 51 LINE",
"288 51 LINE"
);
},
{
closed = 1;
nodes = (
"232 543 LINE",
"265 575 LINE",
"323 625 LINE",
"359 662 LINE",
"364 689 LINE",
"344 699 LINE",
"329 687 LINE",
"282 657 LINE",
"239 625 LINE",
"208 587 LINE",
"208 553 LINE",
"218 543 LINE"
);
}
);
width = 610;
}
);
unicode = 01FE;
},
{
glyphname = OE;
lastChange = "2016-08-24 10:04:02 +0000";
layers = (
{
layerId = UUID0;
paths = (
{
closed = 1;
nodes = (
"586 1 LINE",
"653 2 LINE",
"729 8 LINE",
"792 19 LINE",
"833 38 LINE",
"833 54 LINE",
"824 58 LINE",
"820 60 LINE",
"799 65 LINE",
"723 65 LINE",
"590 51 LINE",
"517 51 LINE",
"487 50 LINE",
"457 51 LINE",
"431 58 LINE",
"427 65 LINE",
"427 82 LINE",
"426 98 LINE",
"426 158 LINE",
"427 188 LINE",
"432 218 LINE",
"437 229 LINE",
"438 234 LINE",
"471 239 LINE",
"522 243 LINE",
"587 246 LINE",
"653 251 LINE",
"716 259 LINE",
"766 271 LINE",
"796 291 LINE",
"796 305 LINE",
"793 305 LINE",
"741 302 LINE",
"738 302 LINE",
"736 303 LINE",
"693 298 LINE",
"631 289 LINE",
"558 280 LINE",
"493 274 LINE",
"446 275 LINE",
"440 280 LINE",
"440 417 LINE",
"437 426 LINE",
"438 425 LINE",
"443 425 LINE",
"760 432 LINE",
"807 417 LINE",
"809 417 LINE",
"815 423 LINE",
"815 435 LINE",
"806 448 LINE",
"789 458 LINE",
"769 465 LINE",
"760 468 LINE",
"672 467 LINE",
"417 473 LINE",
"391 468 LINE",
"384 455 LINE",
"384 382 LINE",
"373 402 LINE",
"343 437 LINE",
"300 463 LINE",
"241 481 LINE",
"204 487 LINE",
"162 484 LINE",
"92 449 LINE",
"42 393 LINE",
"16 317 LINE",
"19 275 LINE",
"19 214 LINE",
"60 113 LINE",
"134 42 LINE",
"236 2 LINE",
"297 2 LINE",
"335 7 LINE",
"377 24 LINE",
"388 42 LINE",
"406 19 LINE",
"477 1 LINE"
);
},
{
closed = 1;
nodes = (
"248 60 LINE",
"168 98 LINE",
"104 157 LINE",
"63 235 LINE",
"64 279 LINE",
"64 300 LINE",
"73 341 LINE",
"95 381 LINE",
"134 415 LINE",
"164 426 LINE",
"196 432 LINE",
"263 420 LINE",
"321 372 LINE",
"365 282 LINE",
"375 210 LINE",
"375 175 LINE",
"362 117 LINE",
"340 77 LINE",
"308 54 LINE",
"288 54 LINE"
);
}
);
width = 849;
}
);
unicode = 0152;
},
{
glyphname = P;
lastChange = "2016-08-24 10:04:02 +0000";
layers = (
{
layerId = UUID0;
paths = (
{
closed = 1;
nodes = (
"321 8 LINE",
"328 23 LINE",
"329 40 LINE",
"329 78 LINE",
"318 145 LINE",
"318 188 LINE",
"329 183 LINE",
"384 188 LINE",
"452 206 LINE",
"524 238 LINE",
"582 282 LINE",
"615 338 LINE",
"610 370 LINE",
"610 417 LINE",
"564 487 LINE",
"492 537 LINE",
"399 571 LINE",
"305 592 LINE",
"215 600 LINE",
"177 600 LINE",
"149 596 LINE",
"113 589 LINE",
"74 578 LINE",
"40 563 LINE",
"19 546 LINE",
"19 510 LINE",
"21 480 LINE",
"24 465 LINE",
"27 461 LINE",
"28 460 LINE",
"30 459 LINE",
"31 458 LINE",
"42 458 LINE",
"57 479 LINE",
"70 505 LINE",
"85 529 LINE",
"94 534 LINE",
"104 540 LINE",
"139 545 LINE",
"177 546 LINE",
"208 544 LINE",
"231 544 LINE",
"296 536 LINE",
"371 520 LINE",
"449 492 LINE",
"514 455 LINE",
"555 406 LINE",
"555 347 LINE",
"521 302 LINE",
"470 271 LINE",
"410 253 LINE",
"385 253 LINE",
"361 255 LINE",
"326 259 LINE",
"310 262 LINE",
"300 288 LINE",
"292 342 LINE",
"288 396 LINE",
"285 452 LINE",
"281 479 LINE",
"262 479 LINE",
"244 461 LINE",
"244 281 LINE",
"248 260 LINE",
"256 186 LINE",
"269 102 LINE",
"286 24 LINE",
"300 0 LINE",
"310 -2 LINE"
);
}
);
width = 628;
}
);
unicode = 0050;
},
{
glyphname = Thorn;
lastChange = "2016-08-24 10:04:02 +0000";
layers = (
{
layerId = UUID0;
paths = (
{
closed = 1;
nodes = (
"120 45 LINE",
"162 27 LINE",
"202 12 LINE",
"239 -1 LINE",
"286 -1 LINE",
"366 7 LINE",
"435 34 LINE",
"479 88 LINE",
"479 168 LINE",
"451 227 LINE",
"405 271 LINE",
"344 306 LINE",
"278 327 LINE",
"212 338 LINE",
"163 338 LINE",
"129 326 LINE",
"111 326 LINE",
"106 325 LINE",
"105 358 LINE",
"107 412 LINE",
"111 478 LINE",
"115 538 LINE",
"115 587 LINE",
"114 597 LINE",
"57 608 LINE",
"54 609 LINE",
"51 585 LINE",
"49 544 LINE",
"49 490 LINE",
"51 435 LINE",
"53 379 LINE",
"54 334 LINE",
"57 303 LINE",
"57 300 LINE",
"77 -135 LINE",
"132 -156 LINE"
);
},
{
closed = 1;
nodes = (
"200 67 LINE",
"142 106 LINE",
"112 170 LINE",
"122 212 LINE",
"122 244 LINE",
"156 282 LINE",
"208 282 LINE",
"259 273 LINE",
"311 258 LINE",
"360 233 LINE",
"399 200 LINE",
"423 157 LINE",
"423 131 LINE",
"409 99 LINE",
"350 63 LINE",
"275 52 LINE"
);
}
);
width = 497;
}
);
unicode = 00DE;
},
{
glyphname = Q;
lastChange = "2016-08-24 10:04:02 +0000";
layers = (
{
layerId = UUID0;
paths = (
{
closed = 1;
nodes = (
"633 -113 LINE",
"654 -93 LINE",
"653 -83 LINE",
"631 -65 LINE",
"563 -28 LINE",
"532 -7 LINE",
"512 21 LINE",
"512 49 LINE",
"533 63 LINE",
"571 93 LINE",
"600 129 LINE",
"616 173 LINE",
"616 232 LINE",
"581 308 LINE",
"521 382 LINE",
"444 452 LINE",
"363 505 LINE",
"284 537 LINE",
"203 537 LINE",
"120 494 LINE",
"60 424 LINE",
"24 334 LINE",
"24 215 LINE",
"72 112 LINE",
"153 36 LINE",
"262 -4 LINE",
"320 1 LINE",
"327 1 LINE",
"350 4 LINE",
"375 7 LINE",
"396 10 LINE",
"399 11 LINE",
"400 11 LINE",
"417 12 LINE",
"420 12 LINE",
"443 13 LINE",
"484 -12 LINE",
"522 -49 LINE",
"558 -89 LINE",
"595 -113 LINE"
);
},
{
closed = 1;
nodes = (
"171 95 LINE",
"109 150 LINE",
"77 228 LINE",
"80 273 LINE",
"80 304 LINE",
"88 364 LINE",
"110 417 LINE",
"151 458 LINE",
"185 470 LINE",
"184 472 LINE",
"218 477 LINE",
"265 476 LINE",
"317 464 LINE",
"354 433 LINE",
"363 379 LINE",
"346 335 LINE",
"354 329 LINE",
"363 324 LINE",
"371 320 LINE",
"372 320 LINE",
"373 319 LINE",
"377 319 LINE",
"380 320 LINE",
"381 320 LINE",
"394 339 LINE",
"408 382 LINE",
"409 405 LINE",
"414 405 LINE",
"435 388 LINE",
"461 364 LINE",
"485 338 LINE",
"493 330 LINE",
"507 315 LINE",
"533 282 LINE",
"555 245 LINE",
"568 205 LINE",
"568 169 LINE",
"541 137 LINE",
"504 111 LINE",
"464 95 LINE",
"438 95 LINE",
"425 106 LINE",
"394 151 LINE",
"361 197 LINE",
"328 232 LINE",
"313 232 LINE",
"299 223 LINE",
"305 192 LINE",
"324 157 LINE",
"349 118 LINE",
"353 100 LINE",
"353 85 LINE",
"343 71 LINE",
"326 65 LINE",
"297 65 LINE",
"253 64 LINE"
);
}
);
width = 643;
}
);
unicode = 0051;
},
{
glyphname = R;
lastChange = "2016-08-24 10:04:02 +0000";
layers = (
{
layerId = UUID0;
paths = (
{
closed = 1;
nodes = (
"544 -34 LINE",
"558 -24 LINE",
"546 -8 LINE",
"504 19 LINE",
"436 60 LINE",
"352 124 LINE",
"256 218 LINE",
"206 285 LINE",
"227 292 LINE",
"289 305 LINE",
"360 321 LINE",
"432 343 LINE",
"490 374 LINE",
"525 417 LINE",
"525 478 LINE",
"500 529 LINE",
"456 569 LINE",
"399 598 LINE",
"338 615 LINE",
"276 624 LINE",
"223 624 LINE",
"179 622 LINE",
"136 618 LINE",
"87 610 LINE",
"57 604 LINE",
"45 599 LINE",
"21 582 LINE",
"2 563 LINE",
"-11 538 LINE",
"-11 518 LINE",
"-5 499 LINE",
"6 481 LINE",
"20 470 LINE",
"28 470 LINE",
"28 510 LINE",
"63 551 LINE",
"117 566 LINE",
"182 567 LINE",
"251 567 LINE",
"321 562 LINE",
"385 543 LINE",
"440 505 LINE",
"469 473 LINE",
"470 466 LINE",
"470 445 LINE",
"436 414 LINE",
"382 391 LINE",
"317 373 LINE",
"255 360 LINE",
"201 353 LINE",
"188 352 LINE",
"186 355 LINE",
"180 377 LINE",
"174 401 LINE",
"169 423 LINE",
"168 427 LINE",
"171 438 LINE",
"168 463 LINE",
"157 482 LINE",
"139 490 LINE",
"127 481 LINE",
"121 461 LINE",
"121 396 LINE",
"130 317 LINE",
"144 232 LINE",
"160 151 LINE",
"178 79 LINE",
"193 27 LINE",
"204 1 LINE",
"206 7 LINE",
"224 12 LINE",
"229 45 LINE",
"218 100 LINE",
"200 173 LINE",
"193 217 LINE",
"215 193 LINE",
"278 130 LINE",
"349 65 LINE",
"421 7 LINE",
"484 -33 LINE",
"533 -47 LINE"
);
}
);
width = 579;
}
);
unicode = 0052;
},
{
glyphname = S;
lastChange = "2016-08-24 10:04:02 +0000";
layers = (
{
layerId = UUID0;
paths = (
{
closed = 1;
nodes = (
"467 -1 LINE",
"545 27 LINE",
"596 77 LINE",
"601 112 LINE",
"604 147 LINE",
"573 204 LINE",
"516 253 LINE",
"438 294 LINE",
"357 332 LINE",
"278 368 LINE",
"215 408 LINE",
"177 452 LINE",
"177 505 LINE",
"218 536 LINE",
"273 551 LINE",
"332 555 LINE",
"351 555 LINE",
"370 557 LINE",
"408 545 LINE",
"441 525 LINE",
"473 505 LINE",
"502 490 LINE",
"530 484 LINE",
"544 492 LINE",
"544 514 LINE",
"520 546 LINE",
"481 569 LINE",
"435 586 LINE",
"386 596 LINE",
"343 601 LINE",
"300 601 LINE",
"230 589 LINE",
"171 561 LINE",
"130 513 LINE",
"130 458 LINE",
"142 423 LINE",
"162 391 LINE",
"190 364 LINE",
"206 355 LINE",
"497 197 LINE",
"512 188 LINE",
"528 174 LINE",
"535 157 LINE",
"537 136 LINE",
"537 122 LINE",
"538 92 LINE",
"497 63 LINE",
"438 50 LINE",
"376 48 LINE",
"355 48 LINE",
"298 51 LINE",
"194 64 LINE",
"116 104 LINE",
"71 177 LINE",
"71 240 LINE",
"60 240 LINE",
"41 227 LINE",
"27 206 LINE",
"19 183 LINE",
"19 174 LINE",
"29 135 LINE",
"88 73 LINE",
"170 27 LINE",
"270 0 LINE",
"370 -10 LINE"
);
}
);
width = 628;
}
);
unicode = 0053;
},
{
glyphname = Scedilla;
lastChange = "2016-08-24 10:04:02 +0000";
layers = (
{
layerId = UUID0;
paths = (
{
closed = 1;
nodes = (
"337 -307 LINE",
"382 -295 LINE",
"420 -272 LINE",
"444 -237 LINE",
"444 -172 LINE",
"414 -129 LINE",
"370 -108 LINE",
"317 -103 LINE",
"272 -91 LINE",
"242 -64 LINE",
"242 -34 LINE",
"247 -29 LINE",
"244 -10 LINE",
"238 5 LINE",
"235 10 LINE",
"277 -1 LINE",
"370 -10 LINE",
"467 -1 LINE",
"545 27 LINE",
"596 77 LINE",
"601 112 LINE",
"604 147 LINE",
"573 204 LINE",
"516 253 LINE",
"438 294 LINE",
"357 332 LINE",
"278 368 LINE",
"215 408 LINE",
"177 452 LINE",
"177 505 LINE",
"218 536 LINE",
"273 551 LINE",
"332 555 LINE",
"351 555 LINE",
"370 557 LINE",
"408 545 LINE",
"441 525 LINE",
"473 505 LINE",
"502 490 LINE",
"530 484 LINE",
"544 492 LINE",
"544 514 LINE",
"520 546 LINE",
"481 569 LINE",
"435 586 LINE",
"386 596 LINE",
"343 601 LINE",
"300 601 LINE",
"230 589 LINE",
"171 561 LINE",
"130 513 LINE",
"130 458 LINE",
"142 423 LINE",
"162 391 LINE",
"190 364 LINE",
"206 355 LINE",
"497 197 LINE",
"512 188 LINE",
"528 174 LINE",
"535 157 LINE",
"537 136 LINE",
"537 122 LINE",
"538 92 LINE",
"497 63 LINE",
"438 50 LINE",
"376 48 LINE",
"355 48 LINE",
"298 51 LINE",
"194 64 LINE",
"116 104 LINE",
"71 177 LINE",
"71 240 LINE",
"60 240 LINE",
"41 227 LINE",
"27 206 LINE",
"19 183 LINE",
"19 174 LINE",
"29 135 LINE",
"88 73 LINE",
"129 51 LINE",
"163 30 LINE",
"205 19 LINE",
"203 16 LINE",
"199 5 LINE",
"197 -21 LINE",
"198 -55 LINE",
"215 -97 LINE",
"243 -122 LINE",
"278 -134 LINE",
"314 -142 LINE",
"350 -147 LINE",
"376 -161 LINE",
"393 -187 LINE",
"392 -210 LINE",
"392 -233 LINE",
"382 -255 LINE",
"363 -263 LINE",
"336 -262 LINE",
"306 -262 LINE",
"279 -243 LINE",
"252 -222 LINE",
"223 -204 LINE",
"199 -204 LINE",
"188 -206 LINE",
"183 -211 LINE",
"198 -229 LINE",
"224 -264 LINE",
"251 -290 LINE",
"288 -307 LINE"
);
}
);
width = 628;
}
);
unicode = 015E;
},
{
glyphname = T;
lastChange = "2016-08-24 10:04:02 +0000";
layers = (
{
layerId = UUID0;
paths = (
{
closed = 1;
nodes = (
"428 -1 LINE",
"441 2 LINE",
"451 10 LINE",
"451 30 LINE",
"440 54 LINE",
"428 76 LINE",
"415 101 LINE",
"413 112 LINE",
"404 162 LINE",
"386 273 LINE",
"370 385 LINE",
"360 492 LINE",
"360 537 LINE",
"398 549 LINE",
"472 542 LINE",
"612 508 LINE",
"648 505 LINE",
"660 505 LINE",
"666 525 LINE",
"666 549 LINE",
"616 570 LINE",
"531 587 LINE",
"422 598 LINE",
"188 609 LINE",
"18 611 LINE",
"3 611 LINE",
"3 607 LINE",
"4 593 LINE",
"10 579 LINE",
"20 570 LINE",
"28 572 LINE",
"95 562 LINE",
"239 543 LINE",
"309 543 LINE",
"313 488 LINE",
"319 386 LINE",
"328 285 LINE",
"339 185 LINE",
"347 131 LINE",
"350 117 LINE",
"354 72 LINE",
"365 30 LINE",
"388 -1 LINE"
);
}
);
width = 581;
}
);
unicode = 0054;
},
{
glyphname = U;
lastChange = "2016-08-24 10:04:02 +0000";
layers = (
{
layerId = UUID0;
paths = (
{
closed = 1;
nodes = (
"256 -1 LINE",
"301 15 LINE",
"344 38 LINE",
"384 65 LINE",
"418 89 LINE",
"446 104 LINE",
"468 104 LINE",
"481 80 LINE",
"496 52 LINE",
"516 28 LINE",
"553 28 LINE",
"559 60 LINE",
"545 110 LINE",
"519 177 LINE",
"493 247 LINE",
"473 317 LINE",
"472 347 LINE",
"473 387 LINE",
"467 458 LINE",
"453 510 LINE",
"436 537 LINE",
"420 532 LINE",
"405 489 LINE",
"402 443 LINE",
"402 411 LINE",
"409 365 LINE",
"420 320 LINE",
"435 266 LINE",
"440 225 LINE",
"440 189 LINE",
"397 132 LINE",
"335 88 LINE",
"263 63 LINE",
"235 65 LINE",
"199 68 LINE",
"147 107 LINE",
"112 165 LINE",
"90 235 LINE",
"78 307 LINE",
"74 373 LINE",
"74 431 LINE",
"77 462 LINE",
"86 487 LINE",
"95 487 LINE",
"106 496 LINE",
"118 516 LINE",
"117 532 LINE",
"105 544 LINE",
"77 544 LINE",
"54 524 LINE",
"39 494 LINE",
"31 456 LINE",
"28 420 LINE",
"27 390 LINE",
"27 351 LINE",
"35 271 LINE",
"53 187 LINE",
"83 104 LINE",
"128 39 LINE",
"191 -1 LINE"
);
}
);
width = 572;
}
);
unicode = 0055;
},
{
glyphname = Uogonek;
lastChange = "2016-08-24 10:04:02 +0000";
layers = (
{
layerId = UUID0;
paths = (
{
closed = 1;
nodes = (
"587 -161 LINE",
"602 -128 LINE",
"543 -132 LINE",
"467 -110 LINE",
"445 -73 LINE",
"466 -50 LINE",
"482 -31 LINE",
"528 -12 LINE",
"536 -16 LINE",
"564 -16 LINE",
"570 16 LINE",
"557 66 LINE",
"530 133 LINE",
"505 203 LINE",
"484 273 LINE",
"483 303 LINE",
"484 343 LINE",
"479 414 LINE",
"465 466 LINE",
"447 493 LINE",
"432 488 LINE",
"417 445 LINE",
"414 399 LINE",
"414 367 LINE",
"421 321 LINE",
"432 276 LINE",
"446 222 LINE",
"452 181 LINE",
"452 146 LINE",
"409 88 LINE",
"347 44 LINE",
"274 20 LINE",
"247 21 LINE",
"211 24 LINE",
"159 63 LINE",
"124 121 LINE",
"102 191 LINE",
"90 263 LINE",
"86 329 LINE",
"86 387 LINE",
"89 418 LINE",
"98 443 LINE",
"106 443 LINE",
"118 452 LINE",
"130 472 LINE",
"129 488 LINE",
"117 500 LINE",
"89 500 LINE",
"65 480 LINE",
"51 450 LINE",
"43 412 LINE",
"40 376 LINE",
"39 346 LINE",
"39 307 LINE",
"47 227 LINE",
"64 143 LINE",
"95 60 LINE",
"140 -5 LINE",
"203 -45 LINE",
"268 -45 LINE",
"313 -29 LINE",
"355 -6 LINE",
"396 21 LINE",
"430 45 LINE",
"458 60 LINE",
"479 60 LINE",
"493 36 LINE",
"500 22 LINE",
"493 20 LINE",
"486 17 LINE",
"472 12 LINE",
"446 -1 LINE",
"425 -19 LINE",
"417 -32 LINE",
"398 -76 LINE",
"409 -128 LINE",
"457 -154 LINE",
"536 -162 LINE"
);
}
);
width = 572;
}
);
unicode = 0172;
},
{
glyphname = V;
lastChange = "2016-08-24 10:04:02 +0000";
layers = (
{
layerId = UUID0;
paths = (
{
closed = 1;
nodes = (
"248 -1 LINE",
"264 7 LINE",
"297 62 LINE",
"329 140 LINE",
"358 235 LINE",
"381 330 LINE",
"395 420 LINE",
"396 485 LINE",
"385 522 LINE",
"370 518 LINE",
"362 521 LINE",
"347 490 LINE",
"332 436 LINE",
"316 364 LINE",
"302 287 LINE",
"288 212 LINE",
"273 148 LINE",
"261 105 LINE",
"255 100 LINE",
"252 105 LINE",
"235 144 LINE",
"213 194 LINE",
"188 250 LINE",
"165 301 LINE",
"148 338 LINE",
"146 344 LINE",
"138 358 LINE",
"117 417 LINE",
"91 475 LINE",
"60 518 LINE",
"33 518 LINE",
"19 514 LINE",
"19 489 LINE",
"34 437 LINE",
"60 370 LINE",
"91 299 LINE",
"120 233 LINE",
"145 181 LINE",
"150 168 LINE",
"154 159 LINE",
"178 111 LINE",
"205 58 LINE",
"229 10 LINE",
"235 0 LINE",
"236 0 LINE",
"247 -1 LINE"
);
}
);
width = 423;
}
);
unicode = 0056;
},
{
glyphname = W;
lastChange = "2016-08-24 10:04:02 +0000";
layers = (
{
layerId = UUID0;
paths = (
{
closed = 1;
nodes = (
"530 0 LINE",
"600 31 LINE",
"653 83 LINE",
"685 150 LINE",
"685 188 LINE",
"686 204 LINE",
"675 273 LINE",
"653 353 LINE",
"626 429 LINE",
"596 479 LINE",
"565 487 LINE",
"553 460 LINE",
"553 424 LINE",
"576 354 LINE",
"604 285 LINE",
"629 215 LINE",
"629 153 LINE",
"605 112 LINE",
"569 82 LINE",
"523 64 LINE",
"462 64 LINE",
"401 108 LINE",
"358 174 LINE",
"334 250 LINE",
"329 281 LINE",
"324 294 LINE",
"313 312 LINE",
"300 315 LINE",
"287 305 LINE",
"282 291 LINE",
"282 279 LINE",
"284 246 LINE",
"282 209 LINE",
"278 173 LINE",
"272 159 LINE",
"264 150 LINE",
"241 121 LINE",
"214 94 LINE",
"182 74 LINE",
"142 74 LINE",
"112 110 LINE",
"92 170 LINE",
"79 246 LINE",
"71 326 LINE",
"66 402 LINE",
"62 461 LINE",
"55 498 LINE",
"32 498 LINE",
"16 465 LINE",
"10 424 LINE",
"10 359 LINE",
"15 285 LINE",
"26 200 LINE",
"48 116 LINE",
"85 50 LINE",
"139 7 LINE",
"179 7 LINE",
"192 11 LINE",
"224 31 LINE",
"276 74 LINE",
"319 112 LINE",
"322 112 LINE",
"323 113 LINE",
"331 113 LINE",
"364 78 LINE",
"408 35 LINE",
"464 0 LINE"
);
}
);
width = 704;
}
);
unicode = 0057;
},
{
glyphname = X;
lastChange = "2016-08-24 10:04:02 +0000";
layers = (
{
layerId = UUID0;
paths = (
{
closed = 1;
nodes = (
"38 -61 LINE",
"45 -59 LINE",
"64 -27 LINE",
"82 12 LINE",
"98 48 LINE",
"104 54 LINE",
"108 62 LINE",
"125 90 LINE",
"147 124 LINE",
"173 158 LINE",
"195 186 LINE",
"215 204 LINE",
"226 204 LINE",
"248 183 LINE",
"291 130 LINE",
"332 74 LINE",
"377 21 LINE",
"402 2 LINE",
"432 -6 LINE",
"439 13 LINE",
"417 54 LINE",
"372 111 LINE",
"324 174 LINE",
"282 235 LINE",
"273 260 LINE",
"296 288 LINE",
"358 347 LINE",
"426 402 LINE",
"496 452 LINE",
"526 471 LINE",
"522 490 LINE",
"490 494 LINE",
"452 481 LINE",
"417 460 LINE",
"410 454 LINE",
"353 397 LINE",
"285 339 LINE",
"247 320 LINE",
"227 336 LINE",
"217 354 LINE",
"212 358 LINE",
"195 387 LINE",
"174 425 LINE",
"149 466 LINE",
"127 501 LINE",
"108 525 LINE",
"91 525 LINE",
"83 514 LINE",
"83 484 LINE",
"101 446 LINE",
"126 405 LINE",
"155 364 LINE",
"181 323 LINE",
"197 286 LINE",
"197 271 LINE",
"174 241 LINE",
"112 167 LINE",
"58 86 LINE",
"20 6 LINE",
"20 -44 LINE",
"26 -61 LINE"
);
}
);
width = 534;
}
);
unicode = 0058;
},
{
glyphname = Y;
lastChange = "2016-08-24 10:04:02 +0000";
layers = (
{
layerId = UUID0;
paths = (
{
closed = 1;
nodes = (
"236 -17 LINE",
"248 -8 LINE",
"254 4 LINE",
"245 63 LINE",
"258 165 LINE",
"287 262 LINE",
"326 353 LINE",
"361 444 LINE",
"385 541 LINE",
"385 604 LINE",
"370 609 LINE",
"353 607 LINE",
"338 599 LINE",
"338 595 LINE",
"334 573 LINE",
"332 552 LINE",
"329 538 LINE",
"326 525 LINE",
"314 499 LINE",
"294 454 LINE",
"276 415 LINE",
"250 415 LINE",
"200 438 LINE",
"153 476 LINE",
"112 523 LINE",
"79 574 LINE",
"55 622 LINE",
"48 643 LINE",
"38 642 LINE",
"27 640 LINE",
"18 640 LINE",
"13 591 LINE",
"46 511 LINE",
"100 446 LINE",
"164 397 LINE",
"219 364 LINE",
"256 347 LINE",
"255 347 LINE",
"255 345 LINE",
"254 334 LINE",
"254 332 LINE",
"242 291 LINE",
"221 226 LINE",
"206 163 LINE",
"197 98 LINE",
"197 4 LINE",
"203 -8 LINE",
"216 -17 LINE"
);
}
);
width = 403;
}
);
unicode = 0059;
},
{
glyphname = Z;
lastChange = "2016-08-24 10:04:02 +0000";
layers = (
{
layerId = UUID0;
paths = (
{
closed = 1;
nodes = (
"347 -1 LINE",
"473 25 LINE",
"534 48 LINE",
"549 54 LINE",
"555 67 LINE",
"555 90 LINE",
"547 104 LINE",
"501 104 LINE",
"433 89 LINE",
"364 71 LINE",
"296 56 LINE",
"246 56 LINE",
"232 63 LINE",
"232 81 LINE",
"235 92 LINE",
"235 94 LINE",
"252 121 LINE",
"287 188 LINE",
"329 244 LINE",
"385 281 LINE",
"428 281 LINE",
"432 278 LINE",
"437 275 LINE",
"441 272 LINE",
"452 272 LINE",
"473 278 LINE",
"492 287 LINE",
"510 297 LINE",
"517 300 LINE",
"517 314 LINE",
"497 326 LINE",
"468 332 LINE",
"434 334 LINE",
"404 337 LINE",
"385 342 LINE",
"385 361 LINE",
"390 382 LINE",
"396 401 LINE",
"402 423 LINE",
"402 492 LINE",
"361 563 LINE",
"294 604 LINE",
"206 619 LINE",
"146 619 LINE",
"98 616 LINE",
"51 602 LINE",
"17 573 LINE",
"17 543 LINE",
"19 541 LINE",
"24 534 LINE",
"42 534 LINE",
"75 546 LINE",
"112 561 LINE",
"153 572 LINE",
"205 572 LINE",
"268 560 LINE",
"320 529 LINE",
"354 481 LINE",
"354 446 LINE",
"351 408 LINE",
"333 362 LINE",
"306 337 LINE",
"268 326 LINE",
"221 318 LINE",
"163 311 LINE",
"131 300 LINE",
"116 294 LINE",
"106 265 LINE",
"106 251 LINE",
"137 251 LINE",
"191 263 LINE",
"231 263 LINE",
"241 262 LINE",
"253 262 LINE",
"255 260 LINE",
"262 246 LINE",
"262 219 LINE",
"232 179 LINE",
"197 138 LINE",
"168 95 LINE",
"168 46 LINE",
"191 7 LINE",
"216 0 LINE",
"237 0 LINE",
"259 -1 LINE"
);
}
);
width = 572;
}
);
unicode = 005A;
},
{
glyphname = R.alt;
lastChange = "2016-08-24 10:04:02 +0000";
layers = (
{
layerId = UUID0;
paths = (
{
closed = 1;
nodes = (
"544 -34 LINE",
"558 -24 LINE",
"546 -8 LINE",
"504 19 LINE",
"436 60 LINE",
"352 124 LINE",
"256 218 LINE",
"206 285 LINE",
"227 292 LINE",
"289 305 LINE",
"360 321 LINE",
"432 343 LINE",
"490 374 LINE",
"525 417 LINE",
"525 478 LINE",
"500 529 LINE",
"456 569 LINE",
"399 598 LINE",
"338 615 LINE",
"276 624 LINE",
"223 624 LINE",
"179 622 LINE",
"136 618 LINE",
"87 610 LINE",
"57 604 LINE",
"45 599 LINE",
"21 582 LINE",
"2 563 LINE",
"-11 538 LINE",
"-11 518 LINE",
"-5 499 LINE",
"6 481 LINE",
"20 470 LINE",
"28 470 LINE",
"28 510 LINE",
"63 551 LINE",
"117 566 LINE",
"182 567 LINE",
"251 567 LINE",
"321 562 LINE",
"385 543 LINE",
"440 505 LINE",
"469 473 LINE",
"470 466 LINE",
"470 445 LINE",
"436 414 LINE",
"382 391 LINE",
"317 373 LINE",
"255 360 LINE",
"201 353 LINE",
"188 352 LINE",
"186 355 LINE",
"180 377 LINE",
"174 401 LINE",
"169 423 LINE",
"168 427 LINE",
"171 438 LINE",
"168 463 LINE",
"157 482 LINE",
"139 490 LINE",
"127 481 LINE",
"121 461 LINE",
"121 396 LINE",
"130 317 LINE",
"144 232 LINE",
"160 151 LINE",
"178 79 LINE",
"193 27 LINE",
"204 1 LINE",
"206 7 LINE",
"224 12 LINE",
"229 45 LINE",
"218 100 LINE",
"200 173 LINE",
"193 217 LINE",
"215 193 LINE",
"278 130 LINE",
"349 65 LINE",
"421 7 LINE",
"484 -33 LINE",
"533 -47 LINE"
);
}
);
width = 579;
}
);
},
{
glyphname = a;
lastChange = "2016-08-24 10:04:02 +0000";
layers = (
{
layerId = UUID0;
paths = (
{
closed = 1;
nodes = (
"285 0 LINE",
"323 7 LINE",
"367 17 LINE",
"415 30 LINE",
"454 45 LINE",
"479 59 LINE",
"479 70 LINE",
"477 82 LINE",
"469 85 LINE",
"458 85 LINE",
"447 86 LINE",
"410 86 LINE",
"358 80 LINE",
"308 71 LINE",
"255 65 LINE",
"211 65 LINE",
"156 74 LINE",
"104 95 LINE",
"65 127 LINE",
"65 171 LINE",
"87 204 LINE",
"121 228 LINE",
"165 244 LINE",
"208 253 LINE",
"248 258 LINE",
"263 258 LINE",
"276 255 LINE",
"319 241 LINE",
"369 210 LINE",
"420 153 LINE",
"440 106 LINE",
"449 105 LINE",
"461 104 LINE",
"472 104 LINE",
"477 144 LINE",
"466 230 LINE",
"436 315 LINE",
"391 394 LINE",
"331 455 LINE",
"261 494 LINE",
"221 499 LINE",
"205 499 LINE",
"177 490 LINE",
"154 475 LINE",
"142 449 LINE",
"142 431 LINE",
"147 424 LINE",
"150 423 LINE",
"153 420 LINE",
"163 420 LINE",
"176 427 LINE",
"188 435 LINE",
"203 441 LINE",
"238 441 LINE",
"291 415 LINE",
"337 373 LINE",
"366 320 LINE",
"366 294 LINE",
"367 276 LINE",
"307 300 LINE",
"208 312 LINE",
"130 298 LINE",
"74 265 LINE",
"37 225 LINE",
"19 182 LINE",
"19 114 LINE",
"68 50 LINE",
"145 14 LINE",
"235 0 LINE"
);
}
);
width = 506;
}
);
unicode = 0061;
},
{
glyphname = aogonek;
lastChange = "2016-08-24 10:04:02 +0000";
layers = (
{
layerId = UUID0;
paths = (
{
closed = 1;
nodes = (
"458 -117 LINE",
"473 -84 LINE",
"414 -88 LINE",
"338 -66 LINE",
"316 -29 LINE",
"347 5 LINE",
"367 17 LINE",
"391 23 LINE",
"415 30 LINE",
"454 45 LINE",
"479 59 LINE",
"479 70 LINE",
"477 82 LINE",
"469 85 LINE",
"458 85 LINE",
"447 86 LINE",
"410 86 LINE",
"358 80 LINE",
"308 71 LINE",
"255 65 LINE",
"211 65 LINE",
"156 74 LINE",
"104 95 LINE",
"65 127 LINE",
"65 171 LINE",
"87 204 LINE",
"121 228 LINE",
"165 244 LINE",
"208 253 LINE",
"248 258 LINE",
"263 258 LINE",
"276 255 LINE",
"319 241 LINE",
"369 210 LINE",
"420 153 LINE",
"440 106 LINE",
"444 106 LINE",
"449 105 LINE",
"461 104 LINE",
"472 104 LINE",
"477 144 LINE",
"466 230 LINE",
"436 315 LINE",
"391 394 LINE",
"331 455 LINE",
"261 494 LINE",
"221 499 LINE",
"205 499 LINE",
"177 490 LINE",
"154 475 LINE",
"142 449 LINE",
"142 431 LINE",
"147 424 LINE",
"150 423 LINE",
"153 420 LINE",
"163 420 LINE",
"176 427 LINE",
"188 435 LINE",
"203 441 LINE",
"238 441 LINE",
"291 415 LINE",
"337 373 LINE",
"366 320 LINE",
"366 294 LINE",
"367 276 LINE",
"307 300 LINE",
"208 312 LINE",
"130 298 LINE",
"74 265 LINE",
"37 225 LINE",
"19 182 LINE",
"19 114 LINE",
"68 50 LINE",
"145 14 LINE",
"235 0 LINE",
"282 0 LINE",
"271 -36 LINE",
"274 -58 LINE",
"280 -84 LINE",
"328 -110 LINE",
"407 -118 LINE"
);
}
);
width = 506;
}
);
unicode = 0105;
},
{
glyphname = aring;
lastChange = "2016-08-24 10:04:02 +0000";
layers = (
{
layerId = UUID0;
paths = (
{
closed = 1;
nodes = (
"285 0 LINE",
"323 7 LINE",
"367 17 LINE",
"415 30 LINE",
"454 45 LINE",
"479 59 LINE",
"479 70 LINE",
"477 82 LINE",
"469 85 LINE",
"458 85 LINE",
"447 86 LINE",
"410 86 LINE",
"358 80 LINE",
"308 71 LINE",
"255 65 LINE",
"211 65 LINE",
"156 74 LINE",
"104 95 LINE",
"65 127 LINE",
"65 171 LINE",
"87 204 LINE",
"121 228 LINE",
"165 244 LINE",
"208 253 LINE",
"248 258 LINE",
"263 258 LINE",
"276 255 LINE",
"319 241 LINE",
"369 210 LINE",
"420 153 LINE",
"440 106 LINE",
"444 106 LINE",
"449 105 LINE",
"461 104 LINE",
"472 104 LINE",
"477 144 LINE",
"466 230 LINE",
"436 315 LINE",
"391 394 LINE",
"331 455 LINE",
"296 475 LINE",
"282 481 LINE",
"270 487 LINE",
"274 487 LINE",
"279 490 LINE",
"297 496 LINE",
"324 518 LINE",
"341 549 LINE",
"341 581 LINE",
"330 610 LINE",
"311 635 LINE",
"284 651 LINE",
"248 651 LINE",
"209 641 LINE",
"178 619 LINE",
"158 587 LINE",
"158 528 LINE",
"183 506 LINE",
"188 500 LINE",
"196 496 LINE",
"190 494 LINE",
"177 490 LINE",
"154 475 LINE",
"142 449 LINE",
"142 431 LINE",
"147 424 LINE",
"150 423 LINE",
"153 420 LINE",
"163 420 LINE",
"176 427 LINE",
"188 435 LINE",
"203 441 LINE",
"238 441 LINE",
"291 415 LINE",
"337 373 LINE",
"366 320 LINE",
"366 294 LINE",
"367 276 LINE",
"307 300 LINE",
"208 312 LINE",
"130 298 LINE",
"74 265 LINE",
"37 225 LINE",
"19 182 LINE",
"19 114 LINE",
"68 50 LINE",
"145 14 LINE",
"235 0 LINE"
);
},
{
closed = 1;
nodes = (
"244 516 LINE",
"218 516 LINE",
"188 540 LINE",
"188 579 LINE",
"201 600 LINE",
"221 612 LINE",
"247 617 LINE",
"260 617 LINE",
"285 606 LINE",
"307 582 LINE",
"308 559 LINE",
"293 537 LINE",
"272 522 LINE",
"251 515 LINE"
);
}
);
width = 506;
}
);
unicode = 00E5;
},
{
glyphname = ae;
lastChange = "2016-08-24 10:04:02 +0000";
layers = (
{
layerId = UUID0;
paths = (
{
closed = 1;
nodes = (
"701 -22 LINE",
"755 -16 LINE",
"809 1 LINE",
"855 29 LINE",
"871 51 LINE",
"697 39 LINE",
"637 42 LINE",
"555 64 LINE",
"501 99 LINE",
"486 121 LINE",
"479 132 LINE",
"474 144 LINE",
"474 165 LINE",
"471 187 LINE",
"467 220 LINE",
"458 251 LINE",
"458 301 LINE",
"479 362 LINE",
"519 411 LINE",
"574 443 LINE",
"608 446 LINE",
"630 447 LINE",
"664 430 LINE",
"689 400 LINE",
"702 362 LINE",
"702 324 LINE",
"663 287 LINE",
"609 258 LINE",
"557 239 LINE",
"543 239 LINE",
"520 244 LINE",
"493 246 LINE",
"479 243 LINE",
"477 236 LINE",
"477 216 LINE",
"488 200 LINE",
"508 192 LINE",
"531 191 LINE",
"575 191 LINE",
"647 212 LINE",
"710 250 LINE",
"751 307 LINE",
"751 342 LINE",
"752 371 LINE",
"738 423 LINE",
"707 464 LINE",
"660 490 LINE",
"628 494 LINE",
"573 494 LINE",
"490 452 LINE",
"461 417 LINE",
"435 385 LINE",
"420 344 LINE",
"416 349 LINE",
"413 354 LINE",
"391 394 LINE",
"331 455 LINE",
"261 494 LINE",
"221 499 LINE",
"205 499 LINE",
"177 490 LINE",
"154 475 LINE",
"142 449 LINE",
"142 431 LINE",
"147 424 LINE",
"150 423 LINE",
"153 420 LINE",
"163 420 LINE",
"176 427 LINE",
"188 435 LINE",
"203 441 LINE",
"238 441 LINE",
"291 415 LINE",
"337 373 LINE",
"366 320 LINE",
"366 294 LINE",
"367 276 LINE",
"307 300 LINE",
"208 312 LINE",
"130 298 LINE",
"74 265 LINE",
"37 225 LINE",
"19 182 LINE",
"19 114 LINE",
"68 50 LINE",
"145 14 LINE",
"235 0 LINE",
"285 0 LINE",
"323 7 LINE",
"367 17 LINE",
"415 30 LINE",
"454 45 LINE",
"467 51 LINE",
"472 54 LINE",
"475 57 LINE",
"484 48 LINE",
"522 14 LINE",
"622 -22 LINE"
);
},
{
closed = 1;
nodes = (
"156 74 LINE",
"104 95 LINE",
"65 127 LINE",
"65 171 LINE",
"87 204 LINE",
"121 228 LINE",
"165 244 LINE",
"208 253 LINE",
"248 258 LINE",
"263 258 LINE",
"276 255 LINE",
"319 241 LINE",
"369 210 LINE",
"394 182 LINE",
"405 170 LINE",
"414 154 LINE",
"424 130 LINE",
"436 106 LINE",
"450 85 LINE",
"446 86 LINE",
"410 86 LINE",
"358 80 LINE",
"308 71 LINE",
"255 65 LINE",
"211 65 LINE"
);
}
);
width = 882;
}
);
unicode = 00E6;
},
{
glyphname = b;
lastChange = "2016-08-24 10:04:02 +0000";
layers = (
{
layerId = UUID0;
paths = (
{
closed = 1;
nodes = (
"286 -1 LINE",
"366 7 LINE",
"435 34 LINE",
"479 88 LINE",
"479 168 LINE",
"451 227 LINE",
"405 271 LINE",
"344 306 LINE",
"278 327 LINE",
"212 338 LINE",
"163 338 LINE",
"129 326 LINE",
"111 326 LINE",
"106 325 LINE",
"98 365 LINE",
"89 428 LINE",
"81 503 LINE",
"74 572 LINE",
"67 627 LINE",
"65 637 LINE",
"34 633 LINE",
"11 611 LINE",
"10 572 LINE",
"23 512 LINE",
"28 469 LINE",
"29 462 LINE",
"37 413 LINE",
"48 355 LINE",
"56 307 LINE",
"57 300 LINE",
"60 264 LINE",
"64 190 LINE",
"74 123 LINE",
"96 65 LINE",
"137 23 LINE",
"202 -1 LINE"
);
},
{
closed = 1;
nodes = (
"200 67 LINE",
"142 106 LINE",
"112 170 LINE",
"122 212 LINE",
"122 244 LINE",
"156 282 LINE",
"208 282 LINE",
"259 273 LINE",
"311 258 LINE",
"360 233 LINE",
"399 200 LINE",
"423 157 LINE",
"423 131 LINE",
"409 99 LINE",
"350 63 LINE",
"275 52 LINE"
);
}
);
width = 497;
}
);
unicode = 0062;
},
{
glyphname = c;
lastChange = "2016-08-24 10:04:02 +0000";
layers = (
{
layerId = UUID0;
paths = (
{
closed = 1;
nodes = (
"298 -1 LINE",
"334 1 LINE",
"371 6 LINE",
"402 16 LINE",
"423 30 LINE",
"423 48 LINE",
"420 49 LINE",
"406 57 LINE",
"403 57 LINE",
"369 55 LINE",
"294 53 LINE",
"221 59 LINE",
"154 76 LINE",
"104 112 LINE",
"74 171 LINE",
"74 249 LINE",
"95 313 LINE",
"134 363 LINE",
"191 395 LINE",
"278 395 LINE",
"329 333 LINE",
"329 287 LINE",
"333 287 LINE",
"344 306 LINE",
"352 329 LINE",
"356 353 LINE",
"356 381 LINE",
"331 413 LINE",
"292 433 LINE",
"247 441 LINE",
"186 441 LINE",
"109 404 LINE",
"52 342 LINE",
"19 261 LINE",
"19 160 LINE",
"54 77 LINE",
"117 24 LINE",
"208 -1 LINE"
);
}
);
width = 449;
}
);
unicode = 0063;
},
{
glyphname = ccedilla;
lastChange = "2016-08-24 10:04:02 +0000";
layers = (
{
layerId = UUID0;
paths = (
{
closed = 1;
nodes = (
"279 -299 LINE",
"325 -288 LINE",
"362 -266 LINE",
"388 -230 LINE",
"388 -164 LINE",
"357 -122 LINE",
"313 -102 LINE",
"260 -96 LINE",
"215 -84 LINE",
"186 -58 LINE",
"186 -26 LINE",
"189 -22 LINE",
"188 -12 LINE",
"188 -3 LINE",
"184 7 LINE",
"221 -1 LINE",
"298 -1 LINE",
"334 1 LINE",
"371 6 LINE",
"402 16 LINE",
"423 30 LINE",
"423 48 LINE",
"420 49 LINE",
"406 57 LINE",
"403 57 LINE",
"369 55 LINE",
"294 53 LINE",
"221 59 LINE",
"154 76 LINE",
"104 112 LINE",
"74 171 LINE",
"74 249 LINE",
"95 313 LINE",
"134 363 LINE",
"191 395 LINE",
"278 395 LINE",
"329 333 LINE",
"329 287 LINE",
"333 287 LINE",
"344 306 LINE",
"352 329 LINE",
"356 353 LINE",
"356 381 LINE",
"331 413 LINE",
"292 433 LINE",
"247 441 LINE",
"186 441 LINE",
"109 404 LINE",
"52 342 LINE",
"19 261 LINE",
"19 160 LINE",
"54 77 LINE",
"85 51 LINE",
"110 29 LINE",
"145 17 LINE",
"142 6 LINE",
"141 -14 LINE",
"142 -47 LINE",
"158 -90 LINE",
"186 -114 LINE",
"221 -127 LINE",
"258 -134 LINE",
"292 -140 LINE",
"319 -154 LINE",
"335 -180 LINE",
"335 -226 LINE",
"324 -248 LINE",
"306 -255 LINE",
"279 -254 LINE",
"248 -254 LINE",
"222 -236 LINE",
"194 -215 LINE",
"165 -196 LINE",
"142 -196 LINE",
"132 -198 LINE",
"126 -204 LINE",
"142 -222 LINE",
"166 -257 LINE",
"194 -283 LINE",
"231 -299 LINE"
);
}
);
width = 449;
}
);
unicode = 00E7;
},
{
glyphname = d;
lastChange = "2016-08-24 10:04:02 +0000";
layers = (
{
layerId = UUID0;
paths = (
{
closed = 1;
nodes = (
"201 0 LINE",
"267 21 LINE",
"326 58 LINE",
"376 105 LINE",
"394 131 LINE",
"395 132 LINE",
"402 133 LINE",
"411 133 LINE",
"421 119 LINE",
"429 99 LINE",
"435 74 LINE",
"443 54 LINE",
"456 40 LINE",
"479 40 LINE",
"501 48 LINE",
"501 63 LINE",
"494 76 LINE",
"487 138 LINE",
"479 224 LINE",
"473 328 LINE",
"461 438 LINE",
"443 544 LINE",
"416 638 LINE",
"378 710 LINE",
"352 729 LINE",
"332 724 LINE",
"323 687 LINE",
"334 630 LINE",
"356 558 LINE",
"378 479 LINE",
"391 396 LINE",
"388 356 LINE",
"357 376 LINE",
"304 411 LINE",
"254 437 LINE",
"206 450 LINE",
"139 450 LINE",
"77 405 LINE",
"36 338 LINE",
"19 258 LINE",
"19 193 LINE",
"37 117 LINE",
"75 48 LINE",
"131 0 LINE"
);
},
{
closed = 1;
nodes = (
"127 83 LINE",
"104 116 LINE",
"89 169 LINE",
"79 204 LINE",
"78 232 LINE",
"94 294 LINE",
"127 346 LINE",
"177 377 LINE",
"246 376 LINE",
"332 332 LINE",
"385 281 LINE",
"385 227 LINE",
"346 159 LINE",
"285 103 LINE",
"215 65 LINE",
"158 65 LINE"
);
}
);
width = 525;
}
);
unicode = 0064;
},
{
glyphname = eth;
lastChange = "2016-08-24 10:04:02 +0000";
layers = (
{
layerId = UUID0;
paths = (
{
closed = 1;
nodes = (
"277 -13 LINE",
"338 20 LINE",
"376 72 LINE",
"394 140 LINE",
"394 199 LINE",
"383 254 LINE",
"364 310 LINE",
"339 361 LINE",
"323 384 LINE",
"336 384 LINE",
"365 396 LINE",
"389 414 LINE",
"403 431 LINE",
"402 435 LINE",
"393 459 LINE",
"376 478 LINE",
"361 477 LINE",
"344 464 LINE",
"320 448 LINE",
"290 437 LINE",
"270 438 LINE",
"249 462 LINE",
"209 495 LINE",
"168 515 LINE",
"121 525 LINE",
"94 528 LINE",
"85 528 LINE",
"61 525 LINE",
"39 515 LINE",
"23 499 LINE",
"23 481 LINE",
"26 470 LINE",
"31 458 LINE",
"39 451 LINE",
"48 451 LINE",
"61 458 LINE",
"75 468 LINE",
"90 476 LINE",
"94 477 LINE",
"108 477 LINE",
"141 464 LINE",
"176 444 LINE",
"211 421 LINE",
"225 411 LINE",
"216 413 LINE",
"158 390 LINE",
"132 379 LINE",
"126 381 LINE",
"125 354 LINE",
"136 327 LINE",
"154 320 LINE",
"182 330 LINE",
"213 346 LINE",
"249 364 LINE",
"268 370 LINE",
"287 347 LINE",
"313 299 LINE",
"313 274 LINE",
"294 281 LINE",
"265 288 LINE",
"237 291 LINE",
"208 292 LINE",
"153 292 LINE",
"93 270 LINE",
"48 228 LINE",
"23 170 LINE",
"23 95 LINE",
"63 38 LINE",
"123 3 LINE",
"198 -13 LINE"
);
},
{
closed = 1;
nodes = (
"145 55 LINE",
"103 77 LINE",
"75 116 LINE",
"75 162 LINE",
"97 199 LINE",
"129 230 LINE",
"166 251 LINE",
"215 251 LINE",
"277 240 LINE",
"324 216 LINE",
"351 181 LINE",
"348 156 LINE",
"338 103 LINE",
"271 50 LINE",
"221 46 LINE",
"196 46 LINE"
);
}
);
width = 408;
}
);
unicode = 00F0;
},
{
glyphname = dcroat;
lastChange = "2016-08-24 10:04:02 +0000";
layers = (
{
layerId = UUID0;
paths = (
{
closed = 1;
nodes = (
"201 0 LINE",
"267 21 LINE",
"326 58 LINE",
"376 105 LINE",
"394 131 LINE",
"395 132 LINE",
"402 133 LINE",
"411 133 LINE",
"421 119 LINE",
"429 99 LINE",
"435 74 LINE",
"443 54 LINE",
"456 40 LINE",
"479 40 LINE",
"501 48 LINE",
"501 63 LINE",
"494 76 LINE",
"487 138 LINE",
"479 224 LINE",
"473 328 LINE",
"461 438 LINE",
"452 490 LINE",
"448 514 LINE",
"443 535 LINE",
"458 534 LINE",
"470 530 LINE",
"488 525 LINE",
"528 525 LINE",
"528 563 LINE",
"511 582 LINE",
"483 591 LINE",
"452 593 LINE",
"429 593 LINE",
"415 638 LINE",
"396 674 LINE",
"378 710 LINE",
"352 729 LINE",
"332 724 LINE",
"323 687 LINE",
"334 630 LINE",
"345 594 LINE",
"347 588 LINE",
"329 588 LINE",
"306 587 LINE",
"262 581 LINE",
"227 565 LINE",
"205 537 LINE",
"205 514 LINE",
"233 514 LINE",
"289 521 LINE",
"317 525 LINE",
"341 528 LINE",
"363 531 LINE",
"365 525 LINE",
"367 518 LINE",
"378 479 LINE",
"391 396 LINE",
"388 356 LINE",
"357 376 LINE",
"304 411 LINE",
"254 437 LINE",
"206 450 LINE",
"139 450 LINE",
"77 405 LINE",
"36 338 LINE",
"19 258 LINE",
"19 193 LINE",
"37 117 LINE",
"75 48 LINE",
"131 0 LINE"
);
},
{
closed = 1;
nodes = (
"127 83 LINE",
"104 116 LINE",
"89 169 LINE",
"79 204 LINE",
"78 232 LINE",
"94 294 LINE",
"127 346 LINE",
"177 377 LINE",
"246 376 LINE",
"332 332 LINE",
"385 281 LINE",
"385 227 LINE",
"346 159 LINE",
"285 103 LINE",
"215 65 LINE",
"158 65 LINE"
);
}
);
width = 525;
}
);
unicode = 0111;
},
{
glyphname = e;
lastChange = "2016-08-24 10:04:02 +0000";
layers = (
{
layerId = UUID0;
paths = (
{
closed = 1;
nodes = (
"317 0 LINE",
"371 7 LINE",
"425 24 LINE",
"472 52 LINE",
"487 73 LINE",
"313 62 LINE",
"253 64 LINE",
"171 87 LINE",
"117 121 LINE",
"89 165 LINE",
"76 215 LINE",
"74 267 LINE",
"74 323 LINE",
"95 385 LINE",
"135 435 LINE",
"190 466 LINE",
"225 469 LINE",
"246 470 LINE",
"280 452 LINE",
"306 423 LINE",
"318 385 LINE",
"318 347 LINE",
"279 310 LINE",
"226 280 LINE",
"173 262 LINE",
"159 262 LINE",
"136 267 LINE",
"109 269 LINE",
"96 266 LINE",
"93 259 LINE",
"93 238 LINE",
"104 223 LINE",
"124 215 LINE",
"191 215 LINE",
"264 235 LINE",
"326 273 LINE",
"367 329 LINE",
"367 364 LINE",
"368 394 LINE",
"354 446 LINE",
"323 486 LINE",
"276 513 LINE",
"244 517 LINE",
"189 517 LINE",
"106 476 LINE",
"48 405 LINE",
"19 312 LINE",
"19 201 LINE",
"63 104 LINE",
"139 36 LINE",
"238 0 LINE"
);
}
);
width = 517;
}
);
unicode = 0065;
},
{
glyphname = eogonek;
lastChange = "2016-08-24 10:04:02 +0000";
layers = (
{
layerId = UUID0;
paths = (
{
closed = 1;
nodes = (
"432 -139 LINE",
"446 -105 LINE",
"389 -109 LINE",
"312 -88 LINE",
"291 -51 LINE",
"326 -11 LINE",
"364 7 LINE",
"381 10 LINE",
"397 16 LINE",
"425 24 LINE",
"472 52 LINE",
"487 73 LINE",
"313 62 LINE",
"253 64 LINE",
"171 87 LINE",
"117 121 LINE",
"89 165 LINE",
"76 215 LINE",
"74 267 LINE",
"74 323 LINE",
"95 385 LINE",
"135 435 LINE",
"190 466 LINE",
"225 469 LINE",
"246 470 LINE",
"280 452 LINE",
"306 423 LINE",
"318 385 LINE",
"318 347 LINE",
"279 310 LINE",
"226 280 LINE",
"173 262 LINE",
"159 262 LINE",
"136 267 LINE",
"109 269 LINE",
"96 266 LINE",
"93 259 LINE",
"93 238 LINE",
"104 223 LINE",
"124 215 LINE",
"191 215 LINE",
"264 235 LINE",
"326 273 LINE",
"367 329 LINE",
"367 364 LINE",
"368 394 LINE",
"354 446 LINE",
"323 486 LINE",
"276 513 LINE",
"244 517 LINE",
"189 517 LINE",
"106 476 LINE",
"48 405 LINE",
"19 312 LINE",
"19 201 LINE",
"63 104 LINE",
"139 36 LINE",
"188 19 LINE",
"227 4 LINE",
"269 1 LINE",
"265 -4 LINE",
"262 -10 LINE",
"244 -54 LINE",
"255 -104 LINE",
"303 -132 LINE",
"382 -140 LINE"
);
}
);
width = 517;
}
);
unicode = 0119;
},
{
glyphname = f;
lastChange = "2016-08-24 10:04:02 +0000";
layers = (
{
layerId = UUID0;
paths = (
{
closed = 1;
nodes = (
"288 -1 LINE",
"303 7 LINE",
"303 47 LINE",
"268 102 LINE",
"227 160 LINE",
"192 225 LINE",
"192 262 LINE",
"230 254 LINE",
"295 253 LINE",
"338 262 LINE",
"356 279 LINE",
"348 291 LINE",
"350 311 LINE",
"329 311 LINE",
"281 313 LINE",
"218 319 LINE",
"180 324 LINE",
"162 327 LINE",
"160 329 LINE",
"142 469 LINE",
"142 510 LINE",
"162 570 LINE",
"201 619 LINE",
"256 648 LINE",
"313 648 LINE",
"350 619 LINE",
"382 583 LINE",
"414 554 LINE",
"455 554 LINE",
"455 581 LINE",
"420 634 LINE",
"366 678 LINE",
"304 704 LINE",
"230 704 LINE",
"165 663 LINE",
"124 597 LINE",
"101 514 LINE",
"92 428 LINE",
"93 348 LINE",
"95 318 LINE",
"48 314 LINE",
"15 307 LINE",
"-9 289 LINE",
"-9 265 LINE",
"-3 253 LINE",
"10 253 LINE",
"16 254 LINE",
"42 259 LINE",
"72 266 LINE",
"99 271 LINE",
"104 272 LINE",
"114 262 LINE",
"117 255 LINE",
"132 224 LINE",
"150 185 LINE",
"170 142 LINE",
"188 104 LINE",
"204 73 LINE",
"208 65 LINE",
"212 58 LINE",
"227 35 LINE",
"245 14 LINE",
"267 -1 LINE"
);
}
);
width = 377;
}
);
unicode = 0066;
},
{
glyphname = g;
lastChange = "2016-08-24 10:04:02 +0000";
layers = (
{
layerId = UUID0;
paths = (
{
closed = 1;
nodes = (
"248 -488 LINE",
"296 -458 LINE",
"329 -408 LINE",
"350 -345 LINE",
"361 -280 LINE",
"366 -219 LINE",
"366 -196 LINE",
"360 -146 LINE",
"357 -22 LINE",
"353 106 LINE",
"343 231 LINE",
"317 333 LINE",
"274 402 LINE",
"239 412 LINE",
"193 412 LINE",
"112 365 LINE",
"53 291 LINE",
"19 201 LINE",
"19 131 LINE",
"42 80 LINE",
"80 42 LINE",
"132 19 LINE",
"174 19 LINE",
"203 30 LINE",
"231 45 LINE",
"257 57 LINE",
"273 57 LINE",
"284 24 LINE",
"294 -25 LINE",
"302 -84 LINE",
"308 -139 LINE",
"311 -181 LINE",
"311 -205 LINE",
"309 -254 LINE",
"300 -306 LINE",
"286 -357 LINE",
"262 -398 LINE",
"228 -424 LINE",
"192 -424 LINE",
"142 -414 LINE",
"77 -395 LINE",
"10 -368 LINE",
"-48 -334 LINE",
"-84 -294 LINE",
"-84 -271 LINE",
"-76 -251 LINE",
"-79 -228 LINE",
"-92 -219 LINE",
"-110 -223 LINE",
"-126 -236 LINE",
"-135 -259 LINE",
"-131 -271 LINE",
"-131 -307 LINE",
"-94 -366 LINE",
"-33 -415 LINE",
"43 -451 LINE",
"120 -477 LINE",
"191 -488 LINE"
);
},
{
closed = 1;
nodes = (
"105 100 LINE",
"85 125 LINE",
"74 157 LINE",
"74 202 LINE",
"95 265 LINE",
"134 319 LINE",
"188 355 LINE",
"236 355 LINE",
"257 341 LINE",
"269 317 LINE",
"272 290 LINE",
"272 276 LINE",
"274 249 LINE",
"275 183 LINE",
"256 124 LINE",
"204 85 LINE",
"136 85 LINE"
);
}
);
width = 366;
}
);
unicode = 0067;
},
{
glyphname = h;
lastChange = "2016-08-24 10:04:02 +0000";
layers = (
{
layerId = UUID0;
paths = (
{
closed = 1;
nodes = (
"367 3 LINE",
"385 45 LINE",
"394 114 LINE",
"389 196 LINE",
"372 284 LINE",
"341 362 LINE",
"293 425 LINE",
"229 455 LINE",
"146 448 LINE",
"95 417 LINE",
"92 440 LINE",
"89 475 LINE",
"86 505 LINE",
"80 539 LINE",
"66 587 LINE",
"44 654 LINE",
"25 704 LINE",
"21 704 LINE",
"9 701 LINE",
"-5 695 LINE",
"-14 689 LINE",
"-14 681 LINE",
"-10 657 LINE",
"-4 626 LINE",
"4 596 LINE",
"13 558 LINE",
"21 530 LINE",
"36 460 LINE",
"53 326 LINE",
"62 206 LINE",
"66 107 LINE",
"72 37 LINE",
"84 0 LINE",
"96 2 LINE",
"107 2 LINE",
"124 9 LINE",
"130 22 LINE",
"130 87 LINE",
"121 159 LINE",
"111 235 LINE",
"103 307 LINE",
"103 330 LINE",
"104 341 LINE",
"104 343 LINE",
"120 354 LINE",
"142 368 LINE",
"162 377 LINE",
"182 381 LINE",
"229 381 LINE",
"279 356 LINE",
"313 314 LINE",
"329 259 LINE",
"329 152 LINE",
"326 98 LINE",
"323 42 LINE",
"320 18 LINE",
"338 -4 LINE"
);
}
);
width = 429;
}
);
unicode = 0068;
},
{
glyphname = hbar;
lastChange = "2016-08-24 10:04:02 +0000";
layers = (
{
layerId = UUID0;
paths = (
{
closed = 1;
nodes = (
"367 3 LINE",
"385 45 LINE",
"394 114 LINE",
"389 196 LINE",
"372 284 LINE",
"341 362 LINE",
"293 425 LINE",
"229 455 LINE",
"146 448 LINE",
"95 417 LINE",
"92 440 LINE",
"89 475 LINE",
"87 490 LINE",
"86 502 LINE",
"104 501 LINE",
"121 496 LINE",
"139 490 LINE",
"179 490 LINE",
"179 528 LINE",
"161 548 LINE",
"134 557 LINE",
"102 558 LINE",
"75 558 LINE",
"74 561 LINE",
"73 563 LINE",
"66 587 LINE",
"44 654 LINE",
"25 704 LINE",
"21 704 LINE",
"9 701 LINE",
"-5 695 LINE",
"-14 689 LINE",
"-14 681 LINE",
"-10 657 LINE",
"-4 626 LINE",
"4 596 LINE",
"10 566 LINE",
"13 555 LINE",
"-14 555 LINE",
"-55 546 LINE",
"-80 516 LINE",
"-80 481 LINE",
"-52 481 LINE",
"-17 487 LINE",
"13 494 LINE",
"27 497 LINE",
"37 443 LINE",
"44 393 LINE",
"53 326 LINE",
"62 206 LINE",
"66 107 LINE",
"72 37 LINE",
"84 0 LINE",
"96 2 LINE",
"107 2 LINE",
"124 9 LINE",
"130 22 LINE",
"130 87 LINE",
"121 159 LINE",
"111 235 LINE",
"103 307 LINE",
"103 330 LINE",
"104 341 LINE",
"104 343 LINE",
"120 354 LINE",
"142 368 LINE",
"162 377 LINE",
"182 381 LINE",
"229 381 LINE",
"279 356 LINE",
"313 314 LINE",
"329 259 LINE",
"329 152 LINE",
"326 98 LINE",
"323 42 LINE",
"320 18 LINE",
"338 -4 LINE"
);
}
);
width = 429;
}
);
unicode = 0127;
},
{
glyphname = i;
lastChange = "2016-08-24 10:04:02 +0000";
layers = (
{
layerId = UUID0;
paths = (
{
closed = 1;
nodes = (
"140 -1 LINE",
"156 27 LINE",
"156 91 LINE",
"140 185 LINE",
"121 276 LINE",
"106 371 LINE",
"109 423 LINE",
"104 433 LINE",
"91 442 LINE",
"58 442 LINE",
"63 412 LINE",
"63 387 LINE",
"62 363 LINE",
"62 326 LINE",
"63 268 LINE",
"68 192 LINE",
"78 110 LINE",
"92 43 LINE",
"110 -1 LINE"
);
},
{
closed = 1;
nodes = (
"66 537 LINE",
"82 540 LINE",
"80 561 LINE",
"65 584 LINE",
"42 603 LINE",
"36 602 LINE",
"24 602 LINE",
"12 595 LINE",
"12 567 LINE",
"17 550 LINE",
"27 540 LINE",
"47 537 LINE"
);
}
);
width = 175;
}
);
unicode = 0069;
},
{
glyphname = dotlessi;
lastChange = "2016-08-24 10:04:02 +0000";
layers = (
{
layerId = UUID0;
paths = (
{
closed = 1;
nodes = (
"140 -1 LINE",
"156 27 LINE",
"156 91 LINE",
"140 185 LINE",
"121 276 LINE",
"106 371 LINE",
"109 423 LINE",
"104 433 LINE",
"91 442 LINE",
"58 442 LINE",
"63 412 LINE",
"63 387 LINE",
"62 363 LINE",
"62 326 LINE",
"63 268 LINE",
"68 192 LINE",
"78 110 LINE",
"92 43 LINE",
"110 -1 LINE"
);
}
);
width = 175;
}
);
unicode = 0131;
},
{
glyphname = iacute;
lastChange = "2016-08-24 10:04:02 +0000";
layers = (
{
layerId = UUID0;
paths = (
{
closed = 1;
nodes = (
"140 -1 LINE",
"156 27 LINE",
"156 91 LINE",
"140 185 LINE",
"121 276 LINE",
"106 371 LINE",
"109 423 LINE",
"104 433 LINE",
"91 442 LINE",
"58 442 LINE",
"63 412 LINE",
"63 387 LINE",
"62 363 LINE",
"62 326 LINE",
"63 268 LINE",
"68 192 LINE",
"78 110 LINE",
"92 43 LINE",
"110 -1 LINE"
);
},
{
closed = 1;
nodes = (
"13 470 LINE",
"45 502 LINE",
"104 551 LINE",
"141 588 LINE",
"146 615 LINE",
"125 625 LINE",
"109 613 LINE",
"63 584 LINE",
"21 551 LINE",
"-11 514 LINE",
"-11 479 LINE",
"-2 470 LINE"
);
}
);
width = 175;
}
);
unicode = 00ED;
},
{
glyphname = ibreve;
lastChange = "2016-08-24 10:04:02 +0000";
layers = (
{
layerId = UUID0;
paths = (
{
closed = 1;
nodes = (
"140 -1 LINE",
"156 27 LINE",
"156 91 LINE",
"140 185 LINE",
"121 276 LINE",
"106 371 LINE",
"109 423 LINE",
"104 433 LINE",
"91 442 LINE",
"58 442 LINE",
"63 412 LINE",
"63 387 LINE",
"62 363 LINE",
"62 326 LINE",
"63 268 LINE",
"68 192 LINE",
"78 110 LINE",
"92 43 LINE",
"110 -1 LINE"
);
},
{
closed = 1;
nodes = (
"89 507 LINE",
"124 519 LINE",
"150 540 LINE",
"168 572 LINE",
"168 597 LINE",
"165 597 LINE",
"162 603 LINE",
"122 605 LINE",
"132 590 LINE",
"124 566 LINE",
"101 552 LINE",
"67 548 LINE",
"36 554 LINE",
"16 571 LINE",
"16 588 LINE",
"15 590 LINE",
"9 593 LINE",
"-4 595 LINE",
"-16 596 LINE",
"-16 551 LINE",
"33 507 LINE"
);
}
);
width = 175;
}
);
unicode = 012D;
},
{
glyphname = icircumflex;
lastChange = "2016-08-24 10:04:02 +0000";
layers = (
{
layerId = UUID0;
paths = (
{
closed = 1;
nodes = (
"30 550 LINE",
"72 596 LINE",
"91 619 LINE",
"109 607 LINE",
"139 575 LINE",
"165 546 LINE",
"189 525 LINE",
"218 525 LINE",
"224 542 LINE",
"224 564 LINE",
"222 576 LINE",
"218 587 LINE",
"211 600 LINE",
"204 610 LINE",
"198 619 LINE",
"178 644 LINE",
"155 669 LINE",
"134 694 LINE",
"119 719 LINE",
"105 731 LINE",
"86 731 LINE",
"74 729 LINE",
"71 722 LINE",
"63 687 LINE",
"45 646 LINE",
"19 615 LINE",
"-20 584 LINE",
"-48 559 LINE",
"-40 531 LINE",
"-8 525 LINE"
);
},
{
closed = 1;
nodes = (
"140 -1 LINE",
"156 27 LINE",
"156 91 LINE",
"140 185 LINE",
"121 276 LINE",
"106 371 LINE",
"109 423 LINE",
"104 433 LINE",
"91 442 LINE",
"58 442 LINE",
"63 412 LINE",
"63 387 LINE",
"62 363 LINE",
"62 326 LINE",
"63 268 LINE",
"68 192 LINE",
"78 110 LINE",
"92 43 LINE",
"110 -1 LINE"
);
}
);
width = 175;
}
);
unicode = 00EE;
},
{
glyphname = idieresis;
lastChange = "2016-08-24 10:04:02 +0000";
layers = (
{
layerId = UUID0;
paths = (
{
closed = 1;
nodes = (
"140 -1 LINE",
"156 27 LINE",
"156 91 LINE",
"140 185 LINE",
"121 276 LINE",
"106 371 LINE",
"109 423 LINE",
"104 433 LINE",
"91 442 LINE",
"58 442 LINE",
"63 412 LINE",
"63 387 LINE",
"62 363 LINE",
"62 326 LINE",
"63 268 LINE",
"68 192 LINE",
"78 110 LINE",
"92 43 LINE",
"110 -1 LINE"
);
},
{
closed = 1;
nodes = (
"7 487 LINE",
"26 496 LINE",
"42 509 LINE",
"52 523 LINE",
"52 538 LINE",
"45 558 LINE",
"30 573 LINE",
"9 584 LINE",
"-12 584 LINE",
"-26 572 LINE",
"-40 555 LINE",
"-49 539 LINE",
"-49 528 LINE",
"-43 513 LINE",
"-31 498 LINE",
"-14 487 LINE"
);
},
{
closed = 1;
nodes = (
"163 487 LINE",
"183 496 LINE",
"198 509 LINE",
"208 523 LINE",
"208 538 LINE",
"200 558 LINE",
"187 573 LINE",
"165 584 LINE",
"145 584 LINE",
"130 572 LINE",
"116 555 LINE",
"106 539 LINE",
"106 528 LINE",
"113 513 LINE",
"125 498 LINE",
"143 487 LINE"
);
}
);
width = 175;
}
);
unicode = 00EF;
},
{
glyphname = igrave;
lastChange = "2016-08-24 10:04:02 +0000";
layers = (
{
layerId = UUID0;
paths = (
{
closed = 1;
nodes = (
"140 -1 LINE",
"156 27 LINE",
"156 91 LINE",
"140 185 LINE",
"121 276 LINE",
"106 371 LINE",
"109 423 LINE",
"104 433 LINE",
"91 442 LINE",
"58 442 LINE",
"63 412 LINE",
"63 387 LINE",
"62 363 LINE",
"62 326 LINE",
"63 268 LINE",
"68 192 LINE",
"78 110 LINE",
"92 43 LINE",
"110 -1 LINE"
);
},
{
closed = 1;
nodes = (
"137 476 LINE",
"150 484 LINE",
"150 508 LINE",
"144 521 LINE",
"142 522 LINE",
"130 532 LINE",
"117 544 LINE",
"106 555 LINE",
"94 566 LINE",
"82 575 LINE",
"47 593 LINE",
"18 597 LINE",
"14 583 LINE",
"27 558 LINE",
"35 547 LINE",
"63 521 LINE",
"95 492 LINE",
"114 479 LINE",
"121 476 LINE"
);
}
);
width = 175;
}
);
unicode = 00EC;
},
{
glyphname = imacron;
lastChange = "2016-08-24 10:04:02 +0000";
layers = (
{
layerId = UUID0;
paths = (
{
closed = 1;
nodes = (
"140 -1 LINE",
"156 27 LINE",
"156 91 LINE",
"140 185 LINE",
"121 276 LINE",
"106 371 LINE",
"109 423 LINE",
"104 433 LINE",
"91 442 LINE",
"58 442 LINE",
"63 412 LINE",
"63 387 LINE",
"62 363 LINE",
"62 326 LINE",
"63 268 LINE",
"68 192 LINE",
"78 110 LINE",
"92 43 LINE",
"110 -1 LINE"
);
},
{
closed = 1;
nodes = (
"-17 525 LINE",
"19 532 LINE",
"51 540 LINE",
"86 546 LINE",
"138 546 LINE",
"174 535 LINE",
"214 535 LINE",
"214 573 LINE",
"196 593 LINE",
"169 602 LINE",
"137 603 LINE",
"119 603 LINE",
"102 602 LINE",
"101 602 LINE",
"74 599 LINE",
"21 600 LINE",
"-20 590 LINE",
"-45 561 LINE",
"-45 525 LINE"
);
}
);
width = 175;
}
);
unicode = 012B;
},
{
glyphname = iogonek;
lastChange = "2016-08-24 10:04:02 +0000";
layers = (
{
layerId = UUID0;
paths = (
{
closed = 1;
nodes = (
"169 -145 LINE",
"184 -111 LINE",
"126 -115 LINE",
"49 -94 LINE",
"27 -57 LINE",
"48 -33 LINE",
"65 -14 LINE",
"110 5 LINE",
"116 -1 LINE",
"140 -1 LINE",
"156 27 LINE",
"156 91 LINE",
"140 185 LINE",
"121 276 LINE",
"106 371 LINE",
"109 423 LINE",
"104 433 LINE",
"91 442 LINE",
"58 442 LINE",
"63 412 LINE",
"63 387 LINE",
"62 363 LINE",
"62 326 LINE",
"63 268 LINE",
"68 192 LINE",
"78 110 LINE",
"85 77 LINE",
"89 59 LINE",
"93 43 LINE",
"80 38 LINE",
"68 33 LINE",
"54 28 LINE",
"28 16 LINE",
"7 -2 LINE",
"-1 -16 LINE",
"-20 -60 LINE",
"-8 -110 LINE",
"39 -138 LINE",
"118 -146 LINE"
);
},
{
closed = 1;
nodes = (
"66 537 LINE",
"82 540 LINE",
"80 561 LINE",
"65 584 LINE",
"42 603 LINE",
"36 602 LINE",
"24 602 LINE",
"12 595 LINE",
"12 567 LINE",
"17 550 LINE",
"27 540 LINE",
"47 537 LINE"
);
}
);
width = 175;
}
);
unicode = 012F;
},
{
glyphname = itilde;
lastChange = "2016-08-24 10:04:02 +0000";
layers = (
{
layerId = UUID0;
paths = (
{
closed = 1;
nodes = (
"-8 528 LINE",
"-9 562 LINE",
"1 594 LINE",
"26 616 LINE",
"54 614 LINE",
"74 604 LINE",
"109 576 LINE",
"146 553 LINE",
"186 543 LINE",
"212 553 LINE",
"219 555 LINE",
"223 556 LINE",
"224 558 LINE",
"227 563 LINE",
"240 576 LINE",
"269 603 LINE",
"295 625 LINE",
"298 628 LINE",
"300 637 LINE",
"295 647 LINE",
"282 655 LINE",
"271 656 LINE",
"210 609 LINE",
"210 607 LINE",
"195 602 LINE",
"180 596 LINE",
"157 599 LINE",
"139 609 LINE",
"108 628 LINE",
"69 647 LINE",
"46 655 LINE",
"36 655 LINE",
"33 654 LINE",
"13 654 LINE",
"-22 635 LINE",
"-46 604 LINE",
"-54 563 LINE",
"-46 539 LINE",
"-25 516 LINE",
"-12 511 LINE"
);
},
{
closed = 1;
nodes = (
"140 -1 LINE",
"156 27 LINE",
"156 91 LINE",
"140 185 LINE",
"121 276 LINE",
"106 371 LINE",
"109 423 LINE",
"104 433 LINE",
"91 442 LINE",
"58 442 LINE",
"63 412 LINE",
"63 387 LINE",
"62 363 LINE",
"62 326 LINE",
"63 268 LINE",
"68 192 LINE",
"78 110 LINE",
"92 43 LINE",
"110 -1 LINE"
);
}
);
width = 175;
}
);
unicode = 0129;
},
{
glyphname = j;
lastChange = "2016-08-24 10:04:02 +0000";
layers = (
{
layerId = UUID0;
paths = (
{
closed = 1;
nodes = (
"201 -415 LINE",
"220 -342 LINE",
"225 -238 LINE",
"220 -119 LINE",
"206 8 LINE",
"187 131 LINE",
"163 243 LINE",
"140 331 LINE",
"116 388 LINE",
"106 394 LINE",
"96 394 LINE",
"86 391 LINE",
"81 384 LINE",
"80 374 LINE",
"79 367 LINE",
"86 284 LINE",
"118 115 LINE",
"150 -55 LINE",
"171 -225 LINE",
"168 -312 LINE",
"168 -319 LINE",
"165 -339 LINE",
"156 -356 LINE",
"142 -368 LINE",
"98 -368 LINE",
"45 -333 LINE",
"4 -279 LINE",
"-28 -215 LINE",
"-55 -157 LINE",
"-79 -113 LINE",
"-92 -107 LINE",
"-101 -109 LINE",
"-108 -119 LINE",
"-110 -131 LINE",
"-110 -149 LINE",
"-104 -200 LINE",
"-59 -297 LINE",
"10 -377 LINE",
"96 -436 LINE",
"143 -448 LINE",
"168 -453 LINE"
);
},
{
closed = 1;
nodes = (
"86 508 LINE",
"98 518 LINE",
"98 527 LINE",
"92 552 LINE",
"80 573 LINE",
"62 586 LINE",
"48 583 LINE",
"43 581 LINE",
"28 567 LINE",
"28 546 LINE",
"42 520 LINE",
"63 506 LINE"
);
}
);
width = 200;
}
);
unicode = 006A;
},
{
glyphname = jcircumflex;
lastChange = "2016-08-24 10:04:02 +0000";
layers = (
{
layerId = UUID0;
paths = (
{
closed = 1;
nodes = (
"201 -415 LINE",
"220 -342 LINE",
"225 -238 LINE",
"220 -119 LINE",
"206 8 LINE",
"187 131 LINE",
"163 243 LINE",
"140 331 LINE",
"116 388 LINE",
"106 394 LINE",
"96 394 LINE",
"86 391 LINE",
"81 384 LINE",
"80 374 LINE",
"79 367 LINE",
"86 284 LINE",
"118 115 LINE",
"150 -55 LINE",
"171 -225 LINE",
"168 -312 LINE",
"168 -319 LINE",
"165 -339 LINE",
"156 -356 LINE",
"142 -368 LINE",
"98 -368 LINE",
"45 -333 LINE",
"4 -279 LINE",
"-28 -215 LINE",
"-55 -157 LINE",
"-79 -113 LINE",
"-92 -107 LINE",
"-101 -109 LINE",
"-108 -119 LINE",
"-110 -131 LINE",
"-110 -149 LINE",
"-104 -200 LINE",
"-59 -297 LINE",
"10 -377 LINE",
"96 -436 LINE",
"143 -448 LINE",
"168 -453 LINE"
);
},
{
closed = 1;
nodes = (
"43 550 LINE",
"85 596 LINE",
"104 619 LINE",
"121 607 LINE",
"151 575 LINE",
"177 546 LINE",
"202 525 LINE",
"230 525 LINE",
"235 542 LINE",
"235 564 LINE",
"234 576 LINE",
"230 587 LINE",
"224 600 LINE",
"217 610 LINE",
"211 619 LINE",
"190 644 LINE",
"146 694 LINE",
"141 704 LINE",
"132 719 LINE",
"118 731 LINE",
"98 731 LINE",
"86 729 LINE",
"84 722 LINE",
"75 687 LINE",
"57 646 LINE",
"30 615 LINE",
"-8 584 LINE",
"-35 559 LINE",
"-27 531 LINE",
"4 525 LINE"
);
}
);
width = 200;
}
);
unicode = 0135;
},
{
glyphname = k;
lastChange = "2016-08-24 10:04:02 +0000";
layers = (
{
layerId = UUID0;
paths = (
{
closed = 1;
nodes = (
"98 -1 LINE",
"106 29 LINE",
"110 64 LINE",
"121 95 LINE",
"144 95 LINE",
"184 67 LINE",
"235 35 LINE",
"290 8 LINE",
"322 8 LINE",
"351 7 LINE",
"377 13 LINE",
"396 27 LINE",
"396 49 LINE",
"394 63 LINE",
"385 65 LINE",
"370 66 LINE",
"321 74 LINE",
"267 89 LINE",
"212 109 LINE",
"168 139 LINE",
"140 174 LINE",
"140 210 LINE",
"159 249 LINE",
"190 291 LINE",
"229 336 LINE",
"306 411 LINE",
"319 423 LINE",
"320 434 LINE",
"314 450 LINE",
"279 450 LINE",
"246 426 LINE",
"218 391 LINE",
"193 349 LINE",
"167 313 LINE",
"137 288 LINE",
"116 288 LINE",
"105 289 LINE",
"104 291 LINE",
"101 312 LINE",
"87 386 LINE",
"70 470 LINE",
"49 551 LINE",
"27 604 LINE",
"7 620 LINE",
"-2 597 LINE",
"1 557 LINE",
"19 461 LINE",
"37 361 LINE",
"54 261 LINE",
"57 216 LINE",
"57 200 LINE",
"58 180 LINE",
"58 125 LINE",
"57 104 LINE",
"57 83 LINE",
"51 47 LINE",
"48 30 LINE",
"48 13 LINE",
"70 -1 LINE"
);
}
);
width = 403;
}
);
unicode = 006B;
},
{
glyphname = l;
lastChange = "2016-08-24 10:04:02 +0000";
layers = (
{
layerId = UUID0;
paths = (
{
closed = 1;
nodes = (
"82 21 LINE",
"91 76 LINE",
"95 190 LINE",
"91 376 LINE",
"85 517 LINE",
"85 522 LINE",
"80 541 LINE",
"70 560 LINE",
"57 572 LINE",
"40 572 LINE",
"28 566 LINE",
"28 559 LINE",
"29 490 LINE",
"25 353 LINE",
"24 215 LINE",
"30 77 LINE",
"40 7 LINE",
"51 5 LINE",
"68 1 LINE"
);
}
);
width = 120;
}
);
unicode = 006C;
},
{
glyphname = lslash;
lastChange = "2016-08-24 10:04:02 +0000";
layers = (
{
layerId = UUID0;
paths = (
{
closed = 1;
nodes = (
"86 22 LINE",
"95 52 LINE",
"101 115 LINE",
"103 220 LINE",
"101 299 LINE",
"118 307 LINE",
"155 320 LINE",
"177 324 LINE",
"181 324 LINE",
"173 342 LINE",
"159 365 LINE",
"147 388 LINE",
"147 394 LINE",
"100 358 LINE",
"98 396 LINE",
"95 479 LINE",
"94 528 LINE",
"94 534 LINE",
"89 553 LINE",
"80 572 LINE",
"65 585 LINE",
"50 585 LINE",
"37 579 LINE",
"37 570 LINE",
"38 506 LINE",
"35 379 LINE",
"34 313 LINE",
"-69 241 LINE",
"-67 215 LINE",
"-54 200 LINE",
"-28 212 LINE",
"9 241 LINE",
"34 259 LINE",
"34 199 LINE",
"41 80 LINE",
"50 20 LINE",
"58 18 LINE",
"73 14 LINE"
);
}
);
width = 120;
}
);
unicode = 0142;
},
{
glyphname = m;
lastChange = "2016-08-24 10:04:02 +0000";
layers = (
{
layerId = UUID0;
paths = (
{
closed = 1;
nodes = (
"693 -1 LINE",
"713 37 LINE",
"722 87 LINE",
"723 135 LINE",
"723 170 LINE",
"714 230 LINE",
"694 292 LINE",
"665 350 LINE",
"624 396 LINE",
"572 423 LINE",
"517 423 LINE",
"473 404 LINE",
"429 377 LINE",
"391 345 LINE",
"361 317 LINE",
"344 300 LINE",
"338 300 LINE",
"323 324 LINE",
"291 360 LINE",
"253 383 LINE",
"208 395 LINE",
"162 395 LINE",
"138 393 LINE",
"115 383 LINE",
"92 364 LINE",
"75 347 LINE",
"75 362 LINE",
"60 385 LINE",
"38 385 LINE",
"28 375 LINE",
"28 364 LINE",
"27 354 LINE",
"27 307 LINE",
"32 244 LINE",
"36 183 LINE",
"39 115 LINE",
"38 74 LINE",
"40 65 LINE",
"46 46 LINE",
"56 29 LINE",
"70 19 LINE",
"98 19 LINE",
"104 41 LINE",
"104 93 LINE",
"93 168 LINE",
"93 231 LINE",
"106 278 LINE",
"134 315 LINE",
"175 338 LINE",
"235 338 LINE",
"279 297 LINE",
"310 233 LINE",
"329 161 LINE",
"349 98 LINE",
"371 57 LINE",
"405 57 LINE",
"414 80 LINE",
"414 107 LINE",
"404 136 LINE",
"394 164 LINE",
"384 191 LINE",
"384 235 LINE",
"416 290 LINE",
"466 332 LINE",
"523 358 LINE",
"579 358 LINE",
"622 312 LINE",
"650 247 LINE",
"664 180 LINE",
"666 159 LINE",
"666 156 LINE",
"663 128 LINE",
"660 97 LINE",
"657 68 LINE",
"657 65 LINE",
"656 57 LINE",
"656 47 LINE",
"655 37 LINE",
"655 16 LINE",
"659 6 LINE",
"667 -1 LINE"
);
}
);
width = 750;
}
);
unicode = 006D;
},
{
glyphname = n;
lastChange = "2016-08-24 10:04:02 +0000";
layers = (
{
layerId = UUID0;
paths = (
{
closed = 1;
nodes = (
"133 -4 LINE",
"133 27 LINE",
"121 90 LINE",
"106 151 LINE",
"95 213 LINE",
"95 275 LINE",
"117 328 LINE",
"156 364 LINE",
"209 385 LINE",
"271 385 LINE",
"328 326 LINE",
"367 227 LINE",
"385 95 LINE",
"376 19 LINE",
"376 16 LINE",
"383 12 LINE",
"393 9 LINE",
"402 8 LINE",
"416 8 LINE",
"432 34 LINE",
"438 69 LINE",
"441 104 LINE",
"441 139 LINE",
"432 208 LINE",
"410 281 LINE",
"379 352 LINE",
"335 408 LINE",
"279 442 LINE",
"221 442 LINE",
"169 421 LINE",
"123 396 LINE",
"84 374 LINE",
"65 374 LINE",
"62 381 LINE",
"60 388 LINE",
"54 395 LINE",
"41 395 LINE",
"28 390 LINE",
"28 284 LINE",
"33 199 LINE",
"46 111 LINE",
"68 41 LINE",
"105 -4 LINE"
);
}
);
width = 460;
}
);
unicode = 006E;
},
{
glyphname = o;
lastChange = "2016-08-24 10:04:02 +0000";
layers = (
{
layerId = UUID0;
paths = (
{
closed = 1;
nodes = (
"270 -1 LINE",
"354 27 LINE",
"420 81 LINE",
"459 159 LINE",
"459 229 LINE",
"446 276 LINE",
"425 321 LINE",
"394 363 LINE",
"354 396 LINE",
"309 414 LINE",
"236 414 LINE",
"142 388 LINE",
"65 333 LINE",
"19 253 LINE",
"19 153 LINE",
"50 78 LINE",
"105 27 LINE",
"181 -1 LINE"
);
},
{
closed = 1;
nodes = (
"215 56 LINE",
"183 56 LINE",
"129 80 LINE",
"89 121 LINE",
"65 177 LINE",
"65 244 LINE",
"104 300 LINE",
"160 338 LINE",
"229 356 LINE",
"262 356 LINE",
"318 336 LINE",
"382 288 LINE",
"407 235 LINE",
"399 185 LINE",
"371 137 LINE",
"327 97 LINE",
"279 68 LINE",
"231 54 LINE"
);
}
);
width = 487;
}
);
unicode = 006F;
},
{
glyphname = oslash;
lastChange = "2016-08-24 10:04:02 +0000";
layers = (
{
layerId = UUID0;
paths = (
{
closed = 1;
nodes = (
"270 -1 LINE",
"354 27 LINE",
"420 81 LINE",
"459 159 LINE",
"459 229 LINE",
"446 276 LINE",
"425 321 LINE",
"394 363 LINE",
"373 379 LINE",
"368 383 LINE",
"364 387 LINE",
"367 394 LINE",
"370 400 LINE",
"382 425 LINE",
"382 446 LINE",
"379 454 LINE",
"369 460 LINE",
"359 461 LINE",
"345 458 LINE",
"326 438 LINE",
"320 426 LINE",
"317 419 LINE",
"314 411 LINE",
"300 414 LINE",
"236 414 LINE",
"142 388 LINE",
"65 333 LINE",
"19 253 LINE",
"19 153 LINE",
"33 115 LINE",
"48 80 LINE",
"73 57 LINE",
"68 48 LINE",
"63 41 LINE",
"56 28 LINE",
"56 14 LINE",
"74 0 LINE",
"98 0 LINE",
"115 17 LINE",
"121 21 LINE",
"181 -1 LINE"
);
},
{
closed = 1;
nodes = (
"108 101 LINE",
"89 121 LINE",
"65 177 LINE",
"65 244 LINE",
"104 300 LINE",
"160 338 LINE",
"229 356 LINE",
"262 356 LINE",
"273 353 LINE",
"283 349 LINE",
"121 109 LINE",
"109 99 LINE"
);
},
{
closed = 1;
nodes = (
"215 56 LINE",
"186 56 LINE",
"159 65 LINE",
"180 92 LINE",
"203 124 LINE",
"229 159 LINE",
"279 236 LINE",
"302 274 LINE",
"317 301 LINE",
"332 324 LINE",
"342 318 LINE",
"382 288 LINE",
"407 235 LINE",
"399 185 LINE",
"371 137 LINE",
"327 97 LINE",
"279 68 LINE",
"231 54 LINE"
);
}
);
width = 487;
}
);
unicode = 00F8;
},
{
glyphname = oslashacute;
lastChange = "2016-08-24 10:04:02 +0000";
layers = (
{
layerId = UUID0;
paths = (
{
closed = 1;
nodes = (
"270 -1 LINE",
"354 27 LINE",
"420 81 LINE",
"459 159 LINE",
"459 229 LINE",
"446 276 LINE",
"425 321 LINE",
"408 342 LINE",
"406 345 LINE",
"412 355 LINE",
"417 364 LINE",
"428 387 LINE",
"428 398 LINE",
"429 405 LINE",
"425 413 LINE",
"415 419 LINE",
"405 420 LINE",
"391 417 LINE",
"372 399 LINE",
"366 388 LINE",
"365 387 LINE",
"365 385 LINE",
"350 396 LINE",
"331 405 LINE",
"309 414 LINE",
"236 414 LINE",
"142 388 LINE",
"65 333 LINE",
"19 253 LINE",
"19 153 LINE",
"50 78 LINE",
"90 41 LINE",
"104 31 LINE",
"101 23 LINE",
"101 13 LINE",
"119 0 LINE",
"141 0 LINE",
"153 10 LINE",
"187 -1 LINE"
);
},
{
closed = 1;
nodes = (
"123 86 LINE",
"108 101 LINE",
"89 121 LINE",
"65 177 LINE",
"65 244 LINE",
"104 300 LINE",
"160 338 LINE",
"229 356 LINE",
"262 356 LINE",
"305 341 LINE",
"333 323 LINE",
"165 101 LINE",
"147 83 LINE",
"140 75 LINE"
);
},
{
closed = 1;
nodes = (
"215 56 LINE",
"201 56 LINE",
"224 80 LINE",
"274 146 LINE",
"324 216 LINE",
"348 250 LINE",
"362 271 LINE",
"374 291 LINE",
"388 276 LINE",
"395 262 LINE",
"407 235 LINE",
"399 185 LINE",
"371 137 LINE",
"327 97 LINE",
"279 68 LINE",
"231 54 LINE"
);
},
{
closed = 1;
nodes = (
"198 447 LINE",
"230 479 LINE",
"289 528 LINE",
"326 566 LINE",
"331 593 LINE",
"311 604 LINE",
"295 591 LINE",
"249 562 LINE",
"206 528 LINE",
"174 491 LINE",
"174 457 LINE",
"184 447 LINE"
);
}
);
width = 487;
}
);
unicode = 01FF;
},
{
glyphname = oe;
lastChange = "2016-08-24 10:04:02 +0000";
layers = (
{
layerId = UUID0;
paths = (
{
closed = 1;
nodes = (
"691 -35 LINE",
"745 -28 LINE",
"798 -11 LINE",
"845 17 LINE",
"861 38 LINE",
"687 26 LINE",
"626 29 LINE",
"544 52 LINE",
"490 86 LINE",
"462 130 LINE",
"455 154 LINE",
"455 158 LINE",
"454 161 LINE",
"459 184 LINE",
"459 229 LINE",
"452 253 LINE",
"450 261 LINE",
"447 270 LINE",
"449 294 LINE",
"458 319 LINE",
"469 350 LINE",
"508 399 LINE",
"563 431 LINE",
"599 434 LINE",
"619 435 LINE",
"654 417 LINE",
"679 388 LINE",
"692 350 LINE",
"692 312 LINE",
"652 274 LINE",
"599 245 LINE",
"546 227 LINE",
"533 227 LINE",
"509 231 LINE",
"482 233 LINE",
"470 230 LINE",
"467 224 LINE",
"467 203 LINE",
"479 188 LINE",
"497 180 LINE",
"564 180 LINE",
"637 200 LINE",
"699 238 LINE",
"741 294 LINE",
"741 329 LINE",
"742 358 LINE",
"728 411 LINE",
"697 451 LINE",
"649 478 LINE",
"617 481 LINE",
"563 481 LINE",
"479 440 LINE",
"426 376 LINE",
"411 338 LINE",
"410 340 LINE",
"408 342 LINE",
"394 363 LINE",
"354 396 LINE",
"309 414 LINE",
"236 414 LINE",
"142 388 LINE",
"65 333 LINE",
"19 253 LINE",
"19 153 LINE",
"50 78 LINE",
"105 27 LINE",
"181 -1 LINE",
"270 -1 LINE",
"354 27 LINE",
"387 54 LINE",
"408 72 LINE",
"425 96 LINE",
"445 62 LINE",
"474 35 LINE",
"512 1 LINE",
"612 -35 LINE"
);
},
{
closed = 1;
nodes = (
"215 56 LINE",
"183 56 LINE",
"129 80 LINE",
"89 121 LINE",
"65 177 LINE",
"65 244 LINE",
"104 300 LINE",
"160 338 LINE",
"229 356 LINE",
"262 356 LINE",
"318 336 LINE",
"350 312 LINE",
"381 288 LINE",
"394 264 LINE",
"392 245 LINE",
"392 202 LINE",
"395 180 LINE",
"391 170 LINE",
"385 160 LINE",
"371 137 LINE",
"327 97 LINE",
"279 68 LINE",
"231 54 LINE"
);
}
);
width = 876;
}
);
unicode = 0153;
},
{
glyphname = p;
lastChange = "2016-08-24 10:04:02 +0000";
layers = (
{
layerId = UUID0;
paths = (
{
closed = 1;
nodes = (
"159 -356 LINE",
"162 -354 LINE",
"177 -341 LINE",
"179 -338 LINE",
"179 -335 LINE",
"180 -334 LINE",
"180 -332 LINE",
"179 -329 LINE",
"179 -327 LINE",
"176 -313 LINE",
"165 -248 LINE",
"151 -167 LINE",
"137 -77 LINE",
"124 4 LINE",
"115 69 LINE",
"112 85 LINE",
"112 87 LINE",
"109 114 LINE",
"106 150 LINE",
"104 186 LINE",
"104 224 LINE",
"127 247 LINE",
"163 265 LINE",
"206 278 LINE",
"245 287 LINE",
"274 291 LINE",
"309 291 LINE",
"367 273 LINE",
"414 241 LINE",
"443 191 LINE",
"443 136 LINE",
"410 107 LINE",
"364 91 LINE",
"313 85 LINE",
"276 85 LINE",
"237 101 LINE",
"198 120 LINE",
"160 136 LINE",
"140 136 LINE",
"140 98 LINE",
"175 55 LINE",
"229 33 LINE",
"295 27 LINE",
"358 27 LINE",
"420 39 LINE",
"470 67 LINE",
"500 117 LINE",
"500 201 LINE",
"463 271 LINE",
"400 320 LINE",
"320 347 LINE",
"228 347 LINE",
"133 324 LINE",
"62 273 LINE",
"19 189 LINE",
"19 117 LINE",
"25 64 LINE",
"39 -8 LINE",
"57 -93 LINE",
"77 -178 LINE",
"101 -258 LINE",
"123 -319 LINE",
"145 -356 LINE"
);
}
);
width = 521;
}
);
unicode = 0070;
},
{
glyphname = thorn;
lastChange = "2016-08-24 10:04:02 +0000";
layers = (
{
layerId = UUID0;
paths = (
{
closed = 1;
nodes = (
"92 -186 LINE",
"92 -184 LINE",
"93 -181 LINE",
"92 -143 LINE",
"90 -82 LINE",
"91 -22 LINE",
"92 42 LINE",
"94 84 LINE",
"115 71 LINE",
"177 59 LINE",
"241 54 LINE",
"358 54 LINE",
"420 64 LINE",
"470 93 LINE",
"500 144 LINE",
"500 183 LINE",
"499 240 LINE",
"453 316 LINE",
"381 360 LINE",
"289 373 LINE",
"195 364 LINE",
"109 334 LINE",
"77 312 LINE",
"104 509 LINE",
"57 497 LINE",
"52 489 LINE",
"45 443 LINE",
"40 382 LINE",
"37 312 LINE",
"36 247 LINE",
"36 162 LINE",
"29 81 LINE",
"26 -19 LINE",
"30 -131 LINE",
"40 -184 LINE",
"45 -182 LINE",
"61 -184 LINE",
"77 -187 LINE",
"91 -188 LINE"
);
},
{
closed = 1;
nodes = (
"230 118 LINE",
"119 139 LINE",
"96 143 LINE",
"98 164 LINE",
"101 204 LINE",
"104 224 LINE",
"104 250 LINE",
"127 273 LINE",
"163 291 LINE",
"206 305 LINE",
"245 313 LINE",
"274 317 LINE",
"309 317 LINE",
"367 300 LINE",
"414 268 LINE",
"443 218 LINE",
"443 162 LINE",
"410 134 LINE",
"364 117 LINE",
"313 111 LINE",
"279 111 LINE"
);
}
);
width = 521;
}
);
unicode = 00FE;
},
{
glyphname = q;
lastChange = "2016-08-24 10:04:02 +0000";
layers = (
{
layerId = UUID0;
paths = (
{
closed = 1;
nodes = (
"364 -319 LINE",
"367 -299 LINE",
"367 -242 LINE",
"360 -156 LINE",
"346 14 LINE",
"346 57 LINE",
"375 394 LINE",
"375 420 LINE",
"348 459 LINE",
"309 484 LINE",
"262 498 LINE",
"190 498 LINE",
"106 452 LINE",
"49 379 LINE",
"19 284 LINE",
"19 194 LINE",
"39 116 LINE",
"82 56 LINE",
"149 19 LINE",
"199 19 LINE",
"215 21 LINE",
"234 24 LINE",
"251 27 LINE",
"253 28 LINE",
"276 28 LINE",
"291 -2 LINE",
"297 -51 LINE",
"299 -113 LINE",
"300 -178 LINE",
"303 -240 LINE",
"313 -289 LINE",
"331 -319 LINE"
);
},
{
closed = 1;
nodes = (
"115 109 LINE",
"82 150 LINE",
"64 204 LINE",
"64 263 LINE",
"87 338 LINE",
"129 404 LINE",
"188 449 LINE",
"240 449 LINE",
"273 440 LINE",
"301 424 LINE",
"319 398 LINE",
"319 382 LINE",
"306 348 LINE",
"294 275 LINE",
"289 203 LINE",
"286 133 LINE",
"281 104 LINE",
"262 91 LINE",
"217 83 LINE",
"163 83 LINE"
);
}
);
width = 412;
}
);
unicode = 0071;
},
{
glyphname = r;
lastChange = "2016-08-24 10:04:02 +0000";
layers = (
{
layerId = UUID0;
paths = (
{
closed = 1;
nodes = (
"120 0 LINE",
"142 21 LINE",
"142 32 LINE",
"141 59 LINE",
"127 109 LINE",
"110 161 LINE",
"92 212 LINE",
"80 265 LINE",
"78 318 LINE",
"85 347 LINE",
"101 372 LINE",
"141 394 LINE",
"186 396 LINE",
"234 387 LINE",
"280 373 LINE",
"321 364 LINE",
"338 366 LINE",
"338 382 LINE",
"332 401 LINE",
"321 415 LINE",
"308 426 LINE",
"300 432 LINE",
"285 437 LINE",
"262 443 LINE",
"241 448 LINE",
"221 450 LINE",
"188 450 LINE",
"149 440 LINE",
"111 426 LINE",
"74 409 LINE",
"57 403 LINE",
"54 405 LINE",
"39 411 LINE",
"37 412 LINE",
"33 412 LINE",
"33 413 LINE",
"31 413 LINE",
"30 412 LINE",
"28 412 LINE",
"22 406 LINE",
"18 391 LINE",
"17 373 LINE",
"19 355 LINE",
"19 350 LINE",
"21 313 LINE",
"33 225 LINE",
"55 131 LINE",
"86 39 LINE",
"106 0 LINE"
);
}
);
width = 347;
}
);
unicode = 0072;
},
{
glyphname = s;
lastChange = "2016-08-24 10:04:02 +0000";
layers = (
{
layerId = UUID0;
paths = (
{
closed = 1;
nodes = (
"351 0 LINE",
"407 14 LINE",
"455 43 LINE",
"486 87 LINE",
"486 157 LINE",
"452 207 LINE",
"396 235 LINE",
"326 249 LINE",
"251 256 LINE",
"180 264 LINE",
"124 281 LINE",
"91 313 LINE",
"91 343 LINE",
"89 359 LINE",
"117 385 LINE",
"163 400 LINE",
"218 405 LINE",
"268 396 LINE",
"305 375 LINE",
"309 356 LINE",
"298 338 LINE",
"297 313 LINE",
"307 300 LINE",
"324 300 LINE",
"341 312 LINE",
"351 338 LINE",
"349 357 LINE",
"348 391 LINE",
"304 435 LINE",
"238 456 LINE",
"160 455 LINE",
"91 433 LINE",
"41 390 LINE",
"35 358 LINE",
"36 315 LINE",
"69 262 LINE",
"124 230 LINE",
"193 216 LINE",
"334 200 LINE",
"388 184 LINE",
"420 151 LINE",
"420 94 LINE",
"382 65 LINE",
"329 55 LINE",
"271 56 LINE",
"224 56 LINE",
"191 58 LINE",
"165 65 LINE",
"136 78 LINE",
"110 89 LINE",
"102 93 LINE",
"86 105 LINE",
"71 118 LINE",
"54 127 LINE",
"36 127 LINE",
"24 124 LINE",
"17 118 LINE",
"29 87 LINE",
"70 46 LINE",
"122 20 LINE",
"183 7 LINE",
"242 1 LINE",
"300 0 LINE"
);
}
);
width = 515;
}
);
unicode = 0073;
},
{
glyphname = scedilla;
lastChange = "2016-08-24 10:04:02 +0000";
layers = (
{
layerId = UUID0;
paths = (
{
closed = 1;
nodes = (
"281 -307 LINE",
"326 -295 LINE",
"364 -272 LINE",
"389 -237 LINE",
"389 -172 LINE",
"358 -129 LINE",
"314 -108 LINE",
"262 -103 LINE",
"217 -91 LINE",
"187 -64 LINE",
"187 -34 LINE",
"191 -29 LINE",
"188 -10 LINE",
"185 0 LINE",
"181 7 LINE",
"196 5 LINE",
"212 4 LINE",
"242 1 LINE",
"300 0 LINE",
"351 0 LINE",
"407 14 LINE",
"455 43 LINE",
"486 87 LINE",
"486 157 LINE",
"452 207 LINE",
"396 235 LINE",
"326 249 LINE",
"251 256 LINE",
"180 264 LINE",
"124 281 LINE",
"91 313 LINE",
"91 343 LINE",
"89 359 LINE",
"117 385 LINE",
"163 400 LINE",
"218 405 LINE",
"268 396 LINE",
"305 375 LINE",
"309 356 LINE",
"298 338 LINE",
"297 313 LINE",
"307 300 LINE",
"324 300 LINE",
"341 312 LINE",
"351 338 LINE",
"349 357 LINE",
"348 391 LINE",
"304 435 LINE",
"238 456 LINE",
"160 455 LINE",
"91 433 LINE",
"41 390 LINE",
"35 358 LINE",
"36 315 LINE",
"69 262 LINE",
"124 230 LINE",
"193 216 LINE",
"334 200 LINE",
"388 184 LINE",
"420 151 LINE",
"420 94 LINE",
"382 65 LINE",
"329 55 LINE",
"271 56 LINE",
"224 56 LINE",
"191 58 LINE",
"165 65 LINE",
"136 78 LINE",
"110 89 LINE",
"102 93 LINE",
"78 111 LINE",
"71 118 LINE",
"54 127 LINE",
"36 127 LINE",
"24 124 LINE",
"17 118 LINE",
"29 87 LINE",
"70 46 LINE",
"120 21 LINE",
"147 14 LINE",
"144 3 LINE",
"142 -21 LINE",
"143 -55 LINE",
"159 -97 LINE",
"188 -122 LINE",
"223 -134 LINE",
"259 -142 LINE",
"294 -147 LINE",
"320 -161 LINE",
"337 -187 LINE",
"336 -210 LINE",
"336 -233 LINE",
"326 -255 LINE",
"308 -263 LINE",
"280 -262 LINE",
"250 -262 LINE",
"224 -243 LINE",
"196 -222 LINE",
"167 -204 LINE",
"144 -204 LINE",
"133 -206 LINE",
"127 -211 LINE",
"143 -229 LINE",
"168 -264 LINE",
"195 -290 LINE",
"232 -307 LINE"
);
}
);
width = 515;
}
);
unicode = 015F;
},
{
glyphname = germandbls;
lastChange = "2016-08-24 10:04:02 +0000";
layers = (
{
layerId = UUID0;
paths = (
{
closed = 1;
nodes = (
"150 -134 LINE",
"94 600 LINE",
"115 616 LINE",
"174 629 LINE",
"220 629 LINE",
"262 616 LINE",
"298 594 LINE",
"321 561 LINE",
"321 513 LINE",
"299 481 LINE",
"265 461 LINE",
"225 450 LINE",
"190 440 LINE",
"168 428 LINE",
"168 396 LINE",
"218 367 LINE",
"381 311 LINE",
"456 266 LINE",
"506 202 LINE",
"506 132 LINE",
"476 104 LINE",
"426 87 LINE",
"364 80 LINE",
"302 80 LINE",
"244 81 LINE",
"225 81 LINE",
"220 60 LINE",
"221 37 LINE",
"229 27 LINE",
"242 24 LINE",
"272 24 LINE",
"337 27 LINE",
"408 35 LINE",
"479 50 LINE",
"537 76 LINE",
"572 114 LINE",
"572 181 LINE",
"533 250 LINE",
"474 310 LINE",
"405 358 LINE",
"347 392 LINE",
"308 411 LINE",
"308 423 LINE",
"329 450 LINE",
"354 484 LINE",
"376 526 LINE",
"376 575 LINE",
"350 614 LINE",
"309 646 LINE",
"257 669 LINE",
"204 686 LINE",
"155 693 LINE",
"137 693 LINE",
"100 701 LINE",
"55 681 LINE",
"33 634 LINE",
"30 563 LINE",
"39 476 LINE",
"56 375 LINE",
"73 267 LINE",
"87 155 LINE",
"90 47 LINE",
"79 -55 LINE",
"63 -99 LINE",
"61 -108 LINE",
"86 -122 LINE",
"119 -129 LINE",
"148 -134 LINE"
);
}
);
width = 591;
}
);
unicode = 00DF;
},
{
glyphname = t;
lastChange = "2016-08-24 10:04:02 +0000";
layers = (
{
layerId = UUID0;
paths = (
{
closed = 1;
nodes = (
"203 0 LINE",
"203 3 LINE",
"202 52 LINE",
"200 121 LINE",
"197 203 LINE",
"194 275 LINE",
"193 328 LINE",
"193 334 LINE",
"206 343 LINE",
"241 344 LINE",
"278 343 LINE",
"312 348 LINE",
"323 360 LINE",
"322 382 LINE",
"294 399 LINE",
"276 397 LINE",
"193 401 LINE",
"186 584 LINE",
"186 590 LINE",
"180 603 LINE",
"170 614 LINE",
"157 622 LINE",
"147 622 LINE",
"138 620 LINE",
"129 616 LINE",
"123 607 LINE",
"123 602 LINE",
"124 566 LINE",
"127 522 LINE",
"129 481 LINE",
"126 436 LINE",
"121 399 LINE",
"21 392 LINE",
"13 392 LINE",
"10 377 LINE",
"10 358 LINE",
"44 343 LINE",
"86 336 LINE",
"125 335 LINE",
"133 335 LINE",
"131 319 LINE",
"129 250 LINE",
"130 167 LINE",
"136 82 LINE",
"153 19 LINE",
"181 -14 LINE"
);
}
);
width = 329;
}
);
unicode = 0074;
},
{
glyphname = u;
lastChange = "2016-08-24 10:04:02 +0000";
layers = (
{
layerId = UUID0;
paths = (
{
closed = 1;
nodes = (
"470 5 LINE",
"486 11 LINE",
"486 35 LINE",
"473 73 LINE",
"455 119 LINE",
"437 168 LINE",
"432 188 LINE",
"429 194 LINE",
"428 234 LINE",
"426 287 LINE",
"422 344 LINE",
"412 393 LINE",
"396 424 LINE",
"375 424 LINE",
"361 414 LINE",
"355 403 LINE",
"355 395 LINE",
"356 350 LINE",
"356 299 LINE",
"355 253 LINE",
"355 227 LINE",
"327 176 LINE",
"287 128 LINE",
"242 94 LINE",
"197 94 LINE",
"151 123 LINE",
"116 170 LINE",
"91 229 LINE",
"74 290 LINE",
"65 346 LINE",
"65 369 LINE",
"68 385 LINE",
"70 402 LINE",
"73 419 LINE",
"74 423 LINE",
"82 453 LINE",
"60 478 LINE",
"30 461 LINE",
"9 401 LINE",
"17 349 LINE",
"17 321 LINE",
"27 254 LINE",
"48 185 LINE",
"80 118 LINE",
"124 67 LINE",
"181 36 LINE",
"247 36 LINE",
"287 60 LINE",
"320 93 LINE",
"353 129 LINE",
"375 142 LINE",
"391 133 LINE",
"407 105 LINE",
"416 74 LINE",
"420 45 LINE",
"427 21 LINE",
"441 5 LINE"
);
}
);
width = 502;
}
);
unicode = 0075;
},
{
glyphname = uogonek;
lastChange = "2016-08-24 10:04:02 +0000";
layers = (
{
layerId = UUID0;
paths = (
{
closed = 1;
nodes = (
"505 -129 LINE",
"520 -96 LINE",
"462 -100 LINE",
"385 -78 LINE",
"364 -41 LINE",
"385 -18 LINE",
"399 -2 LINE",
"433 14 LINE",
"435 13 LINE",
"441 5 LINE",
"470 5 LINE",
"486 11 LINE",
"486 35 LINE",
"473 73 LINE",
"455 119 LINE",
"437 168 LINE",
"432 188 LINE",
"429 194 LINE",
"428 234 LINE",
"426 287 LINE",
"422 344 LINE",
"412 393 LINE",
"396 424 LINE",
"375 424 LINE",
"361 414 LINE",
"355 403 LINE",
"355 395 LINE",
"356 350 LINE",
"356 299 LINE",
"355 253 LINE",
"355 227 LINE",
"327 176 LINE",
"287 128 LINE",
"242 94 LINE",
"197 94 LINE",
"151 123 LINE",
"116 170 LINE",
"91 229 LINE",
"74 290 LINE",
"65 346 LINE",
"65 369 LINE",
"68 385 LINE",
"70 402 LINE",
"73 419 LINE",
"74 423 LINE",
"82 453 LINE",
"60 478 LINE",
"30 461 LINE",
"9 401 LINE",
"17 349 LINE",
"17 321 LINE",
"27 254 LINE",
"48 185 LINE",
"80 118 LINE",
"124 67 LINE",
"181 36 LINE",
"247 36 LINE",
"287 60 LINE",
"320 93 LINE",
"353 129 LINE",
"375 142 LINE",
"391 133 LINE",
"407 105 LINE",
"416 74 LINE",
"417 60 LINE",
"418 54 LINE",
"411 51 LINE",
"405 49 LINE",
"391 44 LINE",
"364 31 LINE",
"344 14 LINE",
"335 0 LINE",
"317 -44 LINE",
"328 -96 LINE",
"376 -122 LINE",
"455 -130 LINE"
);
}
);
width = 502;
}
);
unicode = 0173;
},
{
glyphname = v;
lastChange = "2016-08-24 10:04:02 +0000";
layers = (
{
layerId = UUID0;
paths = (
{
closed = 1;
nodes = (
"251 36 LINE",
"278 97 LINE",
"305 169 LINE",
"328 235 LINE",
"350 284 LINE",
"356 291 LINE",
"369 306 LINE",
"376 327 LINE",
"365 338 LINE",
"337 334 LINE",
"313 323 LINE",
"294 289 LINE",
"264 229 LINE",
"241 172 LINE",
"224 116 LINE",
"215 87 LINE",
"188 107 LINE",
"156 159 LINE",
"132 216 LINE",
"112 273 LINE",
"90 323 LINE",
"61 364 LINE",
"38 375 LINE",
"34 375 LINE",
"33 376 LINE",
"28 376 LINE",
"21 369 LINE",
"15 359 LINE",
"10 350 LINE",
"10 347 LINE",
"19 329 LINE",
"50 265 LINE",
"86 187 LINE",
"125 106 LINE",
"164 41 LINE",
"198 -1 LINE",
"212 -1 LINE",
"224 -2 LINE"
);
}
);
width = 390;
}
);
unicode = 0076;
},
{
glyphname = w;
lastChange = "2016-08-24 10:04:02 +0000";
layers = (
{
layerId = UUID0;
paths = (
{
closed = 1;
nodes = (
"298 41 LINE",
"338 94 LINE",
"355 76 LINE",
"379 51 LINE",
"398 32 LINE",
"420 21 LINE",
"456 16 LINE",
"511 16 LINE",
"554 19 LINE",
"590 39 LINE",
"625 102 LINE",
"632 174 LINE",
"617 247 LINE",
"590 309 LINE",
"555 353 LINE",
"538 356 LINE",
"534 356 LINE",
"525 355 LINE",
"519 353 LINE",
"515 345 LINE",
"517 338 LINE",
"531 318 LINE",
"556 266 LINE",
"570 208 LINE",
"571 150 LINE",
"552 104 LINE",
"509 74 LINE",
"437 74 LINE",
"396 109 LINE",
"375 165 LINE",
"367 228 LINE",
"361 282 LINE",
"352 318 LINE",
"336 318 LINE",
"326 314 LINE",
"317 310 LINE",
"310 303 LINE",
"310 300 LINE",
"304 174 LINE",
"304 153 LINE",
"275 115 LINE",
"233 83 LINE",
"188 63 LINE",
"152 63 LINE",
"123 86 LINE",
"99 120 LINE",
"81 162 LINE",
"70 205 LINE",
"64 243 LINE",
"64 273 LINE",
"71 306 LINE",
"79 338 LINE",
"86 368 LINE",
"86 397 LINE",
"81 417 LINE",
"65 423 LINE",
"35 389 LINE",
"9 302 LINE",
"11 210 LINE",
"39 121 LINE",
"85 51 LINE",
"147 4 LINE",
"220 -1 LINE"
);
}
);
width = 656;
}
);
unicode = 0077;
},
{
glyphname = x;
lastChange = "2016-08-24 10:04:02 +0000";
layers = (
{
layerId = UUID0;
paths = (
{
closed = 1;
nodes = (
"405 -52 LINE",
"417 -33 LINE",
"421 -22 LINE",
"410 4 LINE",
"364 64 LINE",
"310 122 LINE",
"254 174 LINE",
"233 192 LINE",
"243 203 LINE",
"281 235 LINE",
"327 269 LINE",
"376 304 LINE",
"415 335 LINE",
"440 357 LINE",
"440 362 LINE",
"436 387 LINE",
"405 389 LINE",
"363 364 LINE",
"312 320 LINE",
"260 276 LINE",
"211 243 LINE",
"191 240 LINE",
"171 251 LINE",
"91 335 LINE",
"47 373 LINE",
"22 382 LINE",
"10 382 LINE",
"2 377 LINE",
"-2 369 LINE",
"-1 361 LINE",
"10 341 LINE",
"46 294 LINE",
"89 249 LINE",
"133 208 LINE",
"149 192 LINE",
"149 191 LINE",
"150 188 LINE",
"150 173 LINE",
"121 135 LINE",
"85 91 LINE",
"56 41 LINE",
"56 -5 LINE",
"74 -5 LINE",
"80 -3 LINE",
"94 21 LINE",
"110 52 LINE",
"129 88 LINE",
"150 118 LINE",
"174 137 LINE",
"187 137 LINE",
"217 120 LINE",
"266 74 LINE",
"312 22 LINE",
"357 -28 LINE",
"384 -52 LINE"
);
}
);
width = 448;
}
);
unicode = 0078;
},
{
glyphname = y;
lastChange = "2016-08-24 10:04:02 +0000";
layers = (
{
layerId = UUID0;
paths = (
{
closed = 1;
nodes = (
"294 -488 LINE",
"344 -486 LINE",
"410 -415 LINE",
"451 -298 LINE",
"470 -147 LINE",
"472 13 LINE",
"461 174 LINE",
"442 310 LINE",
"421 411 LINE",
"401 454 LINE",
"388 428 LINE",
"386 368 LINE",
"386 364 LINE",
"387 335 LINE",
"388 295 LINE",
"391 250 LINE",
"393 212 LINE",
"394 183 LINE",
"394 179 LINE",
"384 159 LINE",
"350 122 LINE",
"308 93 LINE",
"262 74 LINE",
"206 74 LINE",
"154 105 LINE",
"117 155 LINE",
"92 220 LINE",
"74 286 LINE",
"63 351 LINE",
"57 400 LINE",
"51 432 LINE",
"33 432 LINE",
"20 406 LINE",
"16 373 LINE",
"19 341 LINE",
"19 304 LINE",
"31 233 LINE",
"58 163 LINE",
"97 98 LINE",
"147 48 LINE",
"209 19 LINE",
"266 19 LINE",
"307 38 LINE",
"347 63 LINE",
"384 82 LINE",
"412 82 LINE",
"424 50 LINE",
"428 0 LINE",
"425 -61 LINE",
"420 -116 LINE",
"414 -162 LINE",
"413 -172 LINE",
"410 -192 LINE",
"405 -245 LINE",
"394 -301 LINE",
"377 -355 LINE",
"350 -398 LINE",
"311 -426 LINE",
"282 -427 LINE",
"250 -426 LINE",
"186 -389 LINE",
"127 -340 LINE",
"80 -288 LINE",
"65 -271 LINE",
"58 -271 LINE",
"49 -276 LINE",
"45 -286 LINE",
"45 -327 LINE",
"71 -372 LINE",
"113 -413 LINE",
"167 -448 LINE",
"222 -474 LINE",
"274 -488 LINE"
);
}
);
width = 487;
}
);
unicode = 0079;
},
{
glyphname = z;
lastChange = "2016-08-24 10:04:02 +0000";
layers = (
{
layerId = UUID0;
paths = (
{
closed = 1;
nodes = (
"213 0 LINE",
"257 4 LINE",
"309 12 LINE",
"361 24 LINE",
"404 42 LINE",
"432 65 LINE",
"432 89 LINE",
"420 106 LINE",
"412 112 LINE",
"394 104 LINE",
"347 86 LINE",
"296 72 LINE",
"246 64 LINE",
"225 64 LINE",
"191 68 LINE",
"168 89 LINE",
"171 116 LINE",
"194 149 LINE",
"255 216 LINE",
"262 229 LINE",
"366 239 LINE",
"367 239 LINE",
"382 257 LINE",
"385 262 LINE",
"385 276 LINE",
"363 282 LINE",
"336 281 LINE",
"313 278 LINE",
"312 278 LINE",
"312 294 LINE",
"320 324 LINE",
"330 353 LINE",
"338 383 LINE",
"338 429 LINE",
"318 472 LINE",
"285 502 LINE",
"237 517 LINE",
"200 517 LINE",
"164 515 LINE",
"121 509 LINE",
"77 499 LINE",
"41 483 LINE",
"19 461 LINE",
"19 429 LINE",
"40 411 LINE",
"63 411 LINE",
"77 427 LINE",
"93 444 LINE",
"111 460 LINE",
"256 460 LINE",
"271 446 LINE",
"279 426 LINE",
"282 404 LINE",
"282 379 LINE",
"277 353 LINE",
"267 329 LINE",
"248 301 LINE",
"235 281 LINE",
"226 279 LINE",
"123 269 LINE",
"75 263 LINE",
"65 262 LINE",
"58 262 LINE",
"47 261 LINE",
"39 257 LINE",
"36 248 LINE",
"36 229 LINE",
"39 222 LINE",
"43 216 LINE",
"48 216 LINE",
"177 212 LINE",
"166 200 LINE",
"135 164 LINE",
"104 124 LINE",
"83 83 LINE",
"83 48 LINE",
"109 22 LINE",
"147 7 LINE",
"187 0 LINE"
);
}
);
width = 460;
}
);
unicode = 007A;
},
{
glyphname = u.end;
lastChange = "2016-08-24 10:04:02 +0000";
layers = (
{
layerId = UUID0;
paths = (
{
closed = 1;
nodes = (
"470 5 LINE",
"486 11 LINE",
"486 35 LINE",
"473 73 LINE",
"455 119 LINE",
"437 168 LINE",
"432 188 LINE",
"429 194 LINE",
"428 234 LINE",
"426 287 LINE",
"422 344 LINE",
"412 393 LINE",
"396 424 LINE",
"375 424 LINE",
"361 414 LINE",
"355 403 LINE",
"355 395 LINE",
"356 350 LINE",
"356 299 LINE",
"355 253 LINE",
"355 227 LINE",
"327 176 LINE",
"287 128 LINE",
"242 94 LINE",
"197 94 LINE",
"151 123 LINE",
"116 170 LINE",
"91 229 LINE",
"74 290 LINE",
"65 346 LINE",
"65 369 LINE",
"68 385 LINE",
"70 402 LINE",
"73 419 LINE",
"74 423 LINE",
"82 453 LINE",
"60 478 LINE",
"30 461 LINE",
"9 401 LINE",
"17 349 LINE",
"17 321 LINE",
"27 254 LINE",
"48 185 LINE",
"80 118 LINE",
"124 67 LINE",
"181 36 LINE",
"247 36 LINE",
"287 60 LINE",
"320 93 LINE",
"353 129 LINE",
"375 142 LINE",
"391 133 LINE",
"407 105 LINE",
"416 74 LINE",
"420 45 LINE",
"427 21 LINE",
"441 5 LINE"
);
}
);
width = 502;
}
);
},
{
glyphname = fi;
lastChange = "2016-08-24 10:04:02 +0000";
layers = (
{
layerId = UUID0;
paths = (
{
closed = 1;
nodes = (
"411 -21 LINE",
"428 7 LINE",
"428 71 LINE",
"411 165 LINE",
"392 257 LINE",
"378 352 LINE",
"381 402 LINE",
"375 413 LINE",
"361 423 LINE",
"329 423 LINE",
"333 393 LINE",
"333 367 LINE",
"332 344 LINE",
"332 311 LINE",
"329 311 LINE",
"281 313 LINE",
"218 319 LINE",
"180 324 LINE",
"162 327 LINE",
"160 329 LINE",
"142 469 LINE",
"142 510 LINE",
"162 570 LINE",
"201 619 LINE",
"256 648 LINE",
"313 648 LINE",
"350 619 LINE",
"382 583 LINE",
"414 554 LINE",
"455 554 LINE",
"455 581 LINE",
"420 634 LINE",
"366 678 LINE",
"304 704 LINE",
"230 704 LINE",
"165 663 LINE",
"124 597 LINE",
"101 514 LINE",
"92 428 LINE",
"93 348 LINE",
"95 318 LINE",
"48 314 LINE",
"15 307 LINE",
"-9 289 LINE",
"-9 265 LINE",
"-3 253 LINE",
"10 253 LINE",
"16 254 LINE",
"42 259 LINE",
"72 266 LINE",
"99 271 LINE",
"104 272 LINE",
"114 262 LINE",
"117 255 LINE",
"132 224 LINE",
"150 185 LINE",
"170 142 LINE",
"188 104 LINE",
"204 73 LINE",
"208 65 LINE",
"212 58 LINE",
"227 35 LINE",
"245 14 LINE",
"267 -1 LINE",
"288 -1 LINE",
"303 7 LINE",
"303 47 LINE",
"268 102 LINE",
"227 160 LINE",
"192 225 LINE",
"192 262 LINE",
"230 254 LINE",
"295 253 LINE",
"326 259 LINE",
"334 262 LINE",
"335 238 LINE",
"337 210 LINE",
"340 173 LINE",
"350 91 LINE",
"362 23 LINE",
"382 -21 LINE"
);
},
{
closed = 1;
nodes = (
"338 518 LINE",
"353 520 LINE",
"352 541 LINE",
"336 564 LINE",
"313 583 LINE",
"307 582 LINE",
"296 582 LINE",
"282 575 LINE",
"282 548 LINE",
"288 530 LINE",
"299 521 LINE",
"317 518 LINE"
);
}
);
width = 552;
}
);
unicode = FB01;
},
{
glyphname = fl;
lastChange = "2016-08-24 10:04:02 +0000";
layers = (
{
layerId = UUID0;
paths = (
{
closed = 1;
nodes = (
"372 13 LINE",
"381 67 LINE",
"385 182 LINE",
"381 367 LINE",
"375 508 LINE",
"375 514 LINE",
"370 532 LINE",
"360 551 LINE",
"347 563 LINE",
"330 563 LINE",
"318 558 LINE",
"318 550 LINE",
"319 481 LINE",
"317 412 LINE",
"315 361 LINE",
"314 312 LINE",
"276 313 LINE",
"249 316 LINE",
"218 319 LINE",
"180 324 LINE",
"162 327 LINE",
"160 329 LINE",
"142 469 LINE",
"142 510 LINE",
"162 570 LINE",
"201 619 LINE",
"256 648 LINE",
"313 648 LINE",
"350 619 LINE",
"382 583 LINE",
"414 554 LINE",
"455 554 LINE",
"455 581 LINE",
"420 634 LINE",
"366 678 LINE",
"304 704 LINE",
"230 704 LINE",
"165 663 LINE",
"124 597 LINE",
"101 514 LINE",
"92 428 LINE",
"93 348 LINE",
"95 318 LINE",
"48 314 LINE",
"15 307 LINE",
"-9 289 LINE",
"-9 265 LINE",
"-3 253 LINE",
"10 253 LINE",
"16 254 LINE",
"42 259 LINE",
"72 266 LINE",
"99 271 LINE",
"104 272 LINE",
"114 262 LINE",
"117 255 LINE",
"132 224 LINE",
"150 185 LINE",
"170 142 LINE",
"188 104 LINE",
"204 73 LINE",
"208 65 LINE",
"212 58 LINE",
"227 35 LINE",
"245 14 LINE",
"267 -1 LINE",
"288 -1 LINE",
"303 7 LINE",
"303 47 LINE",
"268 102 LINE",
"227 160 LINE",
"192 225 LINE",
"192 262 LINE",
"230 254 LINE",
"263 253 LINE",
"294 253 LINE",
"314 257 LINE",
"314 197 LINE",
"317 137 LINE",
"320 68 LINE",
"330 -2 LINE",
"341 -4 LINE",
"358 -8 LINE"
);
}
);
width = 725;
}
);
unicode = FB02;
},
{
glyphname = zero;
lastChange = "2016-08-24 10:04:02 +0000";
layers = (
{
layerId = UUID0;
paths = (
{
closed = 1;
nodes = (
"275 -1 LINE",
"340 40 LINE",
"383 104 LINE",
"404 180 LINE",
"404 237 LINE",
"390 285 LINE",
"363 333 LINE",
"328 377 LINE",
"287 411 LINE",
"243 432 LINE",
"185 432 LINE",
"112 390 LINE",
"54 326 LINE",
"19 251 LINE",
"19 172 LINE",
"51 93 LINE",
"109 33 LINE",
"187 -1 LINE"
);
},
{
closed = 1;
nodes = (
"124 83 LINE",
"82 130 LINE",
"62 190 LINE",
"65 225 LINE",
"68 248 LINE",
"91 298 LINE",
"124 340 LINE",
"170 366 LINE",
"231 366 LINE",
"288 338 LINE",
"327 291 LINE",
"348 230 LINE",
"348 174 LINE",
"334 143 LINE",
"317 118 LINE",
"302 98 LINE",
"300 85 LINE",
"287 77 LINE",
"267 65 LINE",
"248 59 LINE",
"229 56 LINE",
"183 56 LINE"
);
}
);
width = 432;
}
);
unicode = 0030;
},
{
glyphname = one;
lastChange = "2016-08-24 10:04:02 +0000";
layers = (
{
layerId = UUID0;
paths = (
{
closed = 1;
nodes = (
"213 -1 LINE",
"227 45 LINE",
"241 119 LINE",
"256 215 LINE",
"271 315 LINE",
"282 414 LINE",
"291 492 LINE",
"296 543 LINE",
"296 559 LINE",
"295 569 LINE",
"295 581 LINE",
"292 588 LINE",
"282 590 LINE",
"265 590 LINE",
"251 572 LINE",
"242 545 LINE",
"235 511 LINE",
"229 477 LINE",
"220 447 LINE",
"212 439 LINE",
"33 252 LINE",
"31 250 LINE",
"26 243 LINE",
"21 234 LINE",
"16 227 LINE",
"14 224 LINE",
"14 194 LINE",
"46 194 LINE",
"71 212 LINE",
"98 238 LINE",
"127 271 LINE",
"150 300 LINE",
"170 323 LINE",
"174 326 LINE",
"183 324 LINE",
"190 315 LINE",
"193 306 LINE",
"193 277 LINE",
"191 241 LINE",
"188 194 LINE",
"184 145 LINE",
"180 99 LINE",
"178 62 LINE",
"178 41 LINE",
"179 30 LINE",
"179 19 LINE",
"185 7 LINE",
"197 -1 LINE"
);
}
);
width = 318;
}
);
unicode = 0031;
},
{
glyphname = two;
lastChange = "2016-08-24 10:04:02 +0000";
layers = (
{
layerId = UUID0;
paths = (
{
closed = 1;
nodes = (
"452 0 LINE",
"470 19 LINE",
"470 42 LINE",
"450 57 LINE",
"421 63 LINE",
"388 67 LINE",
"358 73 LINE",
"338 83 LINE",
"338 101 LINE",
"351 126 LINE",
"368 151 LINE",
"388 174 LINE",
"395 179 LINE",
"406 206 LINE",
"422 246 LINE",
"431 283 LINE",
"434 322 LINE",
"434 373 LINE",
"419 441 LINE",
"388 502 LINE",
"340 543 LINE",
"285 543 LINE",
"248 528 LINE",
"221 503 LINE",
"206 469 LINE",
"206 435 LINE",
"211 404 LINE",
"226 394 LINE",
"237 398 LINE",
"248 432 LINE",
"260 468 LINE",
"280 497 LINE",
"323 497 LINE",
"352 459 LINE",
"369 408 LINE",
"376 355 LINE",
"376 329 LINE",
"369 282 LINE",
"355 229 LINE",
"334 175 LINE",
"306 131 LINE",
"271 104 LINE",
"227 104 LINE",
"184 118 LINE",
"142 136 LINE",
"98 150 LINE",
"65 150 LINE",
"41 147 LINE",
"21 137 LINE",
"7 118 LINE",
"10 104 LINE",
"13 80 LINE",
"39 48 LINE",
"75 27 LINE",
"118 19 LINE",
"173 19 LINE",
"238 29 LINE",
"295 29 LINE",
"336 20 LINE",
"378 9 LINE",
"419 0 LINE"
);
}
);
width = 497;
}
);
unicode = 0032;
},
{
glyphname = three;
lastChange = "2016-08-24 10:04:02 +0000";
layers = (
{
layerId = UUID0;
paths = (
{
closed = 1;
nodes = (
"284 -1 LINE",
"336 13 LINE",
"378 39 LINE",
"404 83 LINE",
"404 146 LINE",
"380 204 LINE",
"338 253 LINE",
"283 289 LINE",
"253 300 LINE",
"253 301 LINE",
"252 304 LINE",
"252 320 LINE",
"279 341 LINE",
"312 363 LINE",
"338 391 LINE",
"338 432 LINE",
"323 473 LINE",
"296 505 LINE",
"258 525 LINE",
"85 525 LINE",
"65 520 LINE",
"48 508 LINE",
"36 492 LINE",
"36 460 LINE",
"63 438 LINE",
"85 438 LINE",
"85 466 LINE",
"112 473 LINE",
"148 478 LINE",
"186 479 LINE",
"205 479 LINE",
"237 476 LINE",
"268 465 LINE",
"291 446 LINE",
"291 413 LINE",
"266 385 LINE",
"227 364 LINE",
"180 349 LINE",
"134 338 LINE",
"95 331 LINE",
"85 329 LINE",
"82 326 LINE",
"67 313 LINE",
"65 310 LINE",
"65 308 LINE",
"64 306 LINE",
"64 291 LINE",
"106 276 LINE",
"169 262 LINE",
"243 244 LINE",
"306 210 LINE",
"348 157 LINE",
"348 98 LINE",
"330 74 LINE",
"303 61 LINE",
"268 56 LINE",
"204 56 LINE",
"136 91 LINE",
"89 134 LINE",
"60 169 LINE",
"36 169 LINE",
"19 147 LINE",
"19 122 LINE",
"68 77 LINE",
"138 28 LINE",
"190 6 LINE",
"234 1 LINE",
"259 -1 LINE"
);
}
);
width = 432;
}
);
unicode = 0033;
},
{
glyphname = four;
lastChange = "2016-08-24 10:04:02 +0000";
layers = (
{
layerId = UUID0;
paths = (
{
closed = 1;
nodes = (
"361 -2 LINE",
"385 25 LINE",
"385 67 LINE",
"379 113 LINE",
"371 160 LINE",
"364 207 LINE",
"364 251 LINE",
"373 300 LINE",
"385 352 LINE",
"394 400 LINE",
"394 435 LINE",
"379 449 LINE",
"354 449 LINE",
"343 417 LINE",
"320 369 LINE",
"288 313 LINE",
"244 265 LINE",
"190 232 LINE",
"133 232 LINE",
"98 260 LINE",
"75 301 LINE",
"64 350 LINE",
"64 398 LINE",
"83 454 LINE",
"104 508 LINE",
"123 561 LINE",
"123 586 LINE",
"124 595 LINE",
"107 603 LINE",
"86 602 LINE",
"67 592 LINE",
"65 581 LINE",
"54 549 LINE",
"36 497 LINE",
"24 448 LINE",
"19 396 LINE",
"19 336 LINE",
"32 265 LINE",
"64 202 LINE",
"116 159 LINE",
"154 159 LINE",
"173 156 LINE",
"211 167 LINE",
"248 187 LINE",
"282 209 LINE",
"296 217 LINE",
"305 217 LINE",
"312 185 LINE",
"313 136 LINE",
"313 79 LINE",
"317 30 LINE",
"329 -2 LINE"
);
}
);
width = 412;
}
);
unicode = 0034;
},
{
glyphname = five;
lastChange = "2016-08-24 10:04:02 +0000";
layers = (
{
layerId = UUID0;
paths = (
{
closed = 1;
nodes = (
"296 0 LINE",
"328 2 LINE",
"399 29 LINE",
"458 75 LINE",
"493 137 LINE",
"488 174 LINE",
"488 235 LINE",
"440 325 LINE",
"361 386 LINE",
"260 423 LINE",
"206 432 LINE",
"206 455 LINE",
"221 493 LINE",
"241 534 LINE",
"259 574 LINE",
"262 591 LINE",
"291 600 LINE",
"292 600 LINE",
"310 601 LINE",
"332 602 LINE",
"400 602 LINE",
"458 600 LINE",
"462 600 LINE",
"514 591 LINE",
"520 591 LINE",
"528 596 LINE",
"537 602 LINE",
"544 610 LINE",
"544 615 LINE",
"543 618 LINE",
"543 619 LINE",
"529 637 LINE",
"488 654 LINE",
"441 659 LINE",
"395 657 LINE",
"323 657 LINE",
"281 656 LINE",
"238 649 LINE",
"205 635 LINE",
"184 610 LINE",
"184 591 LINE",
"206 591 LINE",
"206 579 LINE",
"203 570 LINE",
"200 562 LINE",
"197 555 LINE",
"197 554 LINE",
"193 546 LINE",
"172 505 LINE",
"147 460 LINE",
"127 420 LINE",
"122 412 LINE",
"122 411 LINE",
"121 405 LINE",
"121 396 LINE",
"125 383 LINE",
"131 375 LINE",
"159 370 LINE",
"226 362 LINE",
"293 350 LINE",
"355 328 LINE",
"404 291 LINE",
"434 234 LINE",
"434 156 LINE",
"399 106 LINE",
"347 76 LINE",
"280 64 LINE",
"244 64 LINE",
"213 67 LINE",
"171 74 LINE",
"125 83 LINE",
"86 96 LINE",
"61 112 LINE",
"61 122 LINE",
"63 169 LINE",
"51 208 LINE",
"32 205 LINE",
"17 168 LINE",
"19 142 LINE",
"19 107 LINE",
"47 62 LINE",
"93 30 LINE",
"152 12 LINE",
"214 2 LINE",
"273 0 LINE"
);
}
);
width = 572;
}
);
unicode = 0035;
},
{
glyphname = six;
lastChange = "2016-08-24 10:04:02 +0000";
layers = (
{
layerId = UUID0;
paths = (
{
closed = 1;
nodes = (
"227 -1 LINE",
"307 17 LINE",
"372 56 LINE",
"413 118 LINE",
"413 203 LINE",
"386 267 LINE",
"339 313 LINE",
"273 338 LINE",
"186 338 LINE",
"155 334 LINE",
"124 326 LINE",
"104 318 LINE",
"104 343 LINE",
"127 391 LINE",
"165 440 LINE",
"214 486 LINE",
"265 522 LINE",
"314 543 LINE",
"338 543 LINE",
"342 542 LINE",
"373 522 LINE",
"387 514 LINE",
"396 514 LINE",
"404 522 LINE",
"410 534 LINE",
"413 548 LINE",
"413 566 LINE",
"396 584 LINE",
"373 596 LINE",
"347 601 LINE",
"338 600 LINE",
"297 596 LINE",
"218 556 LINE",
"146 494 LINE",
"86 416 LINE",
"42 332 LINE",
"19 245 LINE",
"19 168 LINE",
"37 94 LINE",
"77 35 LINE",
"142 -1 LINE"
);
},
{
closed = 1;
nodes = (
"147 68 LINE",
"78 127 LINE",
"65 188 LINE",
"63 214 LINE",
"91 253 LINE",
"142 279 LINE",
"208 292 LINE",
"261 292 LINE",
"300 270 LINE",
"334 234 LINE",
"356 193 LINE",
"356 143 LINE",
"328 100 LINE",
"283 74 LINE",
"229 64 LINE",
"201 64 LINE"
);
}
);
width = 440;
}
);
unicode = 0036;
},
{
glyphname = seven;
lastChange = "2016-08-24 10:04:02 +0000";
layers = (
{
layerId = UUID0;
paths = (
{
closed = 1;
nodes = (
"215 -1 LINE",
"231 7 LINE",
"235 19 LINE",
"281 235 LINE",
"292 236 LINE",
"307 236 LINE",
"326 229 LINE",
"346 221 LINE",
"365 215 LINE",
"388 215 LINE",
"395 234 LINE",
"395 264 LINE",
"371 282 LINE",
"338 289 LINE",
"303 288 LINE",
"291 288 LINE",
"291 330 LINE",
"301 412 LINE",
"301 479 LINE",
"300 501 LINE",
"300 525 LINE",
"270 522 LINE",
"193 524 LINE",
"119 527 LINE",
"55 532 LINE",
"36 534 LINE",
"23 514 LINE",
"34 490 LINE",
"68 479 LINE",
"119 477 LINE",
"174 479 LINE",
"244 479 LINE",
"245 452 LINE",
"247 411 LINE",
"246 373 LINE",
"240 338 LINE",
"235 318 LINE",
"233 315 LINE",
"230 306 LINE",
"228 297 LINE",
"225 291 LINE",
"212 287 LINE",
"177 287 LINE",
"137 288 LINE",
"101 287 LINE",
"77 277 LINE",
"71 256 LINE",
"82 237 LINE",
"111 237 LINE",
"182 231 LINE",
"214 231 LINE",
"214 177 LINE",
"192 82 LINE",
"179 28 LINE",
"183 18 LINE",
"194 -1 LINE"
);
}
);
width = 412;
}
);
unicode = 0037;
},
{
glyphname = eight;
lastChange = "2016-08-24 10:04:02 +0000";
layers = (
{
layerId = UUID0;
paths = (
{
closed = 1;
nodes = (
"288 -1 LINE",
"348 60 LINE",
"348 140 LINE",
"326 185 LINE",
"296 222 LINE",
"228 279 LINE",
"206 303 LINE",
"206 335 LINE",
"232 373 LINE",
"265 411 LINE",
"291 453 LINE",
"291 501 LINE",
"267 535 LINE",
"229 560 LINE",
"186 572 LINE",
"168 572 LINE",
"152 575 LINE",
"115 561 LINE",
"78 535 LINE",
"45 502 LINE",
"21 467 LINE",
"13 435 LINE",
"19 423 LINE",
"17 403 LINE",
"36 372 LINE",
"65 345 LINE",
"100 321 LINE",
"112 310 LINE",
"112 309 LINE",
"113 306 LINE",
"113 304 LINE",
"112 303 LINE",
"112 300 LINE",
"92 276 LINE",
"58 236 LINE",
"48 216 LINE",
"35 172 LINE",
"62 94 LINE",
"118 34 LINE",
"197 -1 LINE"
);
},
{
closed = 1;
nodes = (
"157 65 LINE",
"122 101 LINE",
"102 147 LINE",
"102 182 LINE",
"112 215 LINE",
"128 249 LINE",
"149 273 LINE",
"161 273 LINE",
"168 272 LINE",
"191 260 LINE",
"238 224 LINE",
"276 180 LINE",
"300 127 LINE",
"300 86 LINE",
"285 65 LINE",
"265 53 LINE",
"239 45 LINE",
"203 45 LINE"
);
},
{
closed = 1;
nodes = (
"144 351 LINE",
"112 367 LINE",
"83 391 LINE",
"63 417 LINE",
"65 432 LINE",
"71 443 LINE",
"91 472 LINE",
"116 496 LINE",
"148 512 LINE",
"168 512 LINE",
"196 511 LINE",
"227 490 LINE",
"235 464 LINE",
"227 436 LINE",
"217 427 LINE",
"217 420 LINE",
"199 396 LINE",
"176 371 LINE",
"154 351 LINE",
"150 347 LINE"
);
}
);
width = 375;
}
);
unicode = 0038;
},
{
glyphname = nine;
lastChange = "2016-08-24 10:04:02 +0000";
layers = (
{
layerId = UUID0;
paths = (
{
closed = 1;
nodes = (
"244 7 LINE",
"265 14 LINE",
"265 25 LINE",
"262 33 LINE",
"259 82 LINE",
"259 153 LINE",
"263 242 LINE",
"271 335 LINE",
"282 429 LINE",
"291 469 LINE",
"291 496 LINE",
"268 545 LINE",
"229 580 LINE",
"180 601 LINE",
"119 601 LINE",
"66 575 LINE",
"29 531 LINE",
"10 473 LINE",
"10 393 LINE",
"42 338 LINE",
"95 309 LINE",
"197 291 LINE",
"204 289 LINE",
"209 247 LINE",
"209 184 LINE",
"206 110 LINE",
"208 48 LINE",
"216 7 LINE"
);
},
{
closed = 1;
nodes = (
"98 364 LINE",
"76 394 LINE",
"65 431 LINE",
"65 495 LINE",
"112 555 LINE",
"168 555 LINE",
"191 546 LINE",
"212 533 LINE",
"227 516 LINE",
"227 502 LINE",
"215 462 LINE",
"201 413 LINE",
"188 367 LINE",
"188 355 LINE",
"180 348 LINE",
"159 346 LINE",
"129 346 LINE"
);
}
);
width = 301;
}
);
unicode = 0039;
},
{
glyphname = fraction;
lastChange = "2016-08-24 10:04:02 +0000";
layers = (
{
layerId = UUID0;
paths = (
{
closed = 1;
nodes = (
"46 0 LINE",
"77 54 LINE",
"115 144 LINE",
"159 260 LINE",
"203 385 LINE",
"243 509 LINE",
"273 613 LINE",
"291 690 LINE",
"291 711 LINE",
"292 725 LINE",
"289 738 LINE",
"281 748 LINE",
"272 750 LINE",
"260 745 LINE",
"244 713 LINE",
"234 674 LINE",
"229 633 LINE",
"226 619 LINE",
"65 179 LINE",
"60 168 LINE",
"41 130 LINE",
"22 87 LINE",
"10 46 LINE",
"10 22 LINE",
"25 0 LINE"
);
}
);
width = 310;
}
);
unicode = 2044;
},
{
glyphname = asterisk;
lastChange = "2016-08-24 10:04:02 +0000";
layers = (
{
layerId = UUID0;
paths = (
{
closed = 1;
nodes = (
"265 235 LINE",
"282 278 LINE",
"281 300 LINE",
"283 298 LINE",
"294 290 LINE",
"306 281 LINE",
"316 273 LINE",
"318 272 LINE",
"335 272 LINE",
"354 288 LINE",
"355 300 LINE",
"351 314 LINE",
"332 341 LINE",
"313 370 LINE",
"300 398 LINE",
"300 426 LINE",
"317 437 LINE",
"338 444 LINE",
"355 455 LINE",
"355 478 LINE",
"335 486 LINE",
"308 490 LINE",
"279 488 LINE",
"272 487 LINE",
"279 496 LINE",
"316 520 LINE",
"355 546 LINE",
"385 572 LINE",
"385 590 LINE",
"381 602 LINE",
"375 610 LINE",
"354 607 LINE",
"312 584 LINE",
"273 555 LINE",
"238 525 LINE",
"225 517 LINE",
"197 563 LINE",
"189 564 LINE",
"180 564 LINE",
"171 554 LINE",
"167 538 LINE",
"167 521 LINE",
"168 517 LINE",
"74 572 LINE",
"65 572 LINE",
"63 569 LINE",
"48 555 LINE",
"48 554 LINE",
"44 541 LINE",
"69 517 LINE",
"103 489 LINE",
"131 458 LINE",
"131 439 LINE",
"124 433 LINE",
"122 432 LINE",
"121 431 LINE",
"111 431 LINE",
"107 437 LINE",
"104 444 LINE",
"98 450 LINE",
"82 450 LINE",
"60 445 LINE",
"38 435 LINE",
"21 421 LINE",
"19 412 LINE",
"17 405 LINE",
"21 397 LINE",
"27 394 LINE",
"50 394 LINE",
"60 396 LINE",
"68 397 LINE",
"80 399 LINE",
"89 399 LINE",
"89 387 LINE",
"81 363 LINE",
"72 341 LINE",
"64 317 LINE",
"64 295 LINE",
"65 287 LINE",
"70 281 LINE",
"77 281 LINE",
"85 283 LINE",
"94 286 LINE",
"102 289 LINE",
"104 291 LINE",
"106 296 LINE",
"140 347 LINE",
"156 370 LINE",
"159 375 LINE",
"161 377 LINE",
"167 384 LINE",
"173 390 LINE",
"178 394 LINE",
"179 394 LINE",
"188 396 LINE",
"203 377 LINE",
"215 344 LINE",
"224 302 LINE",
"230 262 LINE",
"238 231 LINE",
"244 225 LINE"
);
}
);
width = 412;
}
);
unicode = 002A;
},
{
glyphname = backslash;
lastChange = "2016-08-24 10:04:02 +0000";
layers = (
{
layerId = UUID0;
paths = (
{
closed = 1;
nodes = (
"397 8 LINE",
"408 22 LINE",
"414 39 LINE",
"414 63 LINE",
"382 122 LINE",
"328 199 LINE",
"259 285 LINE",
"188 370 LINE",
"118 449 LINE",
"64 508 LINE",
"30 544 LINE",
"22 544 LINE",
"10 537 LINE",
"10 515 LINE",
"29 473 LINE",
"56 432 LINE",
"80 399 LINE",
"85 394 LINE",
"94 382 LINE",
"132 334 LINE",
"232 205 LINE",
"319 96 LINE",
"329 85 LINE",
"337 74 LINE",
"345 22 LINE",
"358 4 LINE",
"376 0 LINE",
"384 -2 LINE"
);
}
);
width = 432;
}
);
unicode = 005C;
},
{
glyphname = periodcentered;
lastChange = "2016-08-24 10:04:02 +0000";
layers = (
{
layerId = UUID0;
paths = (
{
closed = 1;
nodes = (
"115 176 LINE",
"140 187 LINE",
"159 202 LINE",
"171 220 LINE",
"171 236 LINE",
"162 259 LINE",
"145 278 LINE",
"117 291 LINE",
"93 291 LINE",
"76 276 LINE",
"60 257 LINE",
"48 237 LINE",
"48 226 LINE",
"56 206 LINE",
"70 188 LINE",
"91 176 LINE"
);
}
);
width = 213;
}
);
unicode = 00B7;
},
{
glyphname = bullet;
lastChange = "2016-08-24 10:04:02 +0000";
layers = (
{
layerId = UUID0;
paths = (
{
closed = 1;
nodes = (
"200 163 LINE",
"234 181 LINE",
"262 206 LINE",
"279 235 LINE",
"279 264 LINE",
"267 301 LINE",
"241 333 LINE",
"203 354 LINE",
"169 354 LINE",
"145 330 LINE",
"121 298 LINE",
"104 267 LINE",
"104 247 LINE",
"115 215 LINE",
"136 185 LINE",
"165 163 LINE"
);
}
);
width = 342;
}
);
unicode = 2022;
},
{
glyphname = colon;
lastChange = "2016-08-24 10:04:02 +0000";
layers = (
{
layerId = UUID0;
paths = (
{
closed = 1;
nodes = (
"57 262 LINE",
"74 279 LINE",
"74 281 LINE",
"77 290 LINE",
"70 310 LINE",
"59 326 LINE",
"42 338 LINE",
"22 338 LINE",
"19 322 LINE",
"19 308 LINE",
"22 290 LINE",
"31 273 LINE",
"44 262 LINE"
);
},
{
closed = 1;
nodes = (
"56 74 LINE",
"66 84 LINE",
"66 109 LINE",
"60 123 LINE",
"37 123 LINE",
"19 109 LINE",
"19 74 LINE"
);
}
);
width = 85;
}
);
unicode = 003A;
},
{
glyphname = comma;
lastChange = "2016-08-24 10:04:02 +0000";
layers = (
{
layerId = UUID0;
paths = (
{
closed = 1;
nodes = (
"39 -189 LINE",
"57 -162 LINE",
"71 -119 LINE",
"83 -66 LINE",
"91 -18 LINE",
"95 21 LINE",
"95 40 LINE",
"97 78 LINE",
"90 115 LINE",
"72 142 LINE",
"32 142 LINE",
"19 112 LINE",
"19 85 LINE",
"24 74 LINE",
"38 74 LINE",
"38 63 LINE",
"39 51 LINE",
"39 13 LINE",
"29 -35 LINE",
"19 -84 LINE",
"9 -131 LINE",
"9 -160 LINE",
"10 -172 LINE",
"14 -183 LINE",
"21 -189 LINE"
);
}
);
width = 131;
}
);
unicode = 002C;
},
{
glyphname = ellipsis;
lastChange = "2016-08-24 10:04:02 +0000";
layers = (
{
layerId = UUID0;
paths = (
{
closed = 1;
nodes = (
"117 0 LINE",
"143 18 LINE",
"163 43 LINE",
"177 71 LINE",
"177 100 LINE",
"167 137 LINE",
"148 168 LINE",
"119 188 LINE",
"93 188 LINE",
"74 165 LINE",
"57 133 LINE",
"44 102 LINE",
"44 83 LINE",
"52 51 LINE",
"68 21 LINE",
"90 0 LINE"
);
},
{
closed = 1;
nodes = (
"321 0 LINE",
"347 18 LINE",
"367 43 LINE",
"380 71 LINE",
"380 100 LINE",
"370 137 LINE",
"353 168 LINE",
"323 188 LINE",
"297 188 LINE",
"278 165 LINE",
"261 133 LINE",
"248 102 LINE",
"248 83 LINE",
"256 51 LINE",
"272 21 LINE",
"294 0 LINE"
);
},
{
closed = 1;
nodes = (
"525 0 LINE",
"551 18 LINE",
"571 43 LINE",
"584 71 LINE",
"584 100 LINE",
"575 137 LINE",
"557 168 LINE",
"527 188 LINE",
"501 188 LINE",
"481 165 LINE",
"464 133 LINE",
"452 102 LINE",
"452 83 LINE",
"460 51 LINE",
"476 21 LINE",
"498 0 LINE"
);
}
);
width = 612;
}
);
unicode = 2026;
},
{
glyphname = exclam;
lastChange = "2016-08-24 10:04:02 +0000";
layers = (
{
layerId = UUID0;
paths = (
{
closed = 1;
nodes = (
"83 256 LINE",
"93 269 LINE",
"96 288 LINE",
"95 309 LINE",
"95 334 LINE",
"94 349 LINE",
"94 361 LINE",
"93 373 LINE",
"92 427 LINE",
"90 497 LINE",
"89 578 LINE",
"88 658 LINE",
"87 732 LINE",
"86 789 LINE",
"85 824 LINE",
"37 815 LINE",
"39 790 LINE",
"39 599 LINE",
"38 484 LINE",
"39 380 LINE",
"42 293 LINE",
"46 268 LINE",
"49 257 LINE",
"64 256 LINE"
);
},
{
closed = 1;
nodes = (
"69 -1 LINE",
"95 6 LINE",
"116 19 LINE",
"132 36 LINE",
"132 57 LINE",
"127 75 LINE",
"115 92 LINE",
"100 104 LINE",
"60 104 LINE",
"16 77 LINE",
"16 24 LINE",
"36 -1 LINE"
);
}
);
width = 150;
}
);
unicode = 0021;
},
{
glyphname = numbersign;
lastChange = "2016-08-24 10:04:02 +0000";
layers = (
{
layerId = UUID0;
paths = (
{
closed = 1;
nodes = (
"496 -1 LINE",
"497 0 LINE",
"500 2 LINE",
"512 13 LINE",
"533 36 LINE",
"534 37 LINE",
"534 42 LINE",
"535 44 LINE",
"535 68 LINE",
"524 112 LINE",
"524 138 LINE",
"525 147 LINE",
"525 168 LINE",
"528 168 LINE",
"554 174 LINE",
"586 182 LINE",
"616 188 LINE",
"631 188 LINE",
"656 185 LINE",
"685 182 LINE",
"710 179 LINE",
"742 179 LINE",
"742 217 LINE",
"725 237 LINE",
"698 245 LINE",
"664 244 LINE",
"603 244 LINE",
"546 238 LINE",
"525 235 LINE",
"517 244 LINE",
"517 310 LINE",
"533 311 LINE",
"549 313 LINE",
"562 314 LINE",
"590 317 LINE",
"601 318 LINE",
"610 318 LINE",
"613 317 LINE",
"644 313 LINE",
"655 310 LINE",
"657 310 LINE",
"657 309 LINE",
"675 300 LINE",
"679 300 LINE",
"688 305 LINE",
"698 312 LINE",
"704 319 LINE",
"704 329 LINE",
"700 333 LINE",
"688 346 LINE",
"676 357 LINE",
"666 366 LINE",
"502 366 LINE",
"490 398 LINE",
"479 440 LINE",
"470 480 LINE",
"470 487 LINE",
"468 487 LINE",
"461 488 LINE",
"445 488 LINE",
"432 463 LINE",
"432 440 LINE",
"438 422 LINE",
"445 402 LINE",
"451 384 LINE",
"451 368 LINE",
"441 358 LINE",
"429 350 LINE",
"414 346 LINE",
"394 346 LINE",
"373 350 LINE",
"356 355 LINE",
"346 405 LINE",
"340 441 LINE",
"336 477 LINE",
"336 492 LINE",
"332 492 LINE",
"319 487 LINE",
"309 481 LINE",
"301 473 LINE",
"301 332 LINE",
"258 323 LINE",
"192 313 LINE",
"117 300 LINE",
"52 280 LINE",
"9 254 LINE",
"9 223 LINE",
"21 215 LINE",
"58 215 LINE",
"115 232 LINE",
"177 256 LINE",
"241 273 LINE",
"293 273 LINE",
"300 272 LINE",
"301 272 LINE",
"310 262 LINE",
"310 196 LINE",
"301 194 LINE",
"289 191 LINE",
"276 188 LINE",
"272 188 LINE",
"225 180 LINE",
"133 161 LINE",
"85 150 LINE",
"85 149 LINE",
"84 143 LINE",
"84 131 LINE",
"97 112 LINE",
"113 112 LINE",
"118 113 LINE",
"146 118 LINE",
"186 124 LINE",
"229 130 LINE",
"268 136 LINE",
"297 141 LINE",
"301 142 LINE",
"320 142 LINE",
"327 128 LINE",
"330 106 LINE",
"330 83 LINE",
"335 62 LINE",
"345 48 LINE",
"358 48 LINE",
"373 54 LINE",
"377 58 LINE",
"385 64 LINE",
"385 150 LINE",
"450 168 LINE",
"460 159 LINE",
"463 156 LINE",
"467 131 LINE",
"470 95 LINE",
"475 56 LINE",
"480 21 LINE",
"487 -1 LINE"
);
},
{
closed = 1;
nodes = (
"374 209 LINE",
"368 243 LINE",
"366 259 LINE",
"366 264 LINE",
"373 278 LINE",
"376 281 LINE",
"377 283 LINE",
"384 291 LINE",
"452 291 LINE",
"459 276 LINE",
"460 272 LINE",
"460 271 LINE",
"461 265 LINE",
"461 256 LINE",
"462 246 LINE",
"462 241 LINE",
"461 235 LINE",
"461 232 LINE",
"460 229 LINE",
"460 225 LINE",
"376 206 LINE"
);
}
);
width = 769;
}
);
unicode = 0023;
},
{
glyphname = period;
lastChange = "2016-08-24 10:04:02 +0000";
layers = (
{
layerId = UUID0;
paths = (
{
closed = 1;
nodes = (
"117 0 LINE",
"143 18 LINE",
"163 43 LINE",
"177 71 LINE",
"177 100 LINE",
"167 137 LINE",
"148 168 LINE",
"119 188 LINE",
"93 188 LINE",
"74 165 LINE",
"57 133 LINE",
"44 102 LINE",
"44 83 LINE",
"52 51 LINE",
"68 21 LINE",
"90 0 LINE"
);
}
);
width = 204;
}
);
unicode = 002E;
},
{
glyphname = question;
lastChange = "2016-08-24 10:04:02 +0000";
layers = (
{
layerId = UUID0;
paths = (
{
closed = 1;
nodes = (
"232 311 LINE",
"245 317 LINE",
"245 331 LINE",
"243 343 LINE",
"238 354 LINE",
"230 361 LINE",
"226 361 LINE",
"194 364 LINE",
"159 373 LINE",
"140 381 LINE",
"133 390 LINE",
"132 394 LINE",
"191 495 LINE",
"229 572 LINE",
"254 651 LINE",
"254 722 LINE",
"234 783 LINE",
"196 833 LINE",
"140 862 LINE",
"90 862 LINE",
"58 855 LINE",
"28 842 LINE",
"9 818 LINE",
"9 802 LINE",
"7 792 LINE",
"9 780 LINE",
"14 770 LINE",
"20 769 LINE",
"30 786 LINE",
"74 807 LINE",
"142 807 LINE",
"197 757 LINE",
"197 675 LINE",
"180 618 LINE",
"152 563 LINE",
"121 512 LINE",
"94 459 LINE",
"75 404 LINE",
"75 354 LINE",
"100 328 LINE",
"135 313 LINE",
"174 309 LINE",
"194 309 LINE",
"213 308 LINE"
);
},
{
closed = 1;
nodes = (
"230 0 LINE",
"245 21 LINE",
"245 47 LINE",
"232 75 LINE",
"199 75 LINE",
"178 55 LINE",
"178 21 LINE",
"197 0 LINE"
);
}
);
width = 272;
}
);
unicode = 003F;
},
{
glyphname = quotedbl;
lastChange = "2016-08-24 10:04:02 +0000";
layers = (
{
layerId = UUID0;
paths = (
{
closed = 1;
nodes = (
"95 505 LINE",
"107 514 LINE",
"113 525 LINE",
"106 539 LINE",
"94 586 LINE",
"81 640 LINE",
"68 695 LINE",
"55 741 LINE",
"39 770 LINE",
"23 770 LINE",
"13 768 LINE",
"10 760 LINE",
"10 748 LINE",
"14 702 LINE",
"21 646 LINE",
"33 586 LINE",
"50 537 LINE",
"71 505 LINE"
);
},
{
closed = 1;
nodes = (
"188 487 LINE",
"191 489 LINE",
"206 503 LINE",
"207 506 LINE",
"207 543 LINE",
"206 584 LINE",
"203 642 LINE",
"197 707 LINE",
"186 762 LINE",
"168 798 LINE",
"150 798 LINE",
"149 796 LINE",
"142 789 LINE",
"142 722 LINE",
"143 673 LINE",
"145 623 LINE",
"148 568 LINE",
"150 534 LINE",
"150 533 LINE",
"156 519 LINE",
"165 501 LINE",
"177 487 LINE"
);
}
);
width = 235;
}
);
unicode = 0022;
},
{
glyphname = quotesingle;
lastChange = "2016-08-24 10:04:02 +0000";
layers = (
{
layerId = UUID0;
paths = (
{
closed = 1;
nodes = (
"81 487 LINE",
"86 505 LINE",
"86 530 LINE",
"85 567 LINE",
"81 610 LINE",
"75 657 LINE",
"64 695 LINE",
"48 725 LINE",
"37 730 LINE",
"30 725 LINE",
"23 717 LINE",
"20 710 LINE",
"19 701 LINE",
"19 660 LINE",
"21 613 LINE",
"26 561 LINE",
"36 517 LINE",
"54 487 LINE"
);
}
);
width = 104;
}
);
unicode = 0027;
},
{
glyphname = semicolon;
lastChange = "2016-08-24 10:04:02 +0000";
layers = (
{
layerId = UUID0;
paths = (
{
closed = 1;
nodes = (
"16 -184 LINE",
"45 -156 LINE",
"67 -111 LINE",
"86 -56 LINE",
"98 0 LINE",
"104 51 LINE",
"104 87 LINE",
"95 129 LINE",
"74 142 LINE",
"63 133 LINE",
"53 102 LINE",
"49 68 LINE",
"49 38 LINE",
"48 28 LINE",
"42 -2 LINE",
"21 -43 LINE",
"1 -80 LINE",
"-15 -122 LINE",
"-15 -158 LINE",
"-16 -169 LINE",
"-14 -178 LINE",
"-7 -184 LINE"
);
},
{
closed = 1;
nodes = (
"61 300 LINE",
"66 303 LINE",
"78 313 LINE",
"85 329 LINE",
"83 355 LINE",
"74 375 LINE",
"78 377 LINE",
"62 387 LINE",
"39 392 LINE",
"19 387 LINE",
"19 375 LINE",
"17 361 LINE",
"20 335 LINE",
"29 314 LINE",
"48 300 LINE"
);
}
);
width = 130;
}
);
unicode = 003B;
},
{
glyphname = slash;
lastChange = "2016-08-24 10:04:02 +0000";
layers = (
{
layerId = UUID0;
paths = (
{
closed = 1;
nodes = (
"46 0 LINE",
"77 54 LINE",
"115 144 LINE",
"159 260 LINE",
"203 385 LINE",
"243 509 LINE",
"273 613 LINE",
"291 690 LINE",
"291 711 LINE",
"292 725 LINE",
"289 738 LINE",
"281 748 LINE",
"272 750 LINE",
"260 745 LINE",
"244 713 LINE",
"234 674 LINE",
"229 633 LINE",
"226 619 LINE",
"65 179 LINE",
"60 168 LINE",
"41 130 LINE",
"22 87 LINE",
"10 46 LINE",
"10 22 LINE",
"25 0 LINE"
);
}
);
width = 310;
}
);
unicode = 002F;
},
{
glyphname = underscore;
lastChange = "2016-08-24 10:04:02 +0000";
layers = (
{
layerId = UUID0;
paths = (
{
closed = 1;
nodes = (
"626 0 LINE",
"639 19 LINE",
"639 40 LINE",
"629 58 LINE",
"613 68 LINE",
"593 74 LINE",
"398 74 LINE",
"370 76 LINE",
"288 80 LINE",
"221 85 LINE",
"207 85 LINE",
"172 89 LINE",
"101 104 LINE",
"51 104 LINE",
"27 101 LINE",
"27 76 LINE",
"67 60 LINE",
"135 44 LINE",
"223 30 LINE",
"320 19 LINE",
"422 10 LINE",
"514 4 LINE",
"591 0 LINE"
);
}
);
width = 656;
}
);
unicode = 005F;
},
{
glyphname = braceleft;
lastChange = "2016-08-24 10:04:02 +0000";
layers = (
{
layerId = UUID0;
paths = (
{
closed = 1;
nodes = (
"211 -95 LINE",
"220 -95 LINE",
"254 -94 LINE",
"296 -90 LINE",
"339 -82 LINE",
"374 -67 LINE",
"396 -45 LINE",
"396 -28 LINE",
"359 -28 LINE",
"253 -46 LINE",
"224 -46 LINE",
"184 -32 LINE",
"150 -8 LINE",
"124 27 LINE",
"112 48 LINE",
"112 90 LINE",
"146 140 LINE",
"196 183 LINE",
"255 220 LINE",
"305 262 LINE",
"338 313 LINE",
"338 365 LINE",
"322 394 LINE",
"306 421 LINE",
"294 450 LINE",
"300 469 LINE",
"279 480 LINE",
"229 501 LINE",
"177 522 LINE",
"127 548 LINE",
"88 581 LINE",
"64 626 LINE",
"64 656 LINE",
"74 695 LINE",
"112 761 LINE",
"166 811 LINE",
"235 841 LINE",
"277 845 LINE",
"291 845 LINE",
"313 829 LINE",
"331 811 LINE",
"346 795 LINE",
"361 795 LINE",
"367 816 LINE",
"367 842 LINE",
"350 868 LINE",
"323 885 LINE",
"291 892 LINE",
"236 892 LINE",
"146 858 LINE",
"68 800 LINE",
"19 722 LINE",
"19 643 LINE",
"39 571 LINE",
"80 511 LINE",
"140 467 LINE",
"179 460 LINE",
"174 441 LINE",
"139 409 LINE",
"96 383 LINE",
"51 362 LINE",
"37 355 LINE",
"37 354 LINE",
"36 344 LINE",
"36 330 LINE",
"44 317 LINE",
"58 317 LINE",
"64 318 LINE",
"65 318 LINE",
"77 325 LINE",
"124 351 LINE",
"177 376 LINE",
"229 394 LINE",
"255 394 LINE",
"271 386 LINE",
"272 385 LINE",
"272 375 LINE",
"273 366 LINE",
"273 324 LINE",
"242 276 LINE",
"195 237 LINE",
"142 200 LINE",
"95 158 LINE",
"64 106 LINE",
"64 42 LINE",
"84 -22 LINE",
"121 -73 LINE",
"176 -102 LINE"
);
}
);
width = 394;
}
);
unicode = 007B;
},
{
glyphname = braceright;
lastChange = "2016-08-24 10:04:02 +0000";
layers = (
{
layerId = UUID0;
paths = (
{
closed = 1;
nodes = (
"206 -226 LINE",
"250 -226 LINE",
"326 -201 LINE",
"383 -151 LINE",
"414 -78 LINE",
"414 7 LINE",
"396 73 LINE",
"365 136 LINE",
"328 194 LINE",
"310 225 LINE",
"304 233 LINE",
"278 265 LINE",
"247 300 LINE",
"212 336 LINE",
"186 368 LINE",
"168 391 LINE",
"168 394 LINE",
"172 412 LINE",
"199 429 LINE",
"216 432 LINE",
"224 432 LINE",
"303 438 LINE",
"339 440 LINE",
"347 440 LINE",
"355 442 LINE",
"356 459 LINE",
"356 476 LINE",
"352 491 LINE",
"338 497 LINE",
"331 496 LINE",
"231 496 LINE",
"225 497 LINE",
"214 498 LINE",
"192 499 LINE",
"177 505 LINE",
"168 518 LINE",
"168 552 LINE",
"197 592 LINE",
"241 629 LINE",
"293 667 LINE",
"337 710 LINE",
"366 760 LINE",
"366 818 LINE",
"349 865 LINE",
"318 900 LINE",
"277 929 LINE",
"253 938 LINE",
"162 938 LINE",
"133 940 LINE",
"97 941 LINE",
"60 938 LINE",
"27 930 LINE",
"8 912 LINE",
"8 862 LINE",
"49 824 LINE",
"97 824 LINE",
"113 829 LINE",
"113 856 LINE",
"100 862 LINE",
"80 863 LINE",
"62 868 LINE",
"57 881 LINE",
"68 880 LINE",
"92 883 LINE",
"114 888 LINE",
"137 892 LINE",
"174 892 LINE",
"227 888 LINE",
"271 870 LINE",
"301 836 LINE",
"301 786 LINE",
"300 769 LINE",
"295 754 LINE",
"131 591 LINE",
"117 576 LINE",
"112 548 LINE",
"112 520 LINE",
"118 500 LINE",
"125 482 LINE",
"131 464 LINE",
"131 440 LINE",
"121 417 LINE",
"121 367 LINE",
"146 323 LINE",
"183 289 LINE",
"227 256 LINE",
"244 235 LINE",
"253 223 LINE",
"279 186 LINE",
"307 140 LINE",
"333 91 LINE",
"354 42 LINE",
"366 -2 LINE",
"366 -58 LINE",
"330 -123 LINE",
"272 -167 LINE",
"197 -187 LINE",
"159 -178 LINE",
"158 -178 LINE",
"136 -167 LINE",
"105 -151 LINE",
"74 -137 LINE",
"65 -131 LINE",
"60 -128 LINE",
"51 -112 LINE",
"44 -96 LINE",
"33 -84 LINE",
"20 -84 LINE",
"11 -90 LINE",
"4 -100 LINE",
"0 -110 LINE",
"0 -113 LINE",
"7 -149 LINE",
"52 -196 LINE",
"112 -222 LINE",
"178 -229 LINE"
);
}
);
width = 440;
}
);
unicode = 007D;
},
{
glyphname = bracketleft;
lastChange = "2016-08-24 10:04:02 +0000";
layers = (
{
layerId = UUID0;
paths = (
{
closed = 1;
nodes = (
"150 -94 LINE",
"159 -92 LINE",
"169 -88 LINE",
"177 -85 LINE",
"179 -84 LINE",
"181 -84 LINE",
"191 -81 LINE",
"203 -78 LINE",
"214 -75 LINE",
"216 -75 LINE",
"244 -69 LINE",
"326 -64 LINE",
"414 -63 LINE",
"496 -64 LINE",
"525 -65 LINE",
"528 -64 LINE",
"542 -58 LINE",
"543 -57 LINE",
"543 -55 LINE",
"544 -54 LINE",
"544 -40 LINE",
"525 -17 LINE",
"517 -9 LINE",
"485 -9 LINE",
"457 -8 LINE",
"370 -8 LINE",
"258 -20 LINE",
"188 -20 LINE",
"176 25 LINE",
"162 130 LINE",
"142 303 LINE",
"122 432 LINE",
"115 440 LINE",
"103 478 LINE",
"92 517 LINE",
"86 554 LINE",
"86 563 LINE",
"94 563 LINE",
"134 579 LINE",
"225 609 LINE",
"317 635 LINE",
"408 657 LINE",
"449 666 LINE",
"451 666 LINE",
"458 674 LINE",
"460 675 LINE",
"460 685 LINE",
"458 688 LINE",
"451 702 LINE",
"449 704 LINE",
"399 704 LINE",
"291 684 LINE",
"183 653 LINE",
"80 616 LINE",
"37 600 LINE",
"29 595 LINE",
"19 577 LINE",
"19 563 LINE",
"74 366 LINE",
"74 354 LINE",
"77 347 LINE",
"81 338 LINE",
"84 329 LINE",
"85 329 LINE",
"87 316 LINE",
"94 276 LINE",
"102 229 LINE",
"109 181 LINE",
"116 139 LINE",
"121 108 LINE",
"122 104 LINE",
"122 99 LINE",
"124 74 LINE",
"126 42 LINE",
"127 5 LINE",
"130 -28 LINE",
"130 -53 LINE",
"131 -57 LINE",
"131 -60 LINE",
"139 -81 LINE",
"142 -84 LINE",
"143 -87 LINE",
"149 -94 LINE"
);
}
);
width = 479;
}
);
unicode = 005B;
},
{
glyphname = bracketright;
lastChange = "2016-08-24 10:04:02 +0000";
layers = (
{
layerId = UUID0;
paths = (
{
closed = 1;
nodes = (
"373 -94 LINE",
"389 -90 LINE",
"402 -82 LINE",
"413 -71 LINE",
"413 -46 LINE",
"411 -27 LINE",
"408 42 LINE",
"402 133 LINE",
"396 237 LINE",
"391 345 LINE",
"385 449 LINE",
"380 540 LINE",
"376 609 LINE",
"376 628 LINE",
"369 659 LINE",
"358 717 LINE",
"337 766 LINE",
"297 800 LINE",
"263 807 LINE",
"256 807 LINE",
"162 821 LINE",
"103 829 LINE",
"51 830 LINE",
"13 821 LINE",
"9 811 LINE",
"9 799 LINE",
"42 783 LINE",
"94 770 LINE",
"218 750 LINE",
"269 738 LINE",
"282 730 LINE",
"303 689 LINE",
"329 575 LINE",
"344 444 LINE",
"349 305 LINE",
"350 170 LINE",
"347 47 LINE",
"347 -6 LINE",
"346 -20 LINE",
"85 -20 LINE",
"65 -28 LINE",
"65 -29 LINE",
"64 -43 LINE",
"64 -67 LINE",
"77 -94 LINE"
);
}
);
width = 432;
}
);
unicode = 005D;
},
{
glyphname = parenleft;
lastChange = "2016-08-24 10:04:02 +0000";
layers = (
{
layerId = UUID0;
paths = (
{
closed = 1;
nodes = (
"262 -35 LINE",
"282 -22 LINE",
"282 -3 LINE",
"279 7 LINE",
"272 10 LINE",
"232 15 LINE",
"161 31 LINE",
"106 66 LINE",
"74 126 LINE",
"74 202 LINE",
"95 277 LINE",
"133 356 LINE",
"184 432 LINE",
"244 490 LINE",
"310 525 LINE",
"351 525 LINE",
"361 520 LINE",
"372 512 LINE",
"382 505 LINE",
"398 505 LINE",
"404 528 LINE",
"404 544 LINE",
"393 561 LINE",
"376 574 LINE",
"355 582 LINE",
"313 582 LINE",
"238 542 LINE",
"165 477 LINE",
"100 394 LINE",
"49 306 LINE",
"19 224 LINE",
"19 150 LINE",
"42 68 LINE",
"87 3 LINE",
"156 -38 LINE",
"209 -38 LINE",
"235 -40 LINE"
);
}
);
width = 423;
}
);
unicode = 0028;
},
{
glyphname = parenright;
lastChange = "2016-08-24 10:04:02 +0000";
layers = (
{
layerId = UUID0;
paths = (
{
closed = 1;
nodes = (
"58 -58 LINE",
"113 -17 LINE",
"167 50 LINE",
"215 133 LINE",
"252 214 LINE",
"273 286 LINE",
"273 333 LINE",
"261 394 LINE",
"236 456 LINE",
"201 517 LINE",
"157 563 LINE",
"105 592 LINE",
"63 592 LINE",
"46 587 LINE",
"46 565 LINE",
"54 552 LINE",
"64 543 LINE",
"78 540 LINE",
"85 543 LINE",
"111 520 LINE",
"159 466 LINE",
"195 404 LINE",
"217 337 LINE",
"217 262 LINE",
"186 188 LINE",
"140 122 LINE",
"86 65 LINE",
"39 20 LINE",
"9 -12 LINE",
"9 -23 LINE",
"12 -37 LINE",
"19 -49 LINE",
"27 -58 LINE"
);
}
);
width = 291;
}
);
unicode = 0029;
},
{
glyphname = emdash;
lastChange = "2016-08-24 10:04:02 +0000";
layers = (
{
layerId = UUID0;
paths = (
{
closed = 1;
nodes = (
"33 241 LINE",
"161 248 LINE",
"304 258 LINE",
"361 261 LINE",
"403 261 LINE",
"440 250 LINE",
"479 250 LINE",
"479 288 LINE",
"462 307 LINE",
"435 315 LINE",
"402 317 LINE",
"385 317 LINE",
"367 316 LINE",
"350 314 LINE",
"283 314 LINE",
"205 313 LINE",
"124 307 LINE",
"57 292 LINE",
"15 264 LINE",
"15 241 LINE"
);
}
);
width = 513;
}
);
unicode = 2014;
},
{
glyphname = endash;
lastChange = "2016-08-24 10:04:02 +0000";
layers = (
{
layerId = UUID0;
paths = (
{
closed = 1;
nodes = (
"43 241 LINE",
"79 247 LINE",
"110 255 LINE",
"146 262 LINE",
"197 262 LINE",
"233 250 LINE",
"273 250 LINE",
"273 288 LINE",
"256 308 LINE",
"229 316 LINE",
"197 317 LINE",
"160 317 LINE",
"134 313 LINE",
"82 314 LINE",
"40 306 LINE",
"15 275 LINE",
"15 241 LINE"
);
}
);
width = 288;
}
);
unicode = 2013;
},
{
glyphname = hyphen;
lastChange = "2016-08-24 10:04:02 +0000";
layers = (
{
layerId = UUID0;
paths = (
{
closed = 1;
nodes = (
"43 241 LINE",
"99 247 LINE",
"155 256 LINE",
"211 263 LINE",
"262 263 LINE",
"298 252 LINE",
"338 252 LINE",
"338 290 LINE",
"320 309 LINE",
"293 317 LINE",
"262 319 LINE",
"238 319 LINE",
"230 318 LINE",
"225 318 LINE",
"207 316 LINE",
"115 314 LINE",
"71 309 LINE",
"36 292 LINE",
"15 265 LINE",
"15 241 LINE"
);
}
);
width = 375;
}
);
unicode = 002D;
},
{
glyphname = hyphen_;
lastChange = "2016-08-24 10:04:02 +0000";
layers = (
{
layerId = UUID0;
paths = (
{
closed = 1;
nodes = (
"43 241 LINE",
"99 247 LINE",
"155 256 LINE",
"211 263 LINE",
"262 263 LINE",
"298 252 LINE",
"338 252 LINE",
"338 290 LINE",
"320 309 LINE",
"293 317 LINE",
"262 319 LINE",
"238 319 LINE",
"230 318 LINE",
"225 318 LINE",
"207 316 LINE",
"115 314 LINE",
"71 309 LINE",
"36 292 LINE",
"15 265 LINE",
"15 241 LINE"
);
}
);
width = 375;
}
);
unicode = 00AD;
},
{
glyphname = guillemotleft;
lastChange = "2016-08-24 10:04:02 +0000";
layers = (
{
layerId = UUID0;
paths = (
{
closed = 1;
nodes = (
"663 63 LINE",
"663 106 LINE",
"625 132 LINE",
"573 147 LINE",
"522 155 LINE",
"511 157 LINE",
"507 157 LINE",
"480 161 LINE",
"403 174 LINE",
"368 183 LINE",
"344 190 LINE",
"342 194 LINE",
"359 215 LINE",
"404 250 LINE",
"452 282 LINE",
"521 326 LINE",
"524 329 LINE",
"593 375 LINE",
"637 405 LINE",
"675 430 LINE",
"698 447 LINE",
"698 448 LINE",
"696 450 LINE",
"689 458 LINE",
"681 467 LINE",
"672 475 LINE",
"670 476 LINE",
"646 466 LINE",
"588 435 LINE",
"566 420 LINE",
"549 407 LINE",
"498 372 LINE",
"442 333 LINE",
"388 294 LINE",
"344 264 LINE",
"314 243 LINE",
"314 242 LINE",
"248 177 LINE",
"237 165 LINE",
"250 147 LINE",
"284 133 LINE",
"337 121 LINE",
"396 111 LINE",
"484 101 LINE",
"551 94 LINE",
"558 92 LINE",
"567 90 LINE",
"597 75 LINE",
"607 71 LINE",
"628 63 LINE"
);
},
{
closed = 1;
nodes = (
"425 0 LINE",
"425 43 LINE",
"387 68 LINE",
"335 84 LINE",
"272 94 LINE",
"269 94 LINE",
"242 98 LINE",
"206 104 LINE",
"165 110 LINE",
"130 118 LINE",
"105 127 LINE",
"104 131 LINE",
"121 151 LINE",
"165 187 LINE",
"213 219 LINE",
"261 247 LINE",
"282 262 LINE",
"285 265 LINE",
"355 312 LINE",
"437 366 LINE",
"460 384 LINE",
"460 385 LINE",
"458 387 LINE",
"451 395 LINE",
"442 403 LINE",
"435 411 LINE",
"432 412 LINE",
"420 407 LINE",
"393 394 LINE",
"365 379 LINE",
"339 363 LINE",
"329 355 LINE",
"311 344 LINE",
"260 309 LINE",
"204 270 LINE",
"149 230 LINE",
"104 200 LINE",
"77 180 LINE",
"75 179 LINE",
"10 112 LINE",
"-2 102 LINE",
"11 84 LINE",
"45 69 LINE",
"98 57 LINE",
"158 48 LINE",
"220 40 LINE",
"312 30 LINE",
"319 28 LINE",
"329 26 LINE",
"349 17 LINE",
"369 7 LINE",
"389 0 LINE"
);
}
);
width = 756;
}
);
unicode = 00AB;
},
{
glyphname = guillemotright;
lastChange = "2016-08-24 10:04:02 +0000";
layers = (
{
layerId = UUID0;
paths = (
{
closed = 1;
nodes = (
"54 -1 LINE",
"95 26 LINE",
"152 67 LINE",
"220 115 LINE",
"323 192 LINE",
"329 197 LINE",
"340 209 LINE",
"366 231 LINE",
"388 256 LINE",
"399 285 LINE",
"396 303 LINE",
"396 314 LINE",
"391 332 LINE",
"376 338 LINE",
"319 346 LINE",
"202 385 LINE",
"150 403 LINE",
"136 408 LINE",
"114 429 LINE",
"95 446 LINE",
"72 461 LINE",
"46 461 LINE",
"27 453 LINE",
"27 439 LINE",
"28 432 LINE",
"33 417 LINE",
"66 388 LINE",
"115 358 LINE",
"174 333 LINE",
"231 313 LINE",
"283 301 LINE",
"301 300 LINE",
"318 294 LINE",
"314 268 LINE",
"285 232 LINE",
"233 191 LINE",
"175 150 LINE",
"113 108 LINE",
"63 71 LINE",
"30 42 LINE",
"27 33 LINE",
"27 21 LINE",
"34 -1 LINE"
);
},
{
closed = 1;
nodes = (
"276 23 LINE",
"317 51 LINE",
"442 140 LINE",
"502 184 LINE",
"546 217 LINE",
"552 221 LINE",
"563 232 LINE",
"589 256 LINE",
"610 280 LINE",
"622 309 LINE",
"618 326 LINE",
"618 338 LINE",
"613 355 LINE",
"599 361 LINE",
"542 370 LINE",
"425 408 LINE",
"373 428 LINE",
"358 433 LINE",
"337 452 LINE",
"317 471 LINE",
"295 484 LINE",
"269 484 LINE",
"250 477 LINE",
"250 464 LINE",
"251 456 LINE",
"251 455 LINE",
"256 441 LINE",
"290 411 LINE",
"338 383 LINE",
"396 356 LINE",
"454 337 LINE",
"506 324 LINE",
"523 323 LINE",
"547 314 LINE",
"527 275 LINE",
"468 224 LINE",
"309 112 LINE",
"253 69 LINE",
"250 58 LINE",
"250 44 LINE",
"257 23 LINE"
);
}
);
width = 660;
}
);
unicode = 00BB;
},
{
glyphname = guilsinglleft;
lastChange = "2016-08-24 10:04:02 +0000";
layers = (
{
layerId = UUID0;
paths = (
{
closed = 1;
nodes = (
"425 0 LINE",
"425 43 LINE",
"387 68 LINE",
"335 84 LINE",
"272 94 LINE",
"269 94 LINE",
"242 98 LINE",
"206 104 LINE",
"165 110 LINE",
"130 118 LINE",
"105 127 LINE",
"104 131 LINE",
"121 151 LINE",
"165 187 LINE",
"213 219 LINE",
"261 247 LINE",
"282 262 LINE",
"285 265 LINE",
"355 312 LINE",
"437 366 LINE",
"460 384 LINE",
"460 385 LINE",
"458 387 LINE",
"451 395 LINE",
"442 403 LINE",
"435 411 LINE",
"432 412 LINE",
"420 407 LINE",
"393 394 LINE",
"365 379 LINE",
"339 363 LINE",
"329 355 LINE",
"311 344 LINE",
"260 309 LINE",
"204 270 LINE",
"149 230 LINE",
"104 200 LINE",
"77 180 LINE",
"75 179 LINE",
"10 112 LINE",
"-2 102 LINE",
"11 84 LINE",
"45 69 LINE",
"98 57 LINE",
"158 48 LINE",
"220 40 LINE",
"312 30 LINE",
"319 28 LINE",
"329 26 LINE",
"349 17 LINE",
"369 7 LINE",
"389 0 LINE"
);
}
);
width = 487;
}
);
unicode = 2039;
},
{
glyphname = guilsinglright;
lastChange = "2016-08-24 10:04:02 +0000";
layers = (
{
layerId = UUID0;
paths = (
{
closed = 1;
nodes = (
"54 -1 LINE",
"95 26 LINE",
"152 67 LINE",
"220 115 LINE",
"323 192 LINE",
"329 197 LINE",
"340 209 LINE",
"366 231 LINE",
"388 256 LINE",
"399 285 LINE",
"396 303 LINE",
"396 314 LINE",
"391 332 LINE",
"376 338 LINE",
"319 346 LINE",
"202 385 LINE",
"150 403 LINE",
"136 408 LINE",
"114 429 LINE",
"95 446 LINE",
"72 461 LINE",
"46 461 LINE",
"27 453 LINE",
"27 439 LINE",
"28 432 LINE",
"33 417 LINE",
"66 388 LINE",
"115 358 LINE",
"174 333 LINE",
"231 313 LINE",
"283 301 LINE",
"301 300 LINE",
"318 294 LINE",
"314 268 LINE",
"285 232 LINE",
"233 191 LINE",
"175 150 LINE",
"113 108 LINE",
"63 71 LINE",
"30 42 LINE",
"27 33 LINE",
"27 21 LINE",
"34 -1 LINE"
);
}
);
width = 403;
}
);
unicode = 203A;
},
{
glyphname = quotedblbase;
lastChange = "2016-08-24 10:04:02 +0000";
layers = (
{
layerId = UUID0;
paths = (
{
closed = 1;
nodes = (
"158 -107 LINE",
"171 -100 LINE",
"177 -89 LINE",
"169 -75 LINE",
"156 -28 LINE",
"145 26 LINE",
"132 82 LINE",
"118 127 LINE",
"103 156 LINE",
"86 156 LINE",
"75 153 LINE",
"72 146 LINE",
"73 136 LINE",
"77 89 LINE",
"85 33 LINE",
"97 -27 LINE",
"112 -76 LINE",
"135 -107 LINE"
);
},
{
closed = 1;
nodes = (
"250 -127 LINE",
"251 -126 LINE",
"254 -125 LINE",
"269 -110 LINE",
"271 -107 LINE",
"271 -70 LINE",
"270 -29 LINE",
"267 27 LINE",
"260 93 LINE",
"248 147 LINE",
"230 185 LINE",
"218 185 LINE",
"216 184 LINE",
"214 184 LINE",
"212 183 LINE",
"205 176 LINE",
"204 174 LINE",
"204 107 LINE",
"206 60 LINE",
"208 10 LINE",
"212 -46 LINE",
"214 -79 LINE",
"214 -81 LINE",
"220 -96 LINE",
"229 -113 LINE",
"239 -127 LINE"
);
}
);
width = 342;
}
);
unicode = 201E;
},
{
glyphname = quotedblleft;
lastChange = "2016-08-24 10:04:02 +0000";
layers = (
{
layerId = UUID0;
paths = (
{
closed = 1;
nodes = (
"95 505 LINE",
"107 514 LINE",
"113 525 LINE",
"106 539 LINE",
"94 586 LINE",
"81 640 LINE",
"68 695 LINE",
"55 741 LINE",
"39 770 LINE",
"23 770 LINE",
"13 768 LINE",
"10 760 LINE",
"10 748 LINE",
"14 702 LINE",
"21 646 LINE",
"33 586 LINE",
"50 537 LINE",
"71 505 LINE"
);
},
{
closed = 1;
nodes = (
"188 487 LINE",
"191 489 LINE",
"206 503 LINE",
"207 506 LINE",
"207 543 LINE",
"206 584 LINE",
"203 642 LINE",
"197 707 LINE",
"186 762 LINE",
"168 798 LINE",
"150 798 LINE",
"146 792 LINE",
"142 789 LINE",
"142 722 LINE",
"143 673 LINE",
"145 623 LINE",
"148 568 LINE",
"150 534 LINE",
"150 533 LINE",
"156 519 LINE",
"165 501 LINE",
"177 487 LINE"
);
}
);
width = 235;
}
);
unicode = 201C;
},
{
glyphname = quotedblright;
lastChange = "2016-08-24 10:04:02 +0000";
layers = (
{
layerId = UUID0;
paths = (
{
closed = 1;
nodes = (
"95 505 LINE",
"107 514 LINE",
"113 525 LINE",
"106 539 LINE",
"94 586 LINE",
"81 640 LINE",
"68 695 LINE",
"55 741 LINE",
"39 770 LINE",
"23 770 LINE",
"13 768 LINE",
"10 760 LINE",
"10 748 LINE",
"14 702 LINE",
"21 646 LINE",
"33 586 LINE",
"50 537 LINE",
"71 505 LINE"
);
},
{
closed = 1;
nodes = (
"188 487 LINE",
"191 489 LINE",
"206 503 LINE",
"207 506 LINE",
"207 543 LINE",
"206 584 LINE",
"203 642 LINE",
"197 707 LINE",
"186 762 LINE",
"168 798 LINE",
"150 798 LINE",
"146 792 LINE",
"142 789 LINE",
"142 722 LINE",
"143 673 LINE",
"145 623 LINE",
"148 568 LINE",
"150 534 LINE",
"150 533 LINE",
"156 519 LINE",
"165 501 LINE",
"177 487 LINE"
);
}
);
width = 235;
}
);
unicode = 201D;
},
{
glyphname = quoteleft;
lastChange = "2016-08-24 10:04:02 +0000";
layers = (
{
layerId = UUID0;
paths = (
{
closed = 1;
nodes = (
"81 487 LINE",
"86 505 LINE",
"86 530 LINE",
"85 567 LINE",
"81 610 LINE",
"75 657 LINE",
"64 695 LINE",
"48 725 LINE",
"37 730 LINE",
"30 725 LINE",
"23 717 LINE",
"20 710 LINE",
"19 701 LINE",
"19 660 LINE",
"21 613 LINE",
"26 561 LINE",
"36 517 LINE",
"54 487 LINE"
);
}
);
width = 104;
}
);
unicode = 2018;
},
{
glyphname = quoteright;
lastChange = "2016-08-24 10:04:02 +0000";
layers = (
{
layerId = UUID0;
paths = (
{
closed = 1;
nodes = (
"81 487 LINE",
"86 505 LINE",
"86 530 LINE",
"85 567 LINE",
"81 610 LINE",
"75 657 LINE",
"64 695 LINE",
"48 725 LINE",
"37 730 LINE",
"30 725 LINE",
"23 717 LINE",
"20 710 LINE",
"19 701 LINE",
"19 660 LINE",
"21 613 LINE",
"26 561 LINE",
"36 517 LINE",
"54 487 LINE"
);
}
);
width = 104;
}
);
unicode = 2019;
},
{
glyphname = quotesinglbase;
lastChange = "2016-08-24 10:04:02 +0000";
layers = (
{
layerId = UUID0;
paths = (
{
closed = 1;
nodes = (
"86 -31 LINE",
"90 -14 LINE",
"90 12 LINE",
"89 49 LINE",
"86 92 LINE",
"80 139 LINE",
"68 178 LINE",
"53 207 LINE",
"42 213 LINE",
"27 198 LINE",
"24 191 LINE",
"23 184 LINE",
"23 142 LINE",
"25 95 LINE",
"30 42 LINE",
"41 -2 LINE",
"58 -31 LINE"
);
}
);
width = 104;
}
);
unicode = 201A;
},
{
glyphname = Euro;
lastChange = "2016-08-24 10:04:02 +0000";
layers = (
{
layerId = UUID0;
paths = (
{
closed = 1;
nodes = (
"392 -1 LINE",
"455 5 LINE",
"530 16 LINE",
"609 30 LINE",
"674 49 LINE",
"715 70 LINE",
"715 94 LINE",
"704 104 LINE",
"646 104 LINE",
"566 89 LINE",
"486 70 LINE",
"405 56 LINE",
"326 56 LINE",
"272 83 LINE",
"239 130 LINE",
"226 193 LINE",
"226 245 LINE",
"236 271 LINE",
"253 272 LINE",
"291 277 LINE",
"330 283 LINE",
"373 289 LINE",
"411 295 LINE",
"443 299 LINE",
"464 302 LINE",
"490 300 LINE",
"515 303 LINE",
"536 314 LINE",
"544 329 LINE",
"537 338 LINE",
"520 347 LINE",
"499 349 LINE",
"479 348 LINE",
"444 348 LINE",
"396 341 LINE",
"348 333 LINE",
"300 326 LINE",
"265 326 LINE",
"253 335 LINE",
"253 373 LINE",
"272 418 LINE",
"306 451 LINE",
"350 470 LINE",
"388 470 LINE",
"405 467 LINE",
"420 463 LINE",
"436 460 LINE",
"451 460 LINE",
"459 463 LINE",
"469 466 LINE",
"477 469 LINE",
"490 469 LINE",
"501 466 LINE",
"514 463 LINE",
"524 460 LINE",
"540 460 LINE",
"555 468 LINE",
"555 493 LINE",
"517 517 LINE",
"466 532 LINE",
"416 542 LINE",
"403 543 LINE",
"403 562 LINE",
"430 583 LINE",
"470 604 LINE",
"517 623 LINE",
"558 639 LINE",
"586 648 LINE",
"597 648 LINE",
"610 637 LINE",
"621 622 LINE",
"631 605 LINE",
"638 600 LINE",
"646 608 LINE",
"648 629 LINE",
"648 668 LINE",
"609 695 LINE",
"539 695 LINE",
"464 659 LINE",
"396 606 LINE",
"334 548 LINE",
"301 525 LINE",
"282 513 LINE",
"224 506 LINE",
"157 505 LINE",
"89 503 LINE",
"33 490 LINE",
"-1 459 LINE",
"-1 430 LINE",
"22 430 LINE",
"68 437 LINE",
"114 443 LINE",
"159 450 LINE",
"197 450 LINE",
"208 449 LINE",
"221 449 LINE",
"235 442 LINE",
"235 440 LINE",
"188 310 LINE",
"187 309 LINE",
"165 301 LINE",
"159 300 LINE",
"158 300 LINE",
"136 297 LINE",
"75 291 LINE",
"57 291 LINE",
"51 290 LINE",
"35 287 LINE",
"21 284 LINE",
"10 281 LINE",
"10 241 LINE",
"49 241 LINE",
"123 253 LINE",
"171 253 LINE",
"180 216 LINE",
"188 159 LINE",
"206 94 LINE",
"247 36 LINE",
"317 -1 LINE"
);
}
);
width = 741;
}
);
unicode = 20AC;
},
{
glyphname = cent;
lastChange = "2016-08-24 10:04:02 +0000";
layers = (
{
layerId = UUID0;
paths = (
{
closed = 1;
nodes = (
"241 -60 LINE",
"253 -49 LINE",
"264 -32 LINE",
"271 -11 LINE",
"274 0 LINE",
"297 3 LINE",
"353 7 LINE",
"398 16 LINE",
"427 29 LINE",
"423 42 LINE",
"423 48 LINE",
"420 49 LINE",
"406 57 LINE",
"403 57 LINE",
"373 55 LINE",
"309 54 LINE",
"276 55 LINE",
"275 59 LINE",
"273 64 LINE",
"272 65 LINE",
"273 116 LINE",
"275 202 LINE",
"273 279 LINE",
"266 353 LINE",
"259 391 LINE",
"294 382 LINE",
"329 326 LINE",
"329 287 LINE",
"333 287 LINE",
"344 306 LINE",
"352 329 LINE",
"356 353 LINE",
"356 378 LINE",
"336 408 LINE",
"304 428 LINE",
"265 438 LINE",
"247 440 LINE",
"250 452 LINE",
"242 485 LINE",
"229 517 LINE",
"212 537 LINE",
"199 536 LINE",
"193 505 LINE",
"197 469 LINE",
"197 461 LINE",
"199 454 LINE",
"202 439 LINE",
"163 434 LINE",
"97 394 LINE",
"47 332 LINE",
"19 257 LINE",
"19 108 LINE",
"119 1 LINE",
"220 -5 LINE",
"221 -21 LINE",
"221 -50 LINE",
"222 -52 LINE",
"230 -60 LINE"
);
},
{
closed = 1;
nodes = (
"188 65 LINE",
"136 86 LINE",
"97 123 LINE",
"74 177 LINE",
"74 247 LINE",
"92 306 LINE",
"127 355 LINE",
"177 389 LINE",
"209 394 LINE",
"212 362 LINE",
"215 305 LINE",
"215 186 LINE",
"216 150 LINE",
"216 142 LINE",
"217 91 LINE",
"218 60 LINE"
);
}
);
width = 449;
}
);
unicode = 00A2;
},
{
glyphname = currency;
lastChange = "2016-08-24 10:04:02 +0000";
layers = (
{
layerId = UUID0;
paths = (
{
closed = 1;
nodes = (
"121 39 LINE",
"143 65 LINE",
"168 101 LINE",
"181 119 LINE",
"233 83 LINE",
"361 83 LINE",
"410 104 LINE",
"429 81 LINE",
"467 41 LINE",
"485 25 LINE",
"486 25 LINE",
"493 24 LINE",
"506 24 LINE",
"520 43 LINE",
"522 54 LINE",
"479 91 LINE",
"456 129 LINE",
"493 156 LINE",
"540 238 LINE",
"540 320 LINE",
"519 385 LINE",
"499 414 LINE",
"516 434 LINE",
"552 471 LINE",
"573 489 LINE",
"569 507 LINE",
"550 514 LINE",
"521 501 LINE",
"484 473 LINE",
"464 455 LINE",
"443 475 LINE",
"394 499 LINE",
"315 499 LINE",
"217 469 LINE",
"178 439 LINE",
"160 455 LINE",
"127 483 LINE",
"95 508 LINE",
"66 526 LINE",
"55 531 LINE",
"51 531 LINE",
"42 530 LINE",
"34 525 LINE",
"30 517 LINE",
"31 510 LINE",
"36 499 LINE",
"57 471 LINE",
"84 440 LINE",
"115 408 LINE",
"132 392 LINE",
"117 369 LINE",
"100 314 LINE",
"100 246 LINE",
"120 184 LINE",
"138 159 LINE",
"113 128 LINE",
"77 65 LINE",
"77 24 LINE",
"97 24 LINE",
"103 23 LINE"
);
},
{
closed = 1;
nodes = (
"294 129 LINE",
"264 129 LINE",
"209 153 LINE",
"169 194 LINE",
"146 250 LINE",
"146 317 LINE",
"184 374 LINE",
"241 411 LINE",
"311 431 LINE",
"343 431 LINE",
"415 418 LINE",
"487 361 LINE",
"503 292 LINE",
"473 219 LINE",
"414 160 LINE",
"335 125 LINE"
);
}
);
width = 618;
}
);
unicode = 00A4;
},
{
glyphname = dollar;
lastChange = "2016-08-24 10:04:02 +0000";
layers = (
{
layerId = UUID0;
paths = (
{
closed = 1;
nodes = (
"336 -1 LINE",
"352 13 LINE",
"358 33 LINE",
"358 56 LINE",
"356 65 LINE",
"455 72 LINE",
"563 183 LINE",
"563 323 LINE",
"531 381 LINE",
"485 429 LINE",
"434 473 LINE",
"413 497 LINE",
"413 499 LINE",
"412 511 LINE",
"412 524 LINE",
"411 537 LINE",
"411 577 LINE",
"428 646 LINE",
"432 685 LINE",
"439 684 LINE",
"458 689 LINE",
"476 698 LINE",
"487 709 LINE",
"487 719 LINE",
"475 728 LINE",
"459 735 LINE",
"443 743 LINE",
"440 750 LINE",
"440 897 LINE",
"419 897 LINE",
"399 870 LINE",
"394 833 LINE",
"395 792 LINE",
"395 778 LINE",
"394 778 LINE",
"382 777 LINE",
"367 777 LINE",
"351 780 LINE",
"338 787 LINE",
"338 810 LINE",
"337 818 LINE",
"337 823 LINE",
"338 834 LINE",
"338 854 LINE",
"341 859 LINE",
"347 871 LINE",
"347 872 LINE",
"345 888 LINE",
"338 913 LINE",
"338 929 LINE",
"316 920 LINE",
"294 879 LINE",
"285 830 LINE",
"283 778 LINE",
"282 760 LINE",
"242 747 LINE",
"174 700 LINE",
"150 666 LINE",
"150 663 LINE",
"149 646 LINE",
"149 616 LINE",
"171 581 LINE",
"203 552 LINE",
"239 523 LINE",
"253 506 LINE",
"253 495 LINE",
"254 484 LINE",
"254 461 LINE",
"253 410 LINE",
"249 350 LINE",
"241 284 LINE",
"229 231 LINE",
"210 197 LINE",
"174 197 LINE",
"135 232 LINE",
"96 275 LINE",
"59 311 LINE",
"28 311 LINE",
"13 303 LINE",
"10 291 LINE",
"6 277 LINE",
"30 247 LINE",
"73 217 LINE",
"125 187 LINE",
"174 158 LINE",
"210 133 LINE",
"216 122 LINE",
"220 115 LINE",
"218 77 LINE",
"220 38 LINE",
"233 8 LINE",
"261 8 LINE",
"271 36 LINE",
"279 70 LINE",
"284 103 LINE",
"285 106 LINE",
"291 104 LINE",
"300 69 LINE",
"304 51 LINE",
"307 27 LINE",
"310 0 LINE",
"312 0 LINE",
"322 -1 LINE"
);
},
{
closed = 1;
nodes = (
"270 195 LINE",
"271 247 LINE",
"283 313 LINE",
"300 382 LINE",
"315 446 LINE",
"319 469 LINE",
"318 471 LINE",
"327 473 LINE",
"337 473 LINE",
"344 469 LINE",
"342 466 LINE",
"342 455 LINE",
"336 412 LINE",
"326 350 LINE",
"316 277 LINE",
"308 215 LINE",
"301 172 LINE",
"301 171 LINE",
"282 167 LINE"
);
},
{
closed = 1;
nodes = (
"382 123 LINE",
"366 131 LINE",
"366 148 LINE",
"365 165 LINE",
"365 240 LINE",
"367 291 LINE",
"373 344 LINE",
"384 391 LINE",
"400 425 LINE",
"413 432 LINE",
"457 400 LINE",
"508 328 LINE",
"508 248 LINE",
"493 194 LINE",
"465 150 LINE",
"420 122 LINE",
"385 122 LINE"
);
},
{
closed = 1;
nodes = (
"247 572 LINE",
"240 577 LINE",
"235 581 LINE",
"225 586 LINE",
"213 595 LINE",
"207 604 LINE",
"206 618 LINE",
"206 636 LINE",
"211 656 LINE",
"221 674 LINE",
"237 685 LINE",
"253 685 LINE",
"262 678 LINE",
"269 667 LINE",
"272 655 LINE",
"272 620 LINE",
"270 596 LINE",
"262 576 LINE",
"255 571 LINE",
"253 569 LINE"
);
},
{
closed = 1;
nodes = (
"329 502 LINE",
"320 520 LINE",
"317 541 LINE",
"317 588 LINE",
"318 619 LINE",
"321 649 LINE",
"325 683 LINE",
"329 704 LINE",
"329 705 LINE",
"336 713 LINE",
"341 713 LINE",
"354 714 LINE",
"370 716 LINE",
"385 716 LINE",
"385 704 LINE",
"386 667 LINE",
"385 625 LINE",
"381 580 LINE",
"370 540 LINE",
"353 507 LINE",
"338 497 LINE"
);
}
);
width = 581;
}
);
unicode = 0024;
},
{
glyphname = florin;
lastChange = "2016-08-24 10:04:02 +0000";
layers = (
{
layerId = UUID0;
paths = (
{
closed = 1;
nodes = (
"157 -242 LINE",
"156 -210 LINE",
"155 -193 LINE",
"161 -97 LINE",
"169 37 LINE",
"175 194 LINE",
"174 273 LINE",
"212 265 LINE",
"282 260 LINE",
"332 265 LINE",
"356 279 LINE",
"348 291 LINE",
"350 311 LINE",
"329 311 LINE",
"281 313 LINE",
"218 319 LINE",
"180 324 LINE",
"162 327 LINE",
"160 329 LINE",
"156 464 LINE",
"156 505 LINE",
"173 567 LINE",
"206 617 LINE",
"256 648 LINE",
"313 648 LINE",
"350 619 LINE",
"382 583 LINE",
"414 554 LINE",
"455 554 LINE",
"455 581 LINE",
"420 634 LINE",
"366 678 LINE",
"304 704 LINE",
"230 704 LINE",
"165 663 LINE",
"124 597 LINE",
"101 514 LINE",
"92 428 LINE",
"93 348 LINE",
"95 318 LINE",
"48 314 LINE",
"15 307 LINE",
"-9 289 LINE",
"-9 265 LINE",
"-3 253 LINE",
"10 253 LINE",
"16 254 LINE",
"42 259 LINE",
"72 266 LINE",
"99 271 LINE",
"104 272 LINE",
"114 262 LINE",
"117 255 LINE",
"117 193 LINE",
"114 108 LINE",
"109 11 LINE",
"104 -77 LINE",
"101 -145 LINE",
"102 -156 LINE",
"101 -187 LINE",
"76 -198 LINE",
"40 -181 LINE",
"0 -143 LINE",
"-35 -104 LINE",
"-58 -75 LINE",
"-85 -75 LINE",
"-96 -101 LINE",
"-75 -140 LINE",
"-31 -185 LINE",
"24 -226 LINE",
"82 -257 LINE",
"129 -264 LINE"
);
}
);
width = 377;
}
);
unicode = 0192;
},
{
glyphname = sterling;
lastChange = "2016-08-24 10:04:02 +0000";
layers = (
{
layerId = UUID0;
paths = (
{
closed = 1;
nodes = (
"149 -2 LINE",
"191 16 LINE",
"231 39 LINE",
"273 57 LINE",
"335 57 LINE",
"402 45 LINE",
"462 45 LINE",
"513 51 LINE",
"534 65 LINE",
"520 92 LINE",
"472 114 LINE",
"415 122 LINE",
"355 121 LINE",
"329 122 LINE",
"310 131 LINE",
"326 161 LINE",
"344 224 LINE",
"358 282 LINE",
"375 333 LINE",
"405 372 LINE",
"454 395 LINE",
"511 395 LINE",
"526 394 LINE",
"544 394 LINE",
"553 386 LINE",
"568 383 LINE",
"594 383 LINE",
"602 405 LINE",
"602 423 LINE",
"601 434 LINE",
"597 443 LINE",
"589 449 LINE",
"413 449 LINE",
"403 460 LINE",
"404 465 LINE",
"405 471 LINE",
"408 486 LINE",
"411 502 LINE",
"413 506 LINE",
"424 542 LINE",
"449 602 LINE",
"488 643 LINE",
"543 666 LINE",
"608 666 LINE",
"645 649 LINE",
"669 624 LINE",
"684 594 LINE",
"695 568 LINE",
"706 552 LINE",
"726 552 LINE",
"731 574 LINE",
"731 617 LINE",
"706 668 LINE",
"663 704 LINE",
"609 723 LINE",
"537 723 LINE",
"476 698 LINE",
"434 659 LINE",
"405 608 LINE",
"385 555 LINE",
"366 501 LINE",
"342 457 LINE",
"308 427 LINE",
"282 423 LINE",
"272 423 LINE",
"265 421 LINE",
"229 413 LINE",
"191 403 LINE",
"157 396 LINE",
"150 394 LINE",
"147 393 LINE",
"133 378 LINE",
"132 375 LINE",
"132 366 LINE",
"133 363 LINE",
"140 349 LINE",
"142 347 LINE",
"162 347 LINE",
"197 353 LINE",
"231 361 LINE",
"266 367 LINE",
"306 367 LINE",
"319 362 LINE",
"329 353 LINE",
"329 320 LINE",
"313 255 LINE",
"286 188 LINE",
"253 134 LINE",
"235 122 LINE",
"213 125 LINE",
"180 129 LINE",
"147 131 LINE",
"115 132 LINE",
"83 132 LINE",
"54 130 LINE",
"27 121 LINE",
"10 103 LINE",
"10 62 LINE",
"30 28 LINE",
"63 8 LINE",
"104 -2 LINE"
);
}
);
width = 760;
}
);
unicode = 00A3;
},
{
glyphname = yen;
lastChange = "2016-08-24 10:04:02 +0000";
layers = (
{
layerId = UUID0;
paths = (
{
closed = 1;
nodes = (
"219 -3 LINE",
"229 161 LINE",
"298 160 LINE",
"335 180 LINE",
"331 191 LINE",
"310 208 LINE",
"282 217 LINE",
"250 221 LINE",
"232 221 LINE",
"237 281 LINE",
"321 274 LINE",
"323 274 LINE",
"324 275 LINE",
"325 275 LINE",
"326 276 LINE",
"331 279 LINE",
"346 293 LINE",
"346 302 LINE",
"329 313 LINE",
"300 322 LINE",
"262 328 LINE",
"240 330 LINE",
"243 378 LINE",
"385 663 LINE",
"410 692 LINE",
"389 716 LINE",
"342 695 LINE",
"322 661 LINE",
"285 599 LINE",
"253 540 LINE",
"228 481 LINE",
"219 452 LINE",
"193 473 LINE",
"163 526 LINE",
"145 584 LINE",
"132 643 LINE",
"115 694 LINE",
"89 736 LINE",
"66 747 LINE",
"63 747 LINE",
"62 748 LINE",
"57 748 LINE",
"50 741 LINE",
"43 731 LINE",
"39 722 LINE",
"38 719 LINE",
"188 373 LINE",
"185 333 LINE",
"147 334 LINE",
"78 332 LINE",
"27 329 LINE",
"5 323 LINE",
"16 321 LINE",
"16 306 LINE",
"39 297 LINE",
"51 297 LINE",
"180 285 LINE",
"173 218 LINE",
"104 218 LINE",
"101 217 LINE",
"96 216 LINE",
"44 212 LINE",
"42 212 LINE",
"34 204 LINE",
"34 188 LINE",
"42 173 LINE",
"57 165 LINE",
"78 164 LINE",
"91 164 LINE",
"167 162 LINE",
"150 -6 LINE"
);
}
);
width = 390;
}
);
unicode = 00A5;
},
{
glyphname = plus;
lastChange = "2016-08-24 10:04:02 +0000";
layers = (
{
layerId = UUID0;
paths = (
{
closed = 1;
nodes = (
"234 -1 LINE",
"235 0 LINE",
"238 1 LINE",
"247 8 LINE",
"256 14 LINE",
"263 19 LINE",
"263 188 LINE",
"415 188 LINE",
"425 197 LINE",
"434 209 LINE",
"440 222 LINE",
"440 231 LINE",
"429 239 LINE",
"413 242 LINE",
"397 244 LINE",
"395 244 LINE",
"379 245 LINE",
"286 257 LINE",
"253 262 LINE",
"244 272 LINE",
"207 403 LINE",
"188 423 LINE",
"179 423 LINE",
"176 420 LINE",
"161 406 LINE",
"159 403 LINE",
"159 384 LINE",
"165 353 LINE",
"174 322 LINE",
"180 291 LINE",
"180 265 LINE",
"179 253 LINE",
"174 244 LINE",
"169 244 LINE",
"161 242 LINE",
"121 234 LINE",
"76 226 LINE",
"36 218 LINE",
"28 216 LINE",
"14 212 LINE",
"7 204 LINE",
"7 183 LINE",
"14 168 LINE",
"47 168 LINE",
"84 174 LINE",
"121 182 LINE",
"159 188 LINE",
"188 188 LINE",
"189 181 LINE",
"195 149 LINE",
"201 113 LINE",
"206 81 LINE",
"207 74 LINE",
"208 69 LINE",
"206 45 LINE",
"209 19 LINE",
"219 -1 LINE"
);
}
);
width = 460;
}
);
unicode = 002B;
},
{
glyphname = minus;
lastChange = "2016-08-24 10:04:02 +0000";
layers = (
{
layerId = UUID0;
paths = (
{
closed = 1;
nodes = (
"43 241 LINE",
"79 247 LINE",
"110 255 LINE",
"146 262 LINE",
"197 262 LINE",
"233 250 LINE",
"273 250 LINE",
"273 288 LINE",
"256 308 LINE",
"229 316 LINE",
"197 317 LINE",
"160 317 LINE",
"134 313 LINE",
"82 314 LINE",
"40 306 LINE",
"15 275 LINE",
"15 241 LINE"
);
}
);
width = 288;
}
);
unicode = 2212;
},
{
glyphname = multiply;
lastChange = "2016-08-24 10:04:02 +0000";
layers = (
{
layerId = UUID0;
paths = (
{
closed = 1;
nodes = (
"112 59 LINE",
"135 80 LINE",
"163 113 LINE",
"183 136 LINE",
"194 147 LINE",
"200 148 LINE",
"218 129 LINE",
"235 109 LINE",
"242 102 LINE",
"244 101 LINE",
"247 95 LINE",
"259 80 LINE",
"272 64 LINE",
"288 76 LINE",
"314 92 LINE",
"320 104 LINE",
"300 121 LINE",
"283 139 LINE",
"271 153 LINE",
"254 174 LINE",
"233 192 LINE",
"248 209 LINE",
"286 238 LINE",
"320 262 LINE",
"345 280 LINE",
"345 288 LINE",
"340 312 LINE",
"323 325 LINE",
"303 316 LINE",
"276 293 LINE",
"245 266 LINE",
"211 243 LINE",
"191 240 LINE",
"171 251 LINE",
"153 265 LINE",
"138 281 LINE",
"117 304 LINE",
"96 323 LINE",
"92 323 LINE",
"76 317 LINE",
"61 309 LINE",
"50 295 LINE",
"51 288 LINE",
"72 271 LINE",
"96 247 LINE",
"133 208 LINE",
"149 192 LINE",
"149 191 LINE",
"150 188 LINE",
"150 173 LINE",
"134 152 LINE",
"110 132 LINE",
"86 104 LINE",
"77 81 LINE",
"77 77 LINE",
"85 68 LINE",
"96 63 LINE",
"107 59 LINE"
);
}
);
width = 448;
}
);
unicode = 00D7;
},
{
glyphname = equal;
lastChange = "2016-08-24 10:04:02 +0000";
layers = (
{
layerId = UUID0;
paths = (
{
closed = 1;
nodes = (
"477 309 LINE",
"479 310 LINE",
"481 313 LINE",
"497 326 LINE",
"497 351 LINE",
"473 374 LINE",
"438 385 LINE",
"350 385 LINE",
"197 387 LINE",
"126 385 LINE",
"66 378 LINE",
"25 364 LINE",
"19 352 LINE",
"19 336 LINE",
"42 326 LINE",
"54 326 LINE",
"141 322 LINE",
"253 325 LINE",
"326 332 LINE",
"374 338 LINE",
"407 338 LINE",
"426 329 LINE",
"444 317 LINE",
"463 309 LINE"
);
},
{
closed = 1;
nodes = (
"432 131 LINE",
"469 150 LINE",
"461 171 LINE",
"415 188 LINE",
"359 192 LINE",
"305 188 LINE",
"192 188 LINE",
"134 186 LINE",
"28 179 LINE",
"26 179 LINE",
"19 171 LINE",
"19 154 LINE",
"27 140 LINE",
"42 133 LINE",
"63 131 LINE"
);
}
);
width = 525;
}
);
unicode = 003D;
},
{
glyphname = greater;
lastChange = "2016-08-24 10:04:02 +0000";
layers = (
{
layerId = UUID0;
paths = (
{
closed = 1;
nodes = (
"54 -1 LINE",
"95 26 LINE",
"152 67 LINE",
"220 115 LINE",
"323 192 LINE",
"329 197 LINE",
"340 209 LINE",
"366 231 LINE",
"388 256 LINE",
"399 285 LINE",
"396 303 LINE",
"396 314 LINE",
"391 332 LINE",
"376 338 LINE",
"319 346 LINE",
"202 385 LINE",
"150 403 LINE",
"136 408 LINE",
"114 429 LINE",
"95 446 LINE",
"72 461 LINE",
"46 461 LINE",
"27 453 LINE",
"27 439 LINE",
"28 432 LINE",
"33 417 LINE",
"66 388 LINE",
"115 358 LINE",
"174 333 LINE",
"231 313 LINE",
"283 301 LINE",
"301 300 LINE",
"318 294 LINE",
"314 268 LINE",
"285 232 LINE",
"233 191 LINE",
"175 150 LINE",
"113 108 LINE",
"63 71 LINE",
"30 42 LINE",
"27 33 LINE",
"27 21 LINE",
"34 -1 LINE"
);
}
);
width = 403;
}
);
unicode = 003E;
},
{
glyphname = less;
lastChange = "2016-08-24 10:04:02 +0000";
layers = (
{
layerId = UUID0;
paths = (
{
closed = 1;
nodes = (
"425 0 LINE",
"425 43 LINE",
"387 68 LINE",
"335 84 LINE",
"272 94 LINE",
"269 94 LINE",
"242 98 LINE",
"206 104 LINE",
"165 110 LINE",
"130 118 LINE",
"105 127 LINE",
"104 131 LINE",
"121 151 LINE",
"165 187 LINE",
"213 219 LINE",
"261 247 LINE",
"282 262 LINE",
"285 265 LINE",
"355 312 LINE",
"437 366 LINE",
"460 384 LINE",
"460 385 LINE",
"458 387 LINE",
"451 395 LINE",
"442 403 LINE",
"435 411 LINE",
"432 412 LINE",
"420 407 LINE",
"393 394 LINE",
"365 379 LINE",
"339 363 LINE",
"329 355 LINE",
"311 344 LINE",
"260 309 LINE",
"204 270 LINE",
"149 230 LINE",
"104 200 LINE",
"77 180 LINE",
"75 179 LINE",
"10 112 LINE",
"-2 102 LINE",
"11 84 LINE",
"45 69 LINE",
"98 57 LINE",
"158 48 LINE",
"220 40 LINE",
"272 34 LINE",
"312 30 LINE",
"319 28 LINE",
"329 26 LINE",
"349 17 LINE",
"369 7 LINE",
"389 0 LINE"
);
}
);
width = 487;
}
);
unicode = 003C;
},
{
glyphname = plusminus;
lastChange = "2016-08-24 10:04:02 +0000";
layers = (
{
layerId = UUID0;
paths = (
{
closed = 1;
nodes = (
"86 30 LINE",
"142 37 LINE",
"253 53 LINE",
"292 53 LINE",
"407 50 LINE",
"437 50 LINE",
"437 87 LINE",
"400 104 LINE",
"353 109 LINE",
"303 108 LINE",
"286 108 LINE",
"274 107 LINE",
"271 107 LINE",
"271 245 LINE",
"423 245 LINE",
"432 255 LINE",
"441 268 LINE",
"448 279 LINE",
"448 289 LINE",
"437 297 LINE",
"420 300 LINE",
"405 302 LINE",
"402 302 LINE",
"387 303 LINE",
"339 309 LINE",
"294 314 LINE",
"276 317 LINE",
"261 320 LINE",
"252 330 LINE",
"215 461 LINE",
"199 477 LINE",
"195 479 LINE",
"191 479 LINE",
"190 480 LINE",
"188 479 LINE",
"183 479 LINE",
"168 464 LINE",
"167 461 LINE",
"167 441 LINE",
"173 411 LINE",
"181 380 LINE",
"187 350 LINE",
"187 332 LINE",
"188 321 LINE",
"186 312 LINE",
"183 303 LINE",
"177 302 LINE",
"169 300 LINE",
"44 275 LINE",
"36 273 LINE",
"21 271 LINE",
"15 262 LINE",
"15 240 LINE",
"21 227 LINE",
"54 227 LINE",
"92 232 LINE",
"129 239 LINE",
"167 245 LINE",
"195 245 LINE",
"197 238 LINE",
"203 207 LINE",
"209 171 LINE",
"214 139 LINE",
"215 133 LINE",
"215 128 LINE",
"214 111 LINE",
"215 101 LINE",
"181 98 LINE",
"115 88 LINE",
"68 72 LINE",
"47 48 LINE",
"57 30 LINE"
);
}
);
width = 460;
}
);
unicode = 00B1;
},
{
glyphname = asciitilde;
lastChange = "2016-08-24 10:04:02 +0000";
layers = (
{
layerId = UUID0;
paths = (
{
closed = 1;
nodes = (
"64 414 LINE",
"63 447 LINE",
"73 479 LINE",
"99 502 LINE",
"127 500 LINE",
"147 490 LINE",
"183 462 LINE",
"219 438 LINE",
"259 429 LINE",
"284 438 LINE",
"291 440 LINE",
"295 441 LINE",
"296 443 LINE",
"299 448 LINE",
"313 462 LINE",
"341 488 LINE",
"367 511 LINE",
"370 514 LINE",
"372 522 LINE",
"367 533 LINE",
"354 541 LINE",
"343 542 LINE",
"282 495 LINE",
"282 493 LINE",
"271 489 LINE",
"268 487 LINE",
"252 481 LINE",
"229 484 LINE",
"212 495 LINE",
"181 514 LINE",
"142 533 LINE",
"118 541 LINE",
"108 541 LINE",
"106 540 LINE",
"86 540 LINE",
"50 521 LINE",
"26 490 LINE",
"19 448 LINE",
"27 425 LINE",
"47 401 LINE",
"61 396 LINE"
);
}
);
width = 402;
}
);
unicode = 007E;
},
{
glyphname = logicalnot;
lastChange = "2016-08-24 10:04:02 +0000";
layers = (
{
layerId = UUID0;
paths = (
{
closed = 1;
nodes = (
"336 255 LINE",
"336 260 LINE",
"339 279 LINE",
"341 302 LINE",
"344 325 LINE",
"344 401 LINE",
"45 399 LINE",
"39 385 LINE",
"35 364 LINE",
"33 347 LINE",
"33 344 LINE",
"70 345 LINE",
"191 351 LINE",
"250 352 LINE",
"292 347 LINE",
"297 342 LINE",
"298 332 LINE",
"296 320 LINE",
"291 297 LINE",
"289 285 LINE",
"287 265 LINE",
"295 252 LINE",
"316 249 LINE"
);
}
);
width = 369;
}
);
unicode = 00AC;
},
{
glyphname = mu;
lastChange = "2016-08-24 10:04:02 +0000";
layers = (
{
layerId = UUID0;
paths = (
{
closed = 1;
nodes = (
"65 -58 LINE",
"68 143 LINE",
"71 125 LINE",
"80 109 LINE",
"89 92 LINE",
"124 63 LINE",
"180 39 LINE",
"222 30 LINE",
"260 34 LINE",
"310 63 LINE",
"344 96 LINE",
"364 130 LINE",
"375 142 LINE",
"391 114 LINE",
"408 63 LINE",
"422 24 LINE",
"439 3 LINE",
"457 5 LINE",
"470 5 LINE",
"486 11 LINE",
"486 35 LINE",
"473 73 LINE",
"455 119 LINE",
"437 168 LINE",
"432 188 LINE",
"429 194 LINE",
"428 234 LINE",
"426 287 LINE",
"422 344 LINE",
"412 393 LINE",
"396 424 LINE",
"375 424 LINE",
"361 414 LINE",
"355 403 LINE",
"355 395 LINE",
"356 350 LINE",
"356 299 LINE",
"355 253 LINE",
"355 227 LINE",
"327 176 LINE",
"287 128 LINE",
"242 94 LINE",
"197 94 LINE",
"151 123 LINE",
"116 170 LINE",
"91 229 LINE",
"74 290 LINE",
"65 346 LINE",
"65 369 LINE",
"68 385 LINE",
"70 402 LINE",
"73 419 LINE",
"74 423 LINE",
"82 453 LINE",
"60 478 LINE",
"30 461 LINE",
"9 401 LINE",
"17 349 LINE",
"15 -63 LINE"
);
}
);
width = 502;
}
);
unicode = 00B5;
},
{
glyphname = percent;
lastChange = "2016-08-24 10:04:02 +0000";
layers = (
{
layerId = UUID0;
paths = (
{
closed = 1;
nodes = (
"167 -1 LINE",
"196 38 LINE",
"232 99 LINE",
"271 171 LINE",
"306 238 LINE",
"332 291 LINE",
"338 300 LINE",
"357 346 LINE",
"406 416 LINE",
"459 479 LINE",
"512 543 LINE",
"535 581 LINE",
"535 583 LINE",
"536 593 LINE",
"534 602 LINE",
"530 610 LINE",
"520 610 LINE",
"479 568 LINE",
"423 498 LINE",
"354 406 LINE",
"286 307 LINE",
"221 206 LINE",
"171 117 LINE",
"142 47 LINE",
"142 19 LINE",
"147 -1 LINE"
);
},
{
closed = 1;
nodes = (
"104 338 LINE",
"92 341 LINE",
"77 356 LINE",
"68 377 LINE",
"65 399 LINE",
"65 422 LINE",
"75 449 LINE",
"94 473 LINE",
"120 487 LINE",
"150 487 LINE",
"179 476 LINE",
"202 454 LINE",
"216 427 LINE",
"216 396 LINE",
"191 365 LINE",
"156 344 LINE",
"117 334 LINE"
);
},
{
closed = 1;
nodes = (
"157 289 LINE",
"205 312 LINE",
"241 349 LINE",
"264 396 LINE",
"264 449 LINE",
"239 493 LINE",
"200 525 LINE",
"153 544 LINE",
"104 544 LINE",
"60 519 LINE",
"27 479 LINE",
"9 428 LINE",
"9 380 LINE",
"31 339 LINE",
"66 308 LINE",
"110 289 LINE"
);
},
{
closed = 1;
nodes = (
"411 66 LINE",
"403 74 LINE",
"402 78 LINE",
"402 115 LINE",
"418 165 LINE",
"446 212 LINE",
"484 244 LINE",
"520 244 LINE",
"537 229 LINE",
"549 206 LINE",
"555 181 LINE",
"555 149 LINE",
"534 110 LINE",
"503 81 LINE",
"462 64 LINE",
"430 64 LINE"
);
},
{
closed = 1;
nodes = (
"484 8 LINE",
"540 39 LINE",
"584 89 LINE",
"610 148 LINE",
"610 197 LINE",
"595 241 LINE",
"566 277 LINE",
"528 301 LINE",
"486 301 LINE",
"448 280 LINE",
"414 247 LINE",
"387 204 LINE",
"366 159 LINE",
"355 115 LINE",
"355 74 LINE",
"370 41 LINE",
"397 19 LINE",
"435 8 LINE"
);
}
);
width = 637;
}
);
unicode = 0025;
},
{
glyphname = at;
lastChange = "2016-08-24 10:04:02 +0000";
layers = (
{
layerId = UUID0;
paths = (
{
closed = 1;
nodes = (
"514 -2 LINE",
"603 8 LINE",
"680 24 LINE",
"732 48 LINE",
"755 77 LINE",
"745 95 LINE",
"711 95 LINE",
"643 79 LINE",
"574 60 LINE",
"505 45 LINE",
"414 45 LINE",
"312 84 LINE",
"220 153 LINE",
"143 244 LINE",
"87 347 LINE",
"56 457 LINE",
"56 569 LINE",
"109 686 LINE",
"199 778 LINE",
"314 839 LINE",
"375 844 LINE",
"406 839 LINE",
"487 815 LINE",
"569 778 LINE",
"648 727 LINE",
"708 656 LINE",
"743 568 LINE",
"741 514 LINE",
"741 494 LINE",
"729 432 LINE",
"703 368 LINE",
"664 317 LINE",
"629 308 LINE",
"607 319 LINE",
"588 337 LINE",
"573 354 LINE",
"572 355 LINE",
"572 358 LINE",
"575 382 LINE",
"575 414 LINE",
"572 449 LINE",
"564 479 LINE",
"548 498 LINE",
"521 498 LINE",
"505 479 LINE",
"496 449 LINE",
"493 414 LINE",
"494 382 LINE",
"496 358 LINE",
"497 355 LINE",
"488 341 LINE",
"458 308 LINE",
"421 279 LINE",
"380 262 LINE",
"335 262 LINE",
"297 278 LINE",
"273 307 LINE",
"262 347 LINE",
"262 408 LINE",
"285 484 LINE",
"330 545 LINE",
"397 582 LINE",
"471 582 LINE",
"517 567 LINE",
"555 540 LINE",
"586 502 LINE",
"600 479 LINE",
"611 485 LINE",
"628 511 LINE",
"628 549 LINE",
"586 587 LINE",
"528 614 LINE",
"471 629 LINE",
"402 629 LINE",
"313 586 LINE",
"250 514 LINE",
"215 420 LINE",
"215 338 LINE",
"235 279 LINE",
"275 233 LINE",
"331 206 LINE",
"391 206 LINE",
"438 226 LINE",
"482 256 LINE",
"521 292 LINE",
"534 310 LINE",
"543 300 LINE",
"563 279 LINE",
"588 263 LINE",
"614 253 LINE",
"659 253 LINE",
"707 279 LINE",
"742 322 LINE",
"767 378 LINE",
"781 437 LINE",
"788 493 LINE",
"788 531 LINE",
"786 575 LINE",
"780 619 LINE",
"769 661 LINE",
"760 675 LINE",
"742 699 LINE",
"690 751 LINE",
"628 799 LINE",
"558 842 LINE",
"484 874 LINE",
"414 892 LINE",
"332 892 LINE",
"240 860 LINE",
"159 806 LINE",
"93 730 LINE",
"45 645 LINE",
"19 551 LINE",
"19 505 LINE",
"20 414 LINE",
"71 259 LINE",
"164 132 LINE",
"294 33 LINE",
"375 0 LINE",
"419 -3 LINE"
);
}
);
width = 815;
}
);
unicode = 0040;
},
{
glyphname = ampersand;
lastChange = "2016-08-24 10:04:02 +0000";
layers = (
{
layerId = UUID0;
paths = (
{
closed = 1;
nodes = (
"131 -2 LINE",
"166 15 LINE",
"194 41 LINE",
"218 70 LINE",
"237 97 LINE",
"257 113 LINE",
"268 113 LINE",
"268 112 LINE",
"272 112 LINE",
"355 16 LINE",
"364 15 LINE",
"381 16 LINE",
"385 25 LINE",
"379 35 LINE",
"350 71 LINE",
"321 114 LINE",
"300 155 LINE",
"300 177 LINE",
"301 179 LINE",
"316 199 LINE",
"329 237 LINE",
"338 277 LINE",
"350 323 LINE",
"362 352 LINE",
"367 351 LINE",
"382 353 LINE",
"413 355 LINE",
"418 356 LINE",
"431 357 LINE",
"438 366 LINE",
"438 394 LINE",
"424 408 LINE",
"402 409 LINE",
"376 404 LINE",
"359 404 LINE",
"342 405 LINE",
"323 404 LINE",
"306 399 LINE",
"301 394 LINE",
"300 388 LINE",
"300 364 LINE",
"299 334 LINE",
"294 301 LINE",
"286 271 LINE",
"273 249 LINE",
"263 244 LINE",
"244 244 LINE",
"235 258 LINE",
"219 291 LINE",
"205 325 LINE",
"196 359 LINE",
"196 376 LINE",
"197 383 LINE",
"197 385 LINE",
"214 413 LINE",
"238 461 LINE",
"256 507 LINE",
"264 557 LINE",
"264 604 LINE",
"255 645 LINE",
"235 678 LINE",
"202 698 LINE",
"179 693 LINE",
"173 692 LINE",
"162 681 LINE",
"155 666 LINE",
"150 651 LINE",
"150 637 LINE",
"147 587 LINE",
"145 529 LINE",
"142 479 LINE",
"142 412 LINE",
"133 367 LINE",
"90 288 LINE",
"45 209 LINE",
"10 124 LINE",
"10 64 LINE",
"21 43 LINE",
"39 23 LINE",
"59 6 LINE",
"65 0 LINE",
"68 0 LINE",
"80 -1 LINE",
"94 -2 LINE"
);
},
{
closed = 1;
nodes = (
"82 57 LINE",
"71 71 LINE",
"65 89 LINE",
"65 98 LINE",
"74 132 LINE",
"89 177 LINE",
"109 227 LINE",
"133 269 LINE",
"157 298 LINE",
"169 300 LINE",
"174 285 LINE",
"193 250 LINE",
"212 216 LINE",
"227 183 LINE",
"227 153 LINE",
"198 114 LINE",
"159 77 LINE",
"117 50 LINE",
"104 48 LINE",
"96 46 LINE"
);
}
);
width = 457;
}
);
unicode = 0026;
},
{
glyphname = paragraph;
lastChange = "2016-08-24 10:04:02 +0000";
layers = (
{
layerId = UUID0;
paths = (
{
closed = 1;
nodes = (
"355 -21 LINE",
"369 24 LINE",
"376 99 LINE",
"379 188 LINE",
"376 284 LINE",
"370 375 LINE",
"358 453 LINE",
"351 479 LINE",
"343 496 LINE",
"308 509 LINE",
"258 511 LINE",
"196 508 LINE",
"128 508 LINE",
"76 481 LINE",
"39 438 LINE",
"19 380 LINE",
"19 315 LINE",
"33 280 LINE",
"60 265 LINE",
"96 262 LINE",
"184 268 LINE",
"207 264 LINE",
"215 262 LINE",
"220 221 LINE",
"219 158 LINE",
"217 87 LINE",
"218 25 LINE",
"227 -15 LINE",
"254 -15 LINE",
"276 -8 LINE",
"276 3 LINE",
"274 8 LINE",
"271 47 LINE",
"269 106 LINE",
"269 183 LINE",
"271 270 LINE",
"276 360 LINE",
"282 405 LINE",
"285 402 LINE",
"300 410 LINE",
"303 408 LINE",
"312 401 LINE",
"317 348 LINE",
"318 271 LINE",
"315 181 LINE",
"314 92 LINE",
"317 12 LINE",
"322 -15 LINE",
"335 -33 LINE"
);
}
);
width = 414;
}
);
unicode = 00B6;
},
{
glyphname = section;
lastChange = "2016-08-24 10:04:02 +0000";
layers = (
{
layerId = UUID0;
paths = (
{
closed = 1;
nodes = (
"351 0 LINE",
"407 14 LINE",
"455 43 LINE",
"486 87 LINE",
"486 156 LINE",
"453 205 LINE",
"427 220 LINE",
"443 227 LINE",
"472 246 LINE",
"493 271 LINE",
"506 302 LINE",
"506 360 LINE",
"473 410 LINE",
"417 438 LINE",
"346 452 LINE",
"200 467 LINE",
"145 484 LINE",
"111 517 LINE",
"111 546 LINE",
"109 563 LINE",
"136 587 LINE",
"180 601 LINE",
"236 603 LINE",
"293 595 LINE",
"342 576 LINE",
"356 561 LINE",
"389 530 LINE",
"438 508 LINE",
"458 520 LINE",
"443 562 LINE",
"411 594 LINE",
"384 618 LINE",
"313 648 LINE",
"238 663 LINE",
"164 659 LINE",
"103 636 LINE",
"61 594 LINE",
"56 563 LINE",
"57 515 LINE",
"95 459 LINE",
"127 443 LINE",
"92 434 LINE",
"41 391 LINE",
"35 358 LINE",
"33 321 LINE",
"58 269 LINE",
"101 233 LINE",
"157 214 LINE",
"219 204 LINE",
"281 203 LINE",
"308 203 LINE",
"332 200 LINE",
"373 189 LINE",
"402 171 LINE",
"420 144 LINE",
"420 94 LINE",
"382 65 LINE",
"329 55 LINE",
"271 56 LINE",
"219 56 LINE",
"171 69 LINE",
"130 92 LINE",
"92 118 LINE",
"68 132 LINE",
"61 136 LINE",
"48 128 LINE",
"39 122 LINE",
"58 76 LINE",
"124 27 LINE",
"203 4 LINE",
"288 0 LINE"
);
},
{
closed = 1;
nodes = (
"292 259 LINE",
"240 259 LINE",
"186 263 LINE",
"141 275 LINE",
"106 299 LINE",
"95 317 LINE",
"99 336 LINE",
"105 362 LINE",
"119 380 LINE",
"147 392 LINE",
"197 398 LINE",
"274 403 LINE",
"332 405 LINE",
"355 402 LINE",
"396 392 LINE",
"424 373 LINE",
"440 346 LINE",
"440 297 LINE",
"402 269 LINE",
"350 258 LINE"
);
}
);
width = 515;
}
);
unicode = 00A7;
},
{
glyphname = copyright;
lastChange = "2016-08-24 10:04:02 +0000";
layers = (
{
layerId = UUID0;
paths = (
{
closed = 1;
nodes = (
"313 -4 LINE",
"407 10 LINE",
"479 26 LINE",
"548 50 LINE",
"605 86 LINE",
"646 136 LINE",
"652 169 LINE",
"656 230 LINE",
"630 339 LINE",
"577 430 LINE",
"501 499 LINE",
"409 544 LINE",
"306 562 LINE",
"251 555 LINE",
"224 553 LINE",
"168 525 LINE",
"119 480 LINE",
"78 423 LINE",
"48 361 LINE",
"33 298 LINE",
"34 270 LINE",
"34 208 LINE",
"76 106 LINE",
"150 36 LINE",
"253 -4 LINE"
);
},
{
closed = 1;
nodes = (
"389 89 LINE",
"429 91 LINE",
"470 100 LINE",
"502 118 LINE",
"502 135 LINE",
"501 136 LINE",
"501 140 LINE",
"499 142 LINE",
"485 149 LINE",
"481 149 LINE",
"449 151 LINE",
"389 146 LINE",
"334 142 LINE",
"287 143 LINE",
"251 162 LINE",
"228 204 LINE",
"224 242 LINE",
"224 267 LINE",
"226 312 LINE",
"243 353 LINE",
"283 388 LINE",
"320 402 LINE",
"370 402 LINE",
"420 341 LINE",
"420 294 LINE",
"425 294 LINE",
"435 313 LINE",
"443 337 LINE",
"448 359 LINE",
"448 389 LINE",
"423 421 LINE",
"384 440 LINE",
"339 449 LINE",
"320 449 LINE",
"278 435 LINE",
"221 392 LINE",
"186 338 LINE",
"168 276 LINE",
"168 244 LINE",
"172 193 LINE",
"199 136 LINE",
"250 104 LINE",
"326 94 LINE",
"380 89 LINE"
);
},
{
closed = 1;
nodes = (
"265 54 LINE",
"185 92 LINE",
"120 151 LINE",
"80 229 LINE",
"81 273 LINE",
"81 286 LINE",
"89 325 LINE",
"104 369 LINE",
"127 414 LINE",
"156 455 LINE",
"191 486 LINE",
"212 493 LINE",
"238 505 LINE",
"320 502 LINE",
"411 474 LINE",
"500 422 LINE",
"569 347 LINE",
"607 247 LINE",
"603 186 LINE",
"603 162 LINE",
"566 124 LINE",
"508 93 LINE",
"438 71 LINE",
"372 56 LINE",
"317 48 LINE",
"305 48 LINE"
);
}
);
width = 669;
}
);
unicode = 00A9;
},
{
color = 0;
glyphname = registered;
lastChange = "2016-08-24 10:04:02 +0000";
layers = (
{
layerId = UUID0;
paths = (
{
closed = 1;
nodes = (
"314 14 LINE",
"341 18 LINE",
"408 27 LINE",
"479 44 LINE",
"549 68 LINE",
"607 104 LINE",
"647 153 LINE",
"654 188 LINE",
"657 249 LINE",
"631 357 LINE",
"578 447 LINE",
"502 517 LINE",
"411 562 LINE",
"307 579 LINE",
"253 572 LINE",
"225 570 LINE",
"171 543 LINE",
"121 499 LINE",
"80 441 LINE",
"51 379 LINE",
"34 315 LINE",
"36 287 LINE",
"36 226 LINE",
"77 125 LINE",
"152 54 LINE",
"254 14 LINE"
);
},
{
closed = 1;
nodes = (
"267 71 LINE",
"186 110 LINE",
"121 170 LINE",
"82 247 LINE",
"83 291 LINE",
"83 312 LINE",
"101 376 LINE",
"135 443 LINE",
"183 500 LINE",
"213 511 LINE",
"240 522 LINE",
"322 520 LINE",
"412 492 LINE",
"502 440 LINE",
"570 364 LINE",
"609 265 LINE",
"604 204 LINE",
"604 188 LINE",
"587 160 LINE",
"558 136 LINE",
"520 115 LINE",
"497 106 LINE",
"484 115 LINE",
"405 174 LINE",
"372 200 LINE",
"341 224 LINE",
"295 258 LINE",
"300 256 LINE",
"310 256 LINE",
"326 255 LINE",
"374 259 LINE",
"429 271 LINE",
"476 293 LINE",
"506 327 LINE",
"506 379 LINE",
"469 417 LINE",
"412 440 LINE",
"348 452 LINE",
"303 452 LINE",
"273 451 LINE",
"244 448 LINE",
"212 443 LINE",
"190 440 LINE",
"175 435 LINE",
"146 411 LINE",
"146 392 LINE",
"150 375 LINE",
"158 358 LINE",
"168 345 LINE",
"174 345 LINE",
"174 367 LINE",
"197 393 LINE",
"232 405 LINE",
"274 408 LINE",
"321 408 LINE",
"367 410 LINE",
"402 405 LINE",
"429 390 LINE",
"438 372 LINE",
"429 333 LINE",
"426 317 LINE",
"394 304 LINE",
"352 300 LINE",
"294 300 LINE",
"293 302 LINE",
"290 317 LINE",
"287 335 LINE",
"285 352 LINE",
"285 354 LINE",
"286 359 LINE",
"278 370 LINE",
"265 376 LINE",
"247 376 LINE",
"238 372 LINE",
"233 356 LINE",
"232 303 LINE",
"238 242 LINE",
"247 181 LINE",
"257 133 LINE",
"265 106 LINE",
"268 111 LINE",
"286 106 LINE",
"303 119 LINE",
"303 148 LINE",
"291 193 LINE",
"282 222 LINE",
"297 209 LINE",
"339 174 LINE",
"386 138 LINE",
"435 104 LINE",
"455 93 LINE",
"432 86 LINE",
"387 76 LINE",
"347 69 LINE",
"314 65 LINE",
"306 65 LINE"
);
}
);
width = 708;
}
);
unicode = 00AE;
},
{
glyphname = trademark;
lastChange = "2016-08-24 10:04:02 +0000";
layers = (
{
layerId = UUID0;
paths = (
{
closed = 1;
nodes = (
"1075 -2 LINE",
"1083 2 LINE",
"1088 11 LINE",
"1088 68 LINE",
"1072 166 LINE",
"1055 265 LINE",
"1039 362 LINE",
"1039 450 LINE",
"1051 518 LINE",
"1051 559 LINE",
"1050 578 LINE",
"1044 599 LINE",
"1033 611 LINE",
"1022 610 LINE",
"1009 613 LINE",
"991 586 LINE",
"975 542 LINE",
"955 490 LINE",
"922 446 LINE",
"871 418 LINE",
"831 420 LINE",
"800 420 LINE",
"758 449 LINE",
"727 490 LINE",
"702 540 LINE",
"677 582 LINE",
"644 610 LINE",
"599 610 LINE",
"599 581 LINE",
"602 572 LINE",
"563 581 LINE",
"452 595 LINE",
"329 604 LINE",
"204 608 LINE",
"19 611 LINE",
"3 611 LINE",
"3 607 LINE",
"4 593 LINE",
"10 579 LINE",
"20 570 LINE",
"28 572 LINE",
"95 562 LINE",
"239 543 LINE",
"309 543 LINE",
"313 488 LINE",
"319 386 LINE",
"328 285 LINE",
"339 185 LINE",
"347 131 LINE",
"350 117 LINE",
"354 72 LINE",
"365 30 LINE",
"388 -1 LINE",
"428 -1 LINE",
"441 2 LINE",
"451 10 LINE",
"451 30 LINE",
"440 54 LINE",
"428 76 LINE",
"415 101 LINE",
"413 112 LINE",
"404 162 LINE",
"386 273 LINE",
"370 385 LINE",
"360 492 LINE",
"360 537 LINE",
"396 548 LINE",
"467 543 LINE",
"534 527 LINE",
"601 509 LINE",
"635 506 LINE",
"641 496 LINE",
"648 473 LINE",
"648 396 LINE",
"637 271 LINE",
"637 66 LINE",
"639 54 LINE",
"650 27 LINE",
"674 27 LINE",
"697 36 LINE",
"697 48 LINE",
"698 375 LINE",
"698 381 LINE",
"697 398 LINE",
"698 414 LINE",
"702 426 LINE",
"707 426 LINE",
"764 355 LINE",
"861 355 LINE",
"930 375 LINE",
"966 394 LINE",
"977 388 LINE",
"988 361 LINE",
"992 330 LINE",
"992 300 LINE",
"994 291 LINE",
"994 280 LINE",
"999 238 LINE",
"1005 185 LINE",
"1011 125 LINE",
"1017 71 LINE",
"1021 29 LINE",
"1022 19 LINE",
"1026 3 LINE",
"1047 -2 LINE"
);
}
);
width = 1116;
}
);
unicode = 2122;
},
{
glyphname = bar;
lastChange = "2016-08-24 10:04:02 +0000";
layers = (
{
layerId = UUID0;
paths = (
{
closed = 1;
nodes = (
"108 0 LINE",
"131 16 LINE",
"131 39 LINE",
"129 48 LINE",
"126 57 LINE",
"123 64 LINE",
"122 65 LINE",
"124 139 LINE",
"120 284 LINE",
"104 427 LINE",
"72 567 LINE",
"48 637 LINE",
"45 640 LINE",
"31 647 LINE",
"26 647 LINE",
"19 640 LINE",
"19 575 LINE",
"40 502 LINE",
"48 469 LINE",
"57 424 LINE",
"63 347 LINE",
"65 272 LINE",
"64 195 LINE",
"65 150 LINE",
"65 142 LINE",
"68 102 LINE",
"71 57 LINE",
"74 17 LINE",
"74 10 LINE",
"75 8 LINE",
"83 1 LINE",
"85 0 LINE"
);
}
);
width = 150;
}
);
unicode = 007C;
},
{
glyphname = brokenbar;
lastChange = "2016-08-24 10:04:02 +0000";
layers = (
{
layerId = UUID0;
paths = (
{
closed = 1;
nodes = (
"83 2 LINE",
"86 65 LINE",
"84 187 LINE",
"81 288 LINE",
"23 288 LINE",
"22 242 LINE",
"22 178 LINE",
"26 118 LINE",
"33 53 LINE",
"40 7 LINE",
"49 6 LINE",
"64 -11 LINE",
"75 -16 LINE"
);
},
{
closed = 1;
nodes = (
"77 335 LINE",
"80 385 LINE",
"83 440 LINE",
"86 496 LINE",
"85 517 LINE",
"85 522 LINE",
"80 541 LINE",
"70 560 LINE",
"57 572 LINE",
"40 572 LINE",
"28 566 LINE",
"28 535 LINE",
"29 473 LINE",
"29 344 LINE",
"28 320 LINE",
"77 317 LINE"
);
}
);
width = 117;
}
);
unicode = 00A6;
},
{
glyphname = dagger;
lastChange = "2016-08-24 10:04:02 +0000";
layers = (
{
layerId = UUID0;
paths = (
{
closed = 1;
nodes = (
"221 0 LINE",
"244 16 LINE",
"244 39 LINE",
"238 57 LINE",
"235 64 LINE",
"235 65 LINE",
"237 145 LINE",
"231 298 LINE",
"221 374 LINE",
"229 375 LINE",
"242 376 LINE",
"272 376 LINE",
"309 364 LINE",
"349 364 LINE",
"349 402 LINE",
"330 422 LINE",
"303 431 LINE",
"271 432 LINE",
"213 432 LINE",
"203 483 LINE",
"178 586 LINE",
"159 637 LINE",
"158 640 LINE",
"145 647 LINE",
"139 647 LINE",
"131 640 LINE",
"131 637 LINE",
"130 616 LINE",
"130 593 LINE",
"137 557 LINE",
"146 520 LINE",
"156 484 LINE",
"159 469 LINE",
"161 458 LINE",
"165 440 LINE",
"166 431 LINE",
"138 430 LINE",
"83 424 LINE",
"43 408 LINE",
"21 378 LINE",
"25 353 LINE",
"63 353 LINE",
"174 370 LINE",
"176 344 LINE",
"177 291 LINE",
"177 182 LINE",
"179 150 LINE",
"179 142 LINE",
"182 102 LINE",
"185 57 LINE",
"187 17 LINE",
"188 10 LINE",
"188 8 LINE",
"195 1 LINE",
"197 0 LINE"
);
}
);
width = 375;
}
);
unicode = 2020;
},
